<svg width="603" height="366" viewBox="0 0 603 366" fill="none" xmlns="http://www.w3.org/2000/svg">
<path d="M577.57 271.784C502.31 271.784 457.713 243.747 457.237 243.424C368.062 186.811 313.396 197.607 237.755 212.572C217.693 216.54 196.927 220.646 173.248 224.091C57.521 240.948 0.571023 191.917 0 191.409L1.40852 190.379C1.96051 190.871 58.3014 239.271 172.887 222.584C196.527 219.139 217.236 215.048 237.279 211.08C313.453 196.023 368.481 185.15 458.398 242.224C458.95 242.578 513.064 276.567 602.81 269.2L603 270.723C594.187 271.461 585.698 271.784 577.57 271.784Z" fill="#F3F9FF"/>
<g clip-path="url(#clip0)">
<path d="M533 137.145V211.66H129.367V158.575C136.834 129.859 150.27 103.04 168.798 79.8685L450.519 34.4785C459.033 40.0552 467.136 46.2349 474.767 52.9701L307.766 116.69L492.649 70.7249C500.23 79.1984 507.12 88.266 513.253 97.8406L475.521 126.059L518.153 105.877C522.098 112.685 525.662 119.707 528.827 126.911C530.305 130.28 531.696 133.691 533 137.145Z" fill="#F2F2F2"/>
<path d="M427.461 21.3773C398.537 7.2665 366.771 -0.0453622 334.59 0.000211739C269.094 0.000211739 210.536 29.7063 171.643 76.3807C238.245 61.784 354.204 36.5163 427.461 21.3773Z" fill="#F2F2F2"/>
<path d="M533 139.713V268.728H132.475C131.53 268.18 130.746 267.393 130.2 266.446C129.655 265.499 129.368 264.425 129.367 263.332V156.228C129.367 152.378 130.124 148.566 131.597 145.008C133.07 141.451 135.229 138.219 137.95 135.496C140.672 132.774 143.904 130.614 147.46 129.141C151.016 127.668 154.828 126.91 158.677 126.911H520.201C523.596 126.911 526.851 128.26 529.251 130.661C531.651 133.062 533 136.318 533 139.713Z" fill="#2F2E41"/>
<path d="M493.403 263.287C493.403 258.158 490.801 254.001 487.592 254.001C485.575 254.001 483.799 255.644 482.757 258.137C482.405 257.991 482.027 257.916 481.646 257.915C481.141 257.936 480.647 258.067 480.198 258.298C479.748 258.53 479.355 258.856 479.044 259.255C478.105 256.146 476.113 254.001 473.808 254.001C471.653 254.001 469.773 255.878 468.77 258.663C468.213 258.192 467.51 257.928 466.781 257.915C464.318 257.915 462.322 261.105 462.322 265.041C462.311 266.353 462.55 267.655 463.024 268.878H492.231C493.025 267.122 493.425 265.214 493.403 263.287Z" fill="#3F3D56"/>
<path d="M197.49 260.726C197.49 253.386 194.889 247.436 191.679 247.436C189.662 247.436 187.886 249.787 186.844 253.356C186.509 253.152 186.125 253.042 185.733 253.037C184.762 253.037 183.864 253.75 183.131 254.956C182.192 250.506 180.201 247.436 177.895 247.436C175.74 247.436 173.86 250.122 172.857 254.108C172.623 253.796 172.323 253.539 171.98 253.354C171.637 253.17 171.257 253.061 170.868 253.037C168.405 253.037 166.409 257.604 166.409 263.237C166.395 265.091 166.632 266.938 167.111 268.729H196.318C197.124 266.139 197.519 263.439 197.49 260.726Z" fill="#3F3D56"/>
<path d="M162.577 188.664H165.557C166.911 188.668 168.209 189.208 169.166 190.165C170.123 191.123 170.663 192.421 170.667 193.775V226.141C170.667 228.513 171.609 230.788 173.286 232.465C174.962 234.143 177.237 235.085 179.608 235.085C181.979 235.085 184.254 234.143 185.93 232.465C187.607 230.788 188.549 228.513 188.549 226.141V147.78C188.553 146.426 189.093 145.128 190.05 144.171C191.007 143.213 192.305 142.673 193.658 142.669H196.639C197.993 142.673 199.29 143.213 200.247 144.171C201.205 145.128 201.744 146.426 201.748 147.78V226.141C201.748 227.316 201.979 228.479 202.429 229.564C202.878 230.649 203.537 231.635 204.367 232.465C205.197 233.296 206.183 233.955 207.268 234.404C208.353 234.853 209.515 235.085 210.689 235.085C211.864 235.085 213.026 234.853 214.111 234.404C215.196 233.955 216.181 233.296 217.012 232.465C217.842 231.635 218.501 230.649 218.95 229.564C219.399 228.479 219.631 227.316 219.631 226.141V178.443C219.635 177.089 220.174 175.791 221.131 174.834C222.089 173.876 223.386 173.337 224.74 173.333H227.72C229.074 173.337 230.371 173.876 231.329 174.834C232.286 175.791 232.826 177.089 232.83 178.443V226.141C232.83 228.513 233.772 230.788 235.448 232.465C237.125 234.143 239.399 235.085 241.771 235.085C244.142 235.085 246.416 234.143 248.093 232.465C249.77 230.788 250.712 228.513 250.712 226.141V211.662C250.716 210.307 251.256 209.01 252.213 208.052C253.17 207.095 254.467 206.555 255.821 206.551H258.802C260.156 206.555 261.453 207.095 262.41 208.052C263.367 209.01 263.907 210.307 263.911 211.662V226.141C263.911 227.316 264.142 228.479 264.592 229.564C265.041 230.649 265.7 231.635 266.53 232.465C267.36 233.296 268.346 233.955 269.431 234.404C270.515 234.853 271.678 235.085 272.852 235.085C274.026 235.085 275.189 234.853 276.274 234.404C277.359 233.955 278.344 233.296 279.175 232.465C280.005 231.635 280.663 230.649 281.113 229.564C281.562 228.479 281.793 227.316 281.793 226.141V175.462C281.797 174.108 282.337 172.81 283.294 171.853C284.252 170.895 285.549 170.355 286.903 170.351H289.883C291.237 170.355 292.534 170.895 293.492 171.853C294.449 172.81 294.988 174.108 294.992 175.462V226.141C294.992 228.513 295.934 230.788 297.611 232.465C299.288 234.143 301.562 235.085 303.934 235.085C306.305 235.085 308.579 234.143 310.256 232.465C311.933 230.788 312.875 228.513 312.875 226.141V161.834C312.879 160.48 313.418 159.182 314.376 158.225C315.333 157.267 316.63 156.727 317.984 156.723H320.965C322.318 156.727 323.616 157.267 324.573 158.225C325.53 159.182 326.07 160.48 326.074 161.834V226.141C326.074 227.316 326.305 228.479 326.754 229.564C327.204 230.649 327.862 231.635 328.693 232.465C329.523 233.296 330.509 233.955 331.593 234.404C332.678 234.853 333.841 235.085 335.015 235.085C336.189 235.085 337.352 234.853 338.437 234.404C339.521 233.955 340.507 233.296 341.337 232.465C342.168 231.635 342.826 230.649 343.276 229.564C343.725 228.479 343.956 227.316 343.956 226.141V193.775C343.96 192.421 344.5 191.123 345.457 190.165C346.414 189.208 347.712 188.668 349.066 188.664H352.046C353.4 188.668 354.697 189.208 355.654 190.165C356.612 191.123 357.151 192.421 357.155 193.775V226.141C357.155 228.513 358.097 230.788 359.774 232.465C361.451 234.143 363.725 235.085 366.096 235.085C368.468 235.085 370.742 234.143 372.419 232.465C374.096 230.788 375.038 228.513 375.038 226.141V178.443C375.042 177.089 375.581 175.791 376.538 174.834C377.496 173.876 378.793 173.337 380.147 173.333H383.127C384.481 173.337 385.778 173.876 386.736 174.834C387.693 175.791 388.233 177.089 388.237 178.443V226.141C388.237 228.513 389.179 230.788 390.855 232.465C392.532 234.143 394.806 235.085 397.178 235.085H401.169C403.61 235.051 405.938 234.052 407.645 232.307C408.597 231.359 409.885 230.826 411.228 230.826H414.209C415.552 230.826 416.84 231.359 417.792 232.307C419.499 234.052 421.827 235.051 424.268 235.085H428.259C429.433 235.085 430.596 234.853 431.681 234.404C432.766 233.955 433.751 233.296 434.582 232.465C435.412 231.635 436.071 230.649 436.52 229.564C436.969 228.479 437.201 227.316 437.201 226.141V221.457C437.204 220.103 437.744 218.805 438.701 217.847C439.659 216.89 440.956 216.35 442.31 216.346H445.29C446.644 216.35 447.941 216.89 448.899 217.847C449.856 218.805 450.396 220.103 450.4 221.457V226.141C450.4 228.513 451.342 230.788 453.018 232.465C454.695 234.143 456.969 235.085 459.341 235.085C461.712 235.085 463.986 234.143 465.663 232.465C467.34 230.788 468.282 228.513 468.282 226.141V175.462C468.286 174.108 468.825 172.81 469.783 171.853C470.74 170.895 472.037 170.355 473.391 170.351H476.372C477.725 170.355 479.023 170.895 479.98 171.853C480.937 172.81 481.477 174.108 481.481 175.462V226.141C481.481 227.316 481.712 228.479 482.162 229.564C482.611 230.649 483.269 231.635 484.1 232.465C484.93 233.296 485.916 233.955 487 234.404C488.085 234.853 489.248 235.085 490.422 235.085C491.596 235.085 492.759 234.853 493.844 234.404C494.929 233.955 495.914 233.296 496.745 232.465C497.575 231.635 498.233 230.649 498.683 229.564C499.132 228.479 499.363 227.316 499.363 226.141V193.775C499.367 192.421 499.907 191.123 500.864 190.165C501.822 189.208 503.119 188.668 504.473 188.664H507.453C508.179 188.665 508.897 188.822 509.558 189.123C510.219 189.425 510.808 189.864 511.285 190.411V141.041C511.285 136.278 509.393 131.709 506.025 128.34C502.658 124.972 498.09 123.079 493.327 123.079H172.953C168.846 123.079 164.907 124.711 162.003 127.616C159.099 130.521 157.468 134.46 157.468 138.568V193.775C157.472 192.421 158.011 191.123 158.969 190.165C159.926 189.208 161.223 188.668 162.577 188.664Z" fill="#3F3D56"/>
<path d="M412.368 132.637H409.866V231.463H412.368V132.637Z" fill="#2F2E41"/>
<path d="M435.451 145.234C435.591 175.441 417.036 200.734 412.365 206.619C411.688 207.467 411.305 207.914 411.305 207.914C411.305 207.914 410.773 207.309 409.866 206.168C404.974 200.023 389.161 178.29 386.861 151.566C386.844 151.379 386.827 151.192 386.815 151.004C386.67 149.177 386.592 147.327 386.58 145.455C386.568 140.864 386.961 136.281 387.755 131.759C387.794 131.508 387.841 131.261 387.883 131.009C392.907 103.391 410.726 82.7744 410.726 82.7744C414.463 87.2509 417.82 92.0316 420.761 97.0668C420.838 97.1946 420.915 97.3224 420.987 97.4501C423.267 101.3 425.324 105.277 427.148 109.362C427.216 109.502 427.276 109.643 427.335 109.784C431.78 119.847 435.391 132.057 435.451 145.234Z" fill="#0080F6"/>
<path d="M258.663 113.897H256.162V212.724H258.663V113.897Z" fill="#2F2E41"/>
<path d="M281.748 126.492C281.907 161.049 257.6 189.175 257.6 189.175C257.6 189.175 233.035 161.274 232.876 126.717C232.717 92.1599 257.023 64.0332 257.023 64.0332C257.023 64.0332 281.588 91.9346 281.748 126.492Z" fill="#0080F6"/>
<path opacity="0.1" d="M214.175 152.418C213.484 153.52 212.589 153.494 211.781 152.987C210.973 152.481 210.56 151.686 211.25 150.584C211.941 149.482 214.281 148.998 214.281 148.998C214.281 148.998 214.865 151.317 214.175 152.418Z" fill="black"/>
<path opacity="0.1" d="M377.672 165.621C376.982 166.723 376.086 166.697 375.278 166.191C374.47 165.684 374.057 164.889 374.747 163.787C375.438 162.686 377.778 162.201 377.778 162.201C377.778 162.201 378.362 164.52 377.672 165.621Z" fill="black"/>
<path opacity="0.1" d="M288.081 158.859C288.372 160.126 287.72 160.741 286.791 160.955C285.862 161.168 285.007 160.898 284.717 159.631C284.426 158.363 285.739 156.365 285.739 156.365C285.739 156.365 287.791 157.592 288.081 158.859Z" fill="black"/>
<path opacity="0.1" d="M434.121 204.853C434.412 206.12 433.76 206.736 432.831 206.949C431.902 207.162 431.047 206.892 430.757 205.625C430.466 204.357 431.779 202.359 431.779 202.359C431.779 202.359 433.831 203.586 434.121 204.853Z" fill="black"/>
<path opacity="0.1" d="M275.762 179.443C276.262 181.621 275.142 182.679 273.545 183.045C271.948 183.411 270.479 182.948 269.979 180.77C269.48 178.591 271.736 175.157 271.736 175.157C271.736 175.157 275.263 177.265 275.762 179.443Z" fill="black"/>
<path opacity="0.1" d="M337.791 190.346C336.744 192.32 335.205 192.387 333.757 191.618C332.31 190.85 331.502 189.538 332.55 187.564C333.597 185.59 337.549 184.47 337.549 184.47C337.549 184.47 338.838 188.372 337.791 190.346Z" fill="black"/>
<path opacity="0.1" d="M399.773 212.877C399.481 215.093 398.063 215.693 396.439 215.48C394.814 215.266 393.599 214.32 393.89 212.104C394.181 209.888 397.492 207.456 397.492 207.456C397.492 207.456 400.064 210.661 399.773 212.877Z" fill="black"/>
<path d="M274.91 94.264L232.664 137.824L232.97 138.121L275.216 94.5605L274.91 94.264Z" fill="#3F3D56"/>
<path d="M279.169 108.743L236.923 152.304L237.228 152.6L279.475 109.04L279.169 108.743Z" fill="#3F3D56"/>
<path d="M420.987 97.4487L387.756 131.757C387.794 131.506 387.841 131.259 387.884 131.008L420.762 97.0654C420.838 97.1932 420.915 97.3209 420.987 97.4487Z" fill="#3F3D56"/>
<path d="M430.728 121.505L388.512 165.094L388.818 165.39L431.034 121.801L430.728 121.505Z" fill="#3F3D56"/>
<path d="M427.336 109.782L386.862 151.565L386.262 152.187L385.955 151.888L386.815 151.003L427.149 109.36C427.217 109.501 427.276 109.641 427.336 109.782Z" fill="#3F3D56"/>
<path d="M253.938 102.281H248.614V96.9551H253.938V102.281ZM249.024 101.871H253.529V97.3647H249.024V101.871Z" fill="#2F2E41"/>
<path d="M412.326 172.976H407.002V167.65H412.326V172.976ZM407.411 172.566H411.917V168.06H407.411V172.566Z" fill="#2F2E41"/>
<path opacity="0.4" d="M193.692 55.0169C197.201 55.0169 200.045 52.1721 200.045 48.6628C200.045 45.1534 197.201 42.3086 193.692 42.3086C190.184 42.3086 187.34 45.1534 187.34 48.6628C187.34 52.1721 190.184 55.0169 193.692 55.0169Z" fill="#0080F6"/>
<path opacity="0.4" d="M181.937 56.155C184.398 56.155 186.393 54.1594 186.393 51.6976C186.393 49.2359 184.398 47.2402 181.937 47.2402C179.476 47.2402 177.48 49.2359 177.48 51.6976C177.48 54.1594 179.476 56.155 181.937 56.155Z" fill="#0080F6"/>
<path opacity="0.4" d="M470.743 45.678C478.091 45.678 484.047 39.7199 484.047 32.3703C484.047 25.0206 478.091 19.0625 470.743 19.0625C463.395 19.0625 457.438 25.0206 457.438 32.3703C457.438 39.7199 463.395 45.678 470.743 45.678Z" fill="#0080F6"/>
<path opacity="0.4" d="M451.762 58.6315C456.916 58.6315 461.095 54.452 461.095 49.2962C461.095 44.1405 456.916 39.9609 451.762 39.9609C446.607 39.9609 442.429 44.1405 442.429 49.2962C442.429 54.452 446.607 58.6315 451.762 58.6315Z" fill="#0080F6"/>
<path d="M205.555 240.153L205.15 240.145C205.307 235.648 205.787 231.167 206.586 226.739C208.335 217.258 211.242 211.031 215.228 208.231L215.46 208.562C206.149 215.102 205.56 239.903 205.555 240.153Z" fill="#2F2E41"/>
<path d="M210.609 240.055L210.205 240.048C210.214 239.6 210.467 229.043 214.622 226.125L214.854 226.456C210.866 229.256 210.611 239.948 210.609 240.055Z" fill="#2F2E41"/>
<path d="M217.761 208.6C218.878 208.6 219.783 207.695 219.783 206.578C219.783 205.461 218.878 204.556 217.761 204.556C216.644 204.556 215.739 205.461 215.739 206.578C215.739 207.695 216.644 208.6 217.761 208.6Z" fill="#0080F6"/>
<path d="M216.759 225.992C217.876 225.992 218.781 225.087 218.781 223.97C218.781 222.853 217.876 221.947 216.759 221.947C215.643 221.947 214.737 222.853 214.737 223.97C214.737 225.087 215.643 225.992 216.759 225.992Z" fill="#0080F6"/>
<path d="M209.667 209.812C209.87 211.372 209.659 212.958 209.057 214.411C208.004 213.234 207.314 211.778 207.07 210.218C206.826 208.658 207.038 207.061 207.681 205.619C208.698 206.819 209.383 208.264 209.667 209.812Z" fill="#2F2E41"/>
<path d="M216.276 215.708C214.775 216.18 213.177 216.249 211.642 215.908C212.617 214.667 213.93 213.733 215.423 213.221C216.916 212.709 218.525 212.639 220.057 213.021C219.053 214.232 217.749 215.159 216.276 215.708Z" fill="#2F2E41"/>
<path d="M216.35 231.111C215.298 231.442 214.178 231.49 213.102 231.251C213.785 230.381 214.705 229.727 215.752 229.368C216.798 229.009 217.926 228.96 219 229.228C218.297 230.077 217.383 230.726 216.35 231.111Z" fill="#2F2E41"/>
<path d="M206.562 365.234H33V364.225H206.058L206.562 365.234Z" fill="#2F2E41"/>
<path d="M70.0768 350.125C70.0768 350.125 67.032 362.861 69.8 363.415C72.568 363.968 86.1312 363.79 89.4528 364.343C92.7744 364.897 99.6943 363.968 99.6943 361.476C99.6943 358.985 92.4976 357.324 92.4976 357.324C92.4976 357.324 82.256 351.786 81.9792 351.509C81.7024 351.232 70.0768 350.125 70.0768 350.125Z" fill="#2F2E41"/>
<path d="M72.5673 275.095C72.5673 275.095 73.3977 284.509 73.3977 285.339C73.3977 286.17 72.5673 299.183 73.3977 299.736C74.2281 300.29 72.8441 304.166 72.8441 305.551C72.8441 306.935 68.4153 329.915 69.5225 338.775C70.6297 347.634 67.8617 346.804 68.6921 347.634C69.5225 348.465 69.5225 348.465 69.5225 350.126C69.5225 351.787 78.3801 353.172 78.3801 353.172L88.0681 291.984L83.0857 273.711L72.5673 275.095Z" fill="#575A89"/>
<path opacity="0.1" d="M72.5673 275.095C72.5673 275.095 73.3977 284.509 73.3977 285.339C73.3977 286.17 72.5673 299.183 73.3977 299.736C74.2281 300.29 72.8441 304.166 72.8441 305.551C72.8441 306.935 68.4153 329.915 69.5225 338.775C70.6297 347.634 67.8617 346.804 68.6921 347.634C69.5225 348.465 69.5225 348.465 69.5225 350.126C69.5225 351.787 78.3801 353.172 78.3801 353.172L88.0681 291.984L83.0857 273.711L72.5673 275.095Z" fill="black"/>
<path d="M73.9509 354.001C73.9509 354.001 71.1829 363.969 73.9509 364.522C76.7189 365.076 90.2821 363.888 93.6037 364.442C96.9252 364.995 103.845 365.076 103.845 362.584C103.845 360.092 96.6484 358.431 96.6484 358.431C96.6484 358.431 86.4069 352.894 86.1301 352.617C85.8533 352.34 73.9509 354.001 73.9509 354.001Z" fill="#2F2E41"/>
<path d="M70.0759 264.021C70.0759 264.021 66.7543 272.05 70.6295 276.203C74.5047 280.356 78.9335 288.662 78.9335 289.215C78.9335 289.769 71.1832 344.866 72.2903 348.465C73.3975 352.064 73.1207 354.279 72.8439 354.833C72.5671 355.386 75.6119 358.432 78.9335 358.432C82.2551 358.432 87.2375 355.94 87.7911 353.725C88.3447 351.51 86.9607 332.407 87.2375 328.807C87.5143 325.208 88.8983 319.948 89.4519 318.84C90.0055 317.733 93.0503 316.625 93.6039 313.303C94.1575 309.98 98.5862 267.62 97.2022 266.235C95.8183 264.851 70.0759 264.021 70.0759 264.021Z" fill="#575A89"/>
<path d="M91.1123 200.341C96.31 200.341 100.524 196.126 100.524 190.927C100.524 185.728 96.31 181.514 91.1123 181.514C85.9147 181.514 81.7012 185.728 81.7012 190.927C81.7012 196.126 85.9147 200.341 91.1123 200.341Z" fill="#FFB9B9"/>
<path d="M85.3008 195.633C85.3008 195.633 87.2384 205.877 85.8544 206.985C84.4704 208.092 96.3728 209.754 96.3728 209.754C96.3728 209.754 97.7567 196.187 98.0335 194.803C98.3103 193.418 85.3008 195.633 85.3008 195.633Z" fill="#FFB9B9"/>
<path d="M98.0325 208.924C98.0325 208.924 94.7109 199.234 81.1478 202.002C81.1478 202.002 78.6566 202.833 79.487 203.664C80.3174 204.494 81.1478 204.494 80.0406 205.325C78.9334 206.155 77.5494 205.325 78.3798 206.155C79.2102 206.986 70.9062 211.97 71.4598 221.383C72.0134 230.797 69.5222 244.086 71.4598 246.301C73.3974 248.516 70.0758 258.206 70.6294 260.144C71.183 262.083 67.3078 264.574 68.9686 265.405C70.6294 266.235 100.524 271.219 101.354 265.405C102.185 259.591 101.631 263.744 102.461 262.359C103.292 260.975 103.569 258.483 103.015 255.438C102.461 252.392 101.077 244.917 101.631 242.148C102.185 239.379 101.631 216.123 99.9701 213.354C98.3093 210.585 98.0325 208.924 98.0325 208.924Z" fill="#2F2E41"/>
<path d="M92.2204 276.479C92.2204 276.479 88.0684 292.26 93.3276 292.26C98.5868 292.26 98.31 275.925 98.31 275.925L92.2204 276.479Z" fill="#FFB9B9"/>
<path d="M95.2652 190.927C95.2652 191.73 94.1026 192.239 92.3007 192.356H92.2979C91.5339 192.399 90.7677 192.384 90.006 192.311C88.8545 192.206 88.3784 193.289 88.1819 194.717C87.8608 197.074 88.3092 200.377 87.7916 200.894C87.0774 201.609 81.8709 200.892 80.2433 199.272C79.9899 199.045 79.8211 198.738 79.7644 198.403C79.5937 197.414 79.106 196.507 78.3749 195.819C77.4144 194.77 76.047 193.607 74.5052 191.758C71.7373 188.435 74.5052 188.158 75.3356 185.667C76.166 183.175 77.55 182.344 77.55 180.683C77.55 179.022 83.9164 177.637 89.1756 177.914C94.4348 178.191 93.3276 184.836 93.3276 184.836C93.3276 184.836 93.6404 185.639 94.014 186.674C94.5195 187.974 94.9303 189.308 95.243 190.667C95.256 190.753 95.2634 190.84 95.2652 190.927Z" fill="#2F2E41"/>
<path d="M102.738 179.852V177.36L95.2649 177.914L94.2432 182.049L96.3385 184.71L101.354 181.513L102.738 179.852Z" fill="#575A89"/>
<path opacity="0.1" d="M102.738 179.852V177.36L95.2649 177.914L94.2432 182.049L96.3385 184.71L101.354 181.513L102.738 179.852Z" fill="black"/>
<path d="M107.168 185.113L102.185 186.497L97.2029 189.542L95.2431 190.667L92.3008 192.355H92.298L88.182 194.717L80.2434 199.272C79.9901 199.044 79.8212 198.738 79.7645 198.402C79.5938 197.413 79.1061 196.507 78.375 195.819L94.0142 186.674L95.2653 185.943L102.739 177.36L107.168 185.113Z" fill="#575A89"/>
<path opacity="0.1" d="M94.1578 213.076C94.1578 213.076 84.7467 212.523 83.9163 226.366C83.0859 240.209 83.3626 253.222 83.3626 253.499C83.3626 253.776 87.2378 280.078 90.8362 280.078C94.4346 280.078 97.2026 279.524 98.033 278.14C98.8634 276.756 95.8186 256.821 95.8186 256.821C95.8186 256.821 94.4346 235.779 96.649 229.135C98.8634 222.49 99.1402 213.907 94.1578 213.076Z" fill="black"/>
<path d="M95.5416 211.692C95.5416 211.692 86.1304 211.139 85.3 224.982C84.4696 238.825 84.7464 251.838 84.7464 252.115C84.7464 252.392 88.6216 278.694 92.22 278.694C95.8184 278.694 98.5864 278.141 99.4168 276.756C100.247 275.372 97.2024 255.437 97.2024 255.437C97.2024 255.437 95.8184 234.396 98.0328 227.751C100.247 221.106 100.524 212.523 95.5416 211.692Z" fill="#2F2E41"/>
</g>
<defs>
<clipPath id="clip0">
<rect width="500" height="365.234" fill="white" transform="translate(33)"/>
</clipPath>
</defs>
</svg>
