<svg width="336" height="535" viewBox="0 0 336 535" fill="none" xmlns="http://www.w3.org/2000/svg">
<path opacity="0.5" d="M315.585 459.466L194.66 529.085C188.475 532.656 181.46 534.536 174.319 534.536C167.178 534.536 160.163 532.656 153.979 529.085L33.0538 459.187C26.8712 455.609 21.7382 450.469 18.1697 444.282C14.6012 438.094 12.7227 431.077 12.7227 423.934C12.7227 416.791 14.6012 409.774 18.1697 403.587C21.7382 397.399 26.8712 392.259 33.0538 388.682L153.979 319.389C160.163 315.818 167.178 313.939 174.319 313.939C181.46 313.939 188.475 315.818 194.66 319.389L315.585 389.288C321.691 392.886 326.753 398.016 330.27 404.17C333.787 410.324 335.636 417.289 335.636 424.377C335.636 431.465 333.787 438.43 330.27 444.584C326.753 450.738 321.691 455.868 315.585 459.466Z" fill="#15D9FD"/>
<path opacity="0.89" d="M315.585 424.61L194.66 494.509C188.475 498.079 181.46 499.959 174.319 499.959C167.178 499.959 160.163 498.079 153.979 494.509L33.0538 424.61C26.8712 421.033 21.7382 415.893 18.1697 409.705C14.6012 403.518 12.7227 396.5 12.7227 389.358C12.7227 382.215 14.6012 375.198 18.1697 369.01C21.7382 362.823 26.8712 357.682 33.0538 354.105L153.979 284.207C160.163 280.636 167.178 278.756 174.319 278.756C181.46 278.756 188.475 280.636 194.66 284.207L315.585 354.105C321.767 357.682 326.9 362.823 330.469 369.01C334.037 375.198 335.916 382.215 335.916 389.358C335.916 396.5 334.037 403.518 330.469 409.705C326.9 415.893 321.767 421.033 315.585 424.61V424.61Z" fill="#2FDDFD"/>
<path opacity="0.78" d="M315.581 389.754L194.656 459.653C188.472 463.223 181.457 465.103 174.316 465.103C167.175 465.103 160.159 463.223 153.975 459.653L33.0502 389.754C26.8668 386.183 21.7321 381.048 18.1622 374.864C14.5923 368.68 12.7129 361.665 12.7129 354.525C12.7129 347.384 14.5923 340.37 18.1622 334.186C21.7321 328.002 26.8668 322.867 33.0502 319.296L153.975 249.49C160.159 245.92 167.175 244.04 174.316 244.04C181.457 244.04 188.472 245.92 194.656 249.49L315.581 319.389C321.743 322.966 326.857 328.098 330.412 334.273C333.967 340.447 335.838 347.447 335.838 354.571C335.838 361.696 333.967 368.696 330.412 374.87C326.857 381.044 321.743 386.177 315.581 389.754V389.754Z" fill="#49E1FD"/>
<path opacity="0.67" d="M315.581 354.898L194.656 424.796C188.472 428.367 181.457 430.247 174.316 430.247C167.175 430.247 160.159 428.367 153.975 424.796L33.0502 354.898C26.8668 351.327 21.7321 346.191 18.1622 340.008C14.5923 333.824 12.7129 326.809 12.7129 319.669C12.7129 312.528 14.5923 305.514 18.1622 299.33C21.7321 293.146 26.8668 288.01 33.0502 284.44L153.975 214.541C160.159 210.97 167.175 209.091 174.316 209.091C181.457 209.091 188.472 210.97 194.656 214.541L315.581 284.44C321.765 288.01 326.899 293.146 330.469 299.33C334.039 305.514 335.918 312.528 335.918 319.669C335.918 326.809 334.039 333.824 330.469 340.008C326.899 346.191 321.765 351.327 315.581 354.898Z" fill="#63E6FE"/>
<path opacity="0.56" d="M315.581 320.041L194.656 389.94C188.472 393.511 181.457 395.39 174.316 395.39C167.175 395.39 160.159 393.511 153.975 389.94L33.0502 320.041C26.8668 316.471 21.7321 311.335 18.1622 305.151C14.5923 298.967 12.7129 291.953 12.7129 284.812C12.7129 277.672 14.5923 270.657 18.1622 264.473C21.7321 258.289 26.8668 253.154 33.0502 249.583L153.975 179.591C160.159 176.021 167.175 174.141 174.316 174.141C181.457 174.141 188.472 176.021 194.656 179.591L315.581 249.49C321.786 253.055 326.942 258.193 330.527 264.386C334.112 270.58 335.999 277.609 335.999 284.766C335.999 291.922 334.112 298.952 330.527 305.145C326.942 311.339 321.786 316.477 315.581 320.041Z" fill="#7DEAFE"/>
<path opacity="0.44" d="M315.581 285.185L194.656 355.084C188.472 358.654 181.457 360.534 174.316 360.534C167.175 360.534 160.159 358.654 153.975 355.084L33.0502 285.185C26.8668 281.614 21.7321 276.479 18.1622 270.295C14.5923 264.111 12.7129 257.097 12.7129 249.956C12.7129 242.816 14.5923 235.801 18.1622 229.617C21.7321 223.433 26.8668 218.298 33.0502 214.727L153.975 144.828C160.159 141.258 167.175 139.378 174.316 139.378C181.457 139.378 188.472 141.258 194.656 144.828L315.581 214.727C321.765 218.298 326.899 223.433 330.469 229.617C334.039 235.801 335.918 242.816 335.918 249.956C335.918 257.097 334.039 264.111 330.469 270.295C326.899 276.479 321.765 281.614 315.581 285.185Z" fill="#97EEFE"/>
<path opacity="0.33" d="M315.581 250.329L194.656 320.228C188.472 323.798 181.457 325.678 174.316 325.678C167.175 325.678 160.159 323.798 153.975 320.228L33.0502 250.329C26.8668 246.758 21.7321 241.623 18.1622 235.439C14.5923 229.255 12.7129 222.24 12.7129 215.1C12.7129 207.96 14.5923 200.945 18.1622 194.761C21.7321 188.577 26.8668 183.442 33.0502 179.871L153.975 109.972C160.159 106.402 167.175 104.522 174.316 104.522C181.457 104.522 188.472 106.402 194.656 109.972L315.581 179.871C321.765 183.442 326.899 188.577 330.469 194.761C334.039 200.945 335.918 207.96 335.918 215.1C335.918 222.24 334.039 229.255 330.469 235.439C326.899 241.623 321.765 246.758 315.581 250.329V250.329Z" fill="#B1F2FE"/>
<path opacity="0.22" d="M315.585 215.519L194.66 285.418C188.475 288.989 181.46 290.868 174.319 290.868C167.178 290.868 160.163 288.989 153.979 285.418L33.0538 215.519C26.8712 211.942 21.7382 206.802 18.1697 200.615C14.6012 194.427 12.7227 187.41 12.7227 180.267C12.7227 173.124 14.6012 166.107 18.1697 159.92C21.7382 153.732 26.8712 148.592 33.0538 145.015L153.979 75.116C160.163 71.5455 167.178 69.6658 174.319 69.6658C181.46 69.6658 188.475 71.5455 194.66 75.116L315.585 145.015C321.767 148.592 326.9 153.732 330.469 159.92C334.037 166.107 335.916 173.124 335.916 180.267C335.916 187.41 334.037 194.427 330.469 200.615C326.9 206.802 321.767 211.942 315.585 215.519V215.519Z" fill="#CBF7FF"/>
<path opacity="0.11" d="M315.585 180.663L194.66 250.562C188.475 254.132 181.46 256.012 174.319 256.012C167.178 256.012 160.163 254.132 153.979 250.562L33.0538 180.663C26.8712 177.086 21.7382 171.946 18.1697 165.758C14.6012 159.571 12.7227 152.554 12.7227 145.411C12.7227 138.268 14.6012 131.251 18.1697 125.063C21.7382 118.876 26.8712 113.736 33.0538 110.159L153.979 40.2598C160.163 36.6893 167.178 34.8096 174.319 34.8096C181.46 34.8096 188.475 36.6893 194.66 40.2598L315.585 110.159C321.767 113.736 326.9 118.876 330.469 125.063C334.037 131.251 335.916 138.268 335.916 145.411C335.916 152.554 334.037 159.571 330.469 165.758C326.9 171.946 321.767 177.086 315.585 180.663V180.663Z" fill="#E5FBFF"/>
<path style="mix-blend-mode:screen" opacity="0.4" d="M202.913 272.924L155.615 245.616V271.852L202.913 299.159V272.924Z" fill="url(#paint0_linear)"/>
<path d="M166.101 269.102V259.083L167.033 259.643V268.636L169.502 270.081V271.059L166.101 269.102Z" fill="#F1F1F1"/>
<path d="M170.572 261.693L171.97 271.013L173.368 263.138L174.254 263.651L172.623 272.691L171.225 271.899L169.594 260.948L170.572 261.693Z" fill="#F1F1F1"/>
<path d="M175.001 274.275V264.256L175.98 264.815V273.809L178.449 275.207V276.232L175.001 274.275Z" fill="#F1F1F1"/>
<path d="M180.083 270.267V271.665L179.197 271.106V269.755L180.083 270.267ZM180.083 275.72V277.118L179.197 276.558V275.16L180.083 275.72Z" fill="#F1F1F1"/>
<path d="M184.785 271.712C184.362 271.741 183.941 271.643 183.573 271.432V270.547C184.505 271.013 184.831 270.547 185.064 270.081L185.624 270.267V280.24L184.692 279.727L184.785 271.712Z" fill="#F1F1F1"/>
<path d="M187.119 273.669C187.119 272.132 187.772 271.526 189.076 272.271C189.711 272.648 190.232 273.189 190.584 273.837C190.937 274.485 191.108 275.216 191.08 275.953V281.125C191.08 282.616 190.428 283.269 189.076 282.477C188.451 282.094 187.939 281.551 187.595 280.903C187.251 280.256 187.087 279.528 187.119 278.795V273.669ZM188.051 279.448C188.03 279.842 188.113 280.236 188.293 280.588C188.474 280.94 188.744 281.238 189.076 281.451C189.775 281.871 190.102 281.451 190.102 280.613V275.347C190.137 274.944 190.06 274.539 189.879 274.177C189.698 273.815 189.42 273.51 189.076 273.297C188.424 272.877 188.051 273.297 188.051 274.135V279.448Z" fill="#F1F1F1"/>
<path d="M175.236 221.897C170.977 224.524 167.051 227.653 163.539 231.217C162.1 232.523 160.942 234.108 160.137 235.877C160.069 236.105 160.069 236.348 160.137 236.576C160.137 236.809 160.417 236.902 160.603 237.042C161.81 237.497 163.105 237.67 164.389 237.549C165.673 237.428 166.912 237.015 168.013 236.343C171.262 234.891 174.303 233.011 177.053 230.751L175.236 221.897Z" fill="#13B7FD"/>
<path d="M214.238 222.224C213.725 214.022 227.192 213.789 229.429 213.37C247.044 210.155 235.627 198.085 235.021 194.73C231.713 175.718 250.166 179.259 251.005 168.169C251.209 166.78 251.098 165.363 250.678 164.024C250.258 162.684 249.542 161.457 248.581 160.433C242.104 154.375 224.536 160.433 221.135 161.272C216.787 162.176 212.259 161.499 208.366 159.361C191.684 150.647 195.319 128.746 201.143 124.738C217.686 113.368 221.694 136.901 213.725 134.85C210.789 134.105 211.582 131.449 209.065 131.728C202.588 132.381 205.99 138.951 211.116 138.392C212.915 138.074 214.658 137.493 216.288 136.668C219.97 135.176 244.993 128.326 253.568 141.747C258.289 147.849 261.485 154.99 262.887 162.577C263.493 170.172 256.41 173.854 254.453 180.564C251.517 190.443 269.365 198.738 261.35 222.503C253.335 246.269 217.453 252.28 210.09 232.848C210.276 229.734 210.12 226.609 209.625 223.529L214.238 222.224Z" fill="#13B7FD"/>
<path d="M222.481 219.008C222.481 226.424 219.535 233.535 214.292 238.779C209.049 244.022 201.937 246.968 194.522 246.968C187.106 246.968 179.995 244.022 174.751 238.779C169.508 233.535 166.562 226.424 166.562 219.008C166.516 218.124 166.516 217.237 166.562 216.352C166.641 215.507 166.765 214.667 166.935 213.836C168.156 207.468 171.552 201.723 176.542 197.583C181.532 193.444 187.805 191.167 194.289 191.142C197.347 191.156 200.383 191.66 203.282 192.633C208.84 194.467 213.683 197.999 217.127 202.731C220.572 207.462 222.444 213.156 222.481 219.008V219.008Z" fill="#05DCFF"/>
<path d="M203.847 240.63C204.564 240.665 205.266 240.849 205.907 241.17C206.549 241.491 207.117 241.942 207.575 242.494C208.453 243.594 209.16 244.819 209.672 246.129C212.19 250.725 213.308 255.957 212.888 261.181C212.913 261.732 212.767 262.278 212.468 262.742C212.169 263.206 211.733 263.566 211.221 263.77C210.708 263.975 210.145 264.016 209.608 263.886C209.072 263.756 208.589 263.462 208.228 263.045C204.107 259.955 201.23 255.492 200.119 250.463C199.7 248.692 198.721 247.247 199.281 245.477C199.84 243.706 201.983 240.63 203.847 240.63Z" fill="#05DCFF"/>
<path d="M175.237 231.171L173.979 232.988C173.853 233.179 173.767 233.393 173.727 233.618C173.687 233.844 173.693 234.074 173.746 234.297C173.798 234.52 173.895 234.729 174.032 234.913C174.168 235.096 174.34 235.25 174.538 235.365L176.961 236.763C177.254 236.947 177.598 237.034 177.944 237.01C178.289 236.986 178.618 236.853 178.882 236.63C179.147 236.407 179.334 236.105 179.416 235.769C179.498 235.432 179.47 235.079 179.338 234.759L178.08 231.59C177.98 231.313 177.806 231.068 177.578 230.881C177.35 230.695 177.075 230.574 176.784 230.531C176.492 230.488 176.195 230.524 175.922 230.637C175.65 230.75 175.413 230.934 175.237 231.171V231.171Z" fill="#1499FC"/>
<path d="M222.349 198.738C222.349 198.225 221.51 195.988 221.417 195.569C221.091 194.404 211.864 198.272 210.653 198.784C207.382 200.193 204.259 201.926 201.333 203.957C205.169 205.727 208.592 208.278 211.385 211.448C214.177 214.617 216.277 218.335 217.55 222.363C220.589 217.747 222.431 212.446 222.908 206.939C223.002 204.193 222.815 201.445 222.349 198.738V198.738Z" fill="#13B7FD"/>
<path d="M221.552 197.06C221.582 196.564 221.582 196.066 221.552 195.569C221.226 194.404 211.207 196.641 209.996 197.107C206.107 198.529 202.461 200.54 199.185 203.071C203.222 204.54 206.899 206.855 209.969 209.861C213.039 212.867 215.431 216.494 216.985 220.5C219.959 215.855 221.707 210.532 222.065 205.029C222.16 202.362 221.989 199.693 221.552 197.06V197.06Z" fill="#05DCFF"/>
<path d="M215.305 217.191C217.384 213.902 218.646 210.163 218.987 206.287C219.049 204.305 218.909 202.322 218.567 200.369C218.594 200.012 218.594 199.654 218.567 199.297C218.567 198.412 210.972 200.043 210.04 200.415C207.314 201.439 204.742 202.835 202.397 204.563C207.902 207.337 212.411 211.749 215.305 217.191V217.191Z" fill="#13B7FD"/>
<path d="M199.604 155.587C198.392 154.655 196.575 148.457 195.596 148.923C194.618 149.389 194.99 151.3 195.363 151.952C196.504 153.45 197.949 154.688 199.604 155.587Z" fill="#13B7FD"/>
<path d="M194.059 200.369C193.65 200.498 193.211 200.498 192.801 200.369C190.937 199.53 186.51 193.006 180.965 194.404C178.3 194.957 175.92 196.445 174.255 198.598C173.276 193.192 176.957 185.783 178.076 181.123C190.285 183.08 192.521 192.866 194.059 200.369Z" fill="#13B7FD"/>
<path d="M192.801 200.369C188.742 198.272 184.082 197.646 179.613 198.598C177.52 198.899 175.535 199.716 173.835 200.975C172.766 194.061 174.275 186.996 178.076 181.123C189.679 185.177 191.263 192.866 192.801 200.369Z" fill="#05DCFF"/>
<path d="M179.006 184.805C176.654 189.412 175.53 194.548 175.744 199.716C176.49 199.716 178.54 198.738 179.612 198.458C182.696 197.776 185.903 197.888 188.932 198.784C187.627 192.913 186.742 188.346 179.006 184.805Z" fill="#13B7FD"/>
<path d="M201.053 231.45C200.358 229.545 199.088 227.902 197.418 226.75C195.748 225.598 193.762 224.993 191.733 225.02C189.077 225.02 183.998 227.07 183.812 230.239C184.837 229.866 185.349 229.074 186.281 228.468C187.727 227.453 189.454 226.916 191.221 226.93C193.057 226.879 194.859 227.436 196.347 228.515C197.522 229.653 198.401 231.06 198.91 232.615C199.609 233.967 201.752 232.988 201.053 231.45Z" fill="#1499FC"/>
<path d="M173.042 222.783C173.042 223.055 172.934 223.316 172.741 223.508C172.549 223.7 172.288 223.808 172.017 223.808C171.745 223.808 171.484 223.7 171.292 223.508C171.099 223.316 170.991 223.055 170.991 222.783C170.735 220.842 169.793 219.057 168.335 217.75C167.926 217.267 167.438 216.857 166.891 216.539C166.969 215.694 167.093 214.854 167.263 214.022C168.891 214.872 170.276 216.122 171.287 217.654C172.298 219.187 172.902 220.952 173.042 222.783V222.783Z" fill="#1499FC"/>
<path style="mix-blend-mode:screen" opacity="0.4" d="M82.7305 213.789L144.195 138.019L217.449 107.59L290.377 213.37L206.032 342.543L103.141 284.387L82.7305 213.789Z" fill="url(#paint1_linear)"/>
<path d="M95.8653 230.2L80.5342 223.583L85.7067 211.374L95.8653 218.83V230.2Z" fill="#2F80ED"/>
<path d="M90.792 218.084L100.112 212.725C101.156 213.391 102.027 214.296 102.651 215.366C103.275 216.436 103.635 217.639 103.7 218.876V222.418C103.7 223.257 103.7 224.095 103.7 224.934C103.674 225.434 103.54 225.922 103.307 226.364C103.073 226.807 102.746 227.193 102.349 227.497C101.603 228.103 100.764 228.569 100.019 229.175C99.7384 229.446 99.4253 229.681 99.0866 229.874C98.777 230.073 98.4267 230.2 98.0615 230.246C97.4034 230.408 96.7158 230.408 96.0577 230.246C95.7391 230.171 95.4424 230.023 95.1916 229.812C94.9407 229.602 94.7426 229.336 94.6131 229.035C94.4956 228.403 94.4956 227.756 94.6131 227.124V224.095C94.5083 222.859 94.106 221.667 93.4406 220.62C92.7753 219.574 91.8665 218.703 90.792 218.084Z" fill="#56CCF2"/>
<path d="M90.7898 217.898L99.9699 212.539L80.6312 201.355L71.4512 206.714L90.7898 217.898Z" fill="#9FEDFF"/>
<path d="M77.233 519.255C76.9258 520.788 76.8161 522.354 76.9068 523.914C77.5126 529.134 79.8425 529.18 84.2228 529.087C86.5062 529.087 86.879 519.767 86.3198 519.394C85.7606 519.022 84.8752 519.394 84.3626 519.394C82.6168 519.138 80.8428 519.138 79.0969 519.394C78.6775 519.394 78.165 519.674 77.8388 519.394L77.233 519.255Z" fill="#5E5E5E"/>
<path d="M48.9476 501.687C48.7245 503.232 48.7245 504.801 48.9476 506.347C49.9261 511.519 52.2095 511.426 56.5898 511.007C58.8732 511.007 58.5936 501.687 58.0344 501.221C57.4752 500.755 56.5432 501.221 56.0772 501.221C54.3134 501.062 52.5355 501.188 50.8115 501.594C50.3921 501.594 49.9261 501.92 49.5534 501.594L48.9476 501.687Z" fill="#4F4F4F"/>
<path d="M69.4472 488.08C70.3863 488.984 71.4352 489.767 72.5694 490.41C75.2658 491.313 77.8588 492.501 80.3048 493.951C81.0554 494.532 81.635 495.305 81.9824 496.188C82.3779 497.207 82.3779 498.338 81.9824 499.357C81.3974 500.604 80.4136 501.62 79.1865 502.246C77.9707 502.874 76.6666 503.314 75.3187 503.551C71.9617 504.18 68.5171 504.18 65.1601 503.551C63.1141 503.149 61.0436 502.885 58.9624 502.759C57.1698 502.716 55.3809 502.576 53.6035 502.339C52.6241 502.171 51.6889 501.807 50.8542 501.267C50.4344 501.009 50.07 500.67 49.7821 500.27C49.4941 499.87 49.2883 499.417 49.1766 498.937C49.1535 497.315 49.538 495.713 50.295 494.278C51.3321 486.23 50.5844 478.052 48.1048 470.326C47.4524 467.996 46.5204 465.666 45.8214 463.429C44.2104 457.352 43.8458 451.011 44.7497 444.789C45.6827 438.603 47.0847 432.496 48.9436 426.522C49.4994 425.021 49.8596 423.455 50.0154 421.862C50.0154 420.837 49.596 419.859 49.596 418.833C50.1232 415.678 50.8706 412.564 51.8327 409.514C51.848 407.364 52.3922 405.252 53.4171 403.363C54.7315 401.934 56.5053 401.012 58.4296 400.756C60.354 400.501 62.307 400.928 63.9485 401.965C66.7196 403.33 68.9722 405.559 70.3673 408.316C71.7623 411.072 72.2244 414.207 71.684 417.249C71.66 420.755 71.4266 424.256 70.985 427.734C69.8666 436.029 67.5833 444.09 65.8125 452.292C65.0669 455.507 64.4611 458.816 63.9019 462.077L63.4825 464.827C62.8685 467.563 62.6024 470.365 62.6904 473.168C62.9962 476.18 63.8323 479.115 65.1601 481.836C66.239 484.137 67.6872 486.246 69.4472 488.08V488.08Z" fill="#EA9D81"/>
<path d="M78.9997 496.794C80.0715 493.346 72.569 490.41 72.569 490.41C72.569 490.41 77.2289 490.829 80.5375 490.969C82.2238 490.968 83.9073 491.108 85.5702 491.388C93.1193 493.159 83.0072 508.397 74.0602 505.927C72.4665 505.417 70.8283 505.058 69.1673 504.856C67.252 504.752 65.3325 504.956 63.4822 505.461C62.6434 505.461 61.8046 505.974 60.9658 506.16C58.6221 506.719 56.1799 506.719 53.8361 506.16C52.0914 505.801 50.5593 504.767 49.5731 503.283C48.587 501.799 48.2266 499.987 48.5704 498.239C48.85 496.281 50.248 494.371 50.481 494.557C50.9707 495.452 51.6356 496.24 52.4363 496.872C53.2369 497.505 54.1567 497.969 55.1409 498.239C62.7832 500.941 77.4619 501.92 78.9997 496.794Z" fill="#4F4F4F"/>
<path d="M106.451 510.68V509.888H105.613C102.013 509.347 98.6645 507.722 96.0131 505.228C90.4212 497.167 93.4036 485.517 93.6366 483.606C95.5864 474.952 97.0334 466.192 97.9703 457.371C97.8533 450.324 98.1333 443.277 98.8091 436.261C98.9954 434.044 98.9954 431.815 98.8091 429.598C98.8091 427.92 98.8091 426.196 98.8091 424.472C98.6614 422.782 98.6614 421.082 98.8091 419.393L77.42 410.725C75.3697 411.238 77.9792 431.695 77.42 433.652C75.4116 439.254 74.2799 445.133 74.0649 451.08C73.5057 456.751 73.5057 462.464 74.0649 468.135C75.5561 477.968 78.352 487.567 79.7966 497.446C79.7966 497.446 80.0762 501.733 80.0762 502.106C80.0728 503.664 79.9794 505.219 79.7966 506.766C79.7216 507.534 79.5971 508.297 79.4238 509.049C79.3113 509.64 79.1396 510.218 78.9112 510.774C78.3122 512.121 77.9194 513.55 77.7462 515.014C77.6042 516.035 77.7076 517.074 78.048 518.047C78.3884 519.02 78.9559 519.897 79.7034 520.606C80.8781 521.446 82.2689 521.931 83.7109 522.004C85.1089 522.004 86.5535 522.004 87.9515 522.004C90.2814 522.004 92.6114 520.28 94.7083 520.979C96.8053 521.678 98.7159 524.054 100.72 523.868C102.053 523.742 103.377 523.524 104.681 523.216L110.645 514.548L110.925 510.587L106.451 510.68Z" fill="#F2AD91"/>
<path d="M104.538 509.842C104.676 509.867 104.819 509.867 104.957 509.842C105.219 509.794 105.487 509.794 105.749 509.842H107.66C108.957 509.925 110.248 510.081 111.528 510.308C112.412 510.454 113.263 510.754 114.044 511.193C114.441 511.377 114.796 511.639 115.088 511.964C115.38 512.29 115.603 512.671 115.743 513.086C115.882 513.5 115.936 513.938 115.9 514.374C115.864 514.81 115.74 515.234 115.535 515.62C115.192 516.358 114.753 517.047 114.23 517.67C112.453 519.853 110.328 521.727 107.94 523.216C105.702 524.992 102.861 525.828 100.018 525.546C98.5838 525.099 97.1825 524.554 95.8237 523.915C93.9537 523.012 91.8862 522.595 89.8124 522.703C88.2212 523.093 86.6631 523.607 85.1525 524.241C79.0946 525.732 76.6249 522.237 76.4385 518.975C76.4597 516.602 77.1722 514.286 78.4888 512.312C80.213 516.086 84.5467 516.971 88.8805 517.484C93.2142 517.997 100.018 521.398 104.351 518.602C109.477 514.968 107.147 510.401 104.538 509.842Z" fill="#5E5E5E"/>
<path d="M54.626 284.814C54.626 269.25 46.145 258.532 39.9007 259.231C25.9209 260.816 35.8932 307.927 35.7068 310.49C34.402 327.126 31.0468 320.136 34.4952 355.692C34.5739 356.49 34.6983 357.284 34.868 358.068C32.6871 362.851 31.7724 368.114 32.2118 373.353C32.2118 375.217 32.538 380.529 34.402 380.436C34.635 380.436 34.868 380.436 35.1476 380.436C36.3126 380.436 36.5455 382.952 37.6173 384.443C37.9144 384.941 38.3688 385.326 38.9088 385.537C39.4489 385.748 40.0438 385.773 40.5997 385.608C43.7218 381.694 40.8793 375.403 43.4888 371.209C44.0946 370.231 44.9334 369.438 45.4926 368.46C46.1265 366.753 46.4078 364.936 46.3197 363.118C46.2316 361.3 45.7759 359.519 44.98 357.882C44.1641 349.45 44.683 340.942 46.5178 332.672C57.9346 336.539 54.8124 304.013 54.626 284.814Z" fill="#EA9D81"/>
<path d="M38.0831 259.231C36.6509 259.536 35.3345 260.24 34.2869 261.263C33.2392 262.286 32.5034 263.585 32.165 265.01C30.9485 269.041 30.3976 273.243 30.534 277.452C30.5271 282.358 30.8228 287.26 31.4194 292.13C31.4194 293.528 31.699 294.926 31.8854 296.324C31.9333 296.991 31.9333 297.661 31.8854 298.328C32.0135 299.324 32.2319 300.307 32.5378 301.264C32.6905 301.885 32.893 302.493 33.1436 303.081C33.9723 304.22 35.1774 305.029 36.5453 305.364C38.0654 305.973 39.6217 306.486 41.2052 306.902C44.2249 307.801 47.3847 308.132 50.5251 307.881C51.5025 307.805 52.4702 307.633 53.4142 307.368C53.4142 299.633 52.9482 291.431 52.9016 284.814C52.622 269.343 44.3274 258.532 38.0831 259.231Z" fill="#A0A3A5"/>
<path d="M39.7124 280.341C38.0841 273.604 37.5181 266.655 38.0349 259.744C38.4543 254.478 37.6621 246.556 44.0928 244.18C45.9652 243.66 47.9288 243.558 49.8451 243.88C51.7614 244.202 53.5837 244.94 55.1834 246.044C56.1154 246.696 59.8433 248.84 60.6821 249.306C63.478 250.797 66.2274 252.334 68.9301 253.965C71.6329 255.596 71.4465 257.88 74.289 259.091C79.9435 261.658 85.3289 264.78 90.3658 268.411C95.6315 271.906 100.012 274.05 102.668 280.341C104.961 286.283 105.415 292.777 103.973 298.98C102.295 307.508 98.0546 314.591 97.2624 323.305C96.7176 329.112 96.8741 334.964 97.7284 340.733C98.0082 341.708 97.9254 342.751 97.4954 343.669C97.1319 344.107 96.676 344.46 96.1605 344.701C95.645 344.943 95.0824 345.068 94.5131 345.067C89.8532 345.486 87.4766 353.874 83.0963 352.336C75.454 349.68 66.6002 351.218 59.7967 347.024C54.8572 344.042 46.4227 349.494 48.1003 342.364C48.6363 339.845 48.6363 337.241 48.1003 334.722C47.1412 332.338 46.9617 329.712 47.5877 327.219C48.0341 326.132 48.5477 325.074 49.1255 324.051C49.962 321.43 50.1223 318.641 49.5915 315.942C49.2462 312.801 48.6857 309.687 47.9139 306.623C47.0751 303.034 46.0499 299.493 44.885 296.045C43.3938 291.618 41.623 287.237 40.225 282.764C40.1318 281.972 39.8988 281.133 39.7124 280.341Z" fill="#E6F1FE"/>
<path d="M84.6341 300.332C81.0925 292.596 72.1455 283.649 77.5044 274.749C78.7517 272.737 80.4758 271.063 82.5241 269.877C84.5723 268.69 86.8816 268.027 89.2474 267.945C84.5053 264.564 79.4493 261.646 74.1493 259.231C71.3067 258.02 71.4465 255.69 68.7903 254.105C66.1342 252.521 63.3382 250.936 60.5423 249.445C59.6569 248.979 55.8824 246.836 55.0436 246.183C53.472 245.077 51.6789 244.325 49.7883 243.979C47.8976 243.633 45.9544 243.701 44.0928 244.18C37.6621 246.556 38.4543 254.478 38.0349 259.744C37.5181 266.655 38.0841 273.604 39.7124 280.341C39.7124 281.133 40.1318 281.972 40.3182 282.764C41.623 287.424 43.3938 291.618 44.9781 296.044C46.1431 299.493 47.1683 303.034 48.0071 306.622C48.7789 309.687 49.3394 312.801 49.6847 315.942C50.1218 318.752 49.8166 321.628 48.7993 324.284C48.2215 325.307 47.7079 326.365 47.2615 327.452C46.6355 329.944 46.815 332.571 47.7741 334.955C48.3101 337.474 48.3101 340.078 47.7741 342.597C46.0965 349.773 54.531 344.321 59.4705 347.257C66.4138 351.451 75.2676 349.913 82.7701 352.569C85.1467 353.408 86.964 351.265 88.8746 349.121C91.4842 332.532 91.8103 315.942 84.6341 300.332Z" fill="#CCCCCC"/>
<path d="M103.832 299.213C105.275 293.01 104.82 286.516 102.527 280.574C99.871 274.283 100.943 275.914 95.6771 272.279C95.3509 272.046 82.4895 269.763 79.4606 275.867C74.8007 285.187 81.0916 292.596 84.6331 300.332C91.8094 316.129 91.4832 332.532 89.293 349.121C90.5178 347.222 92.4156 345.857 94.6053 345.3C95.1747 345.301 95.7372 345.176 96.2527 344.934C96.7683 344.693 97.2241 344.34 97.5877 343.902C98.0177 342.984 98.1004 341.941 97.8207 340.966C96.9663 335.197 96.8098 329.345 97.3547 323.538C97.9139 314.824 102.154 307.741 103.832 299.213Z" fill="#A0A3A5"/>
<path d="M108.259 381.834C106.491 366.638 103.229 351.654 98.5197 337.098C81.2314 345.207 59.0036 344.694 45.2569 330.761C39.93 341.381 36.3428 352.788 34.6322 364.545C33.8867 370.696 33.8401 376.941 33.2343 383.185C32.7815 387.977 32.0502 392.738 31.0441 397.444C30.3451 400.753 31.0441 405.972 33.8401 406.112C35.3791 406.316 36.8144 407.001 37.9408 408.069C39.0073 409.166 40.1436 410.194 41.3425 411.145C46.0024 414.593 51.9671 413.288 57.0931 415.245C60.6499 416.974 64.4546 418.138 68.3701 418.694C71.9582 418.694 75.4997 417.901 79.0413 418.181C87.1029 418.927 87.5689 423.587 103.04 417.948C104.398 417.653 105.684 417.089 106.821 416.289C107.957 415.488 108.922 414.468 109.657 413.288C112.872 405.599 110.542 405.18 108.259 381.834Z" fill="#EB5757"/>
<path d="M98.5217 337.098C97.4965 333.93 96.8441 332.066 96.8441 332.066C91.9536 333.877 86.8459 335.036 81.6528 335.514C52.1089 335.514 48.1013 325.588 48.0547 325.495C48.0081 325.402 46.8898 327.452 45.2588 330.761C59.0056 344.694 81.2334 345.207 98.5217 337.098Z" fill="#C64E4E"/>
<path d="M54.4473 236.724L54.1678 243.108C54.1696 244.866 53.8863 246.613 53.329 248.28C52.5368 250.191 51.5116 251.123 51.698 253.313C51.9416 255.557 52.9253 257.655 54.4939 259.278C57.4537 262.474 61.3546 264.645 65.6312 265.475C68.5685 266.123 71.6385 265.762 74.3452 264.45C78.0265 262.4 76.9548 259.79 76.7218 255.969C76.3555 253.808 76.4528 251.593 77.0072 249.472C77.5615 247.352 78.5602 245.373 79.9371 243.667L54.4473 236.724Z" fill="#FFBFA2"/>
<path d="M87.2996 206.854C88.7518 208.451 89.7353 210.418 90.1422 212.539C90.8412 216.639 89.3966 220.787 89.8626 224.887C89.6964 228.956 88.813 232.963 87.253 236.724C87.1078 237.861 86.731 238.956 86.1459 239.942C85.5608 240.928 84.7799 241.783 83.8513 242.455C82.6397 243.108 81.1486 243.154 79.937 243.853C78.7254 244.552 78.6788 244.972 78.0264 245.484C76.0226 247.022 72.3879 246.276 70.1045 245.95C67.7546 245.739 65.4474 245.19 63.2545 244.319C59.3493 242.13 56.1243 238.905 53.9346 234.999C34.363 204.104 73.8325 191.056 87.2996 206.854Z" fill="#FFBFA2"/>
<path d="M50.1561 202.8C50.505 201.91 50.9587 201.065 51.5075 200.283C54.111 197.002 57.5818 194.516 61.5263 193.107C66.3912 191.395 71.6399 191.088 76.6711 192.222C77.692 192.418 78.691 192.714 79.6534 193.107C81.3728 194.051 82.9431 195.245 84.3133 196.648C86.1625 197.972 87.8241 199.539 89.2529 201.308C90.4584 203.223 91.1189 205.43 91.1634 207.692C91.0585 208.66 90.6875 209.579 90.0917 210.349C89.7143 210.979 89.2773 211.572 88.7869 212.119C87.4896 214.253 86.5012 216.559 85.8511 218.969C85.5337 219.946 84.9533 220.817 84.1736 221.486C82.5426 222.651 80.2126 221.486 78.302 222.185C77.2058 222.602 76.3072 223.417 75.7857 224.468C75.26 225.518 74.8686 226.629 74.6207 227.777C74.2964 229.44 74.063 231.12 73.9217 232.809C73.8322 234.661 73.164 236.437 72.0112 237.889C70.3591 239.177 68.4209 240.049 66.3607 240.43C64.3005 240.812 62.1788 240.691 60.175 240.079C58.8491 239.847 57.5523 239.472 56.3072 238.961C49.9232 235.978 46.1486 227.264 45.403 220.694C45.2246 219.147 45.1468 217.59 45.17 216.034C45.1609 214.466 45.3329 212.902 45.6826 211.374C46.3803 209.109 47.4342 206.97 48.8048 205.036C49.2967 204.317 49.7479 203.57 50.1561 202.8V202.8Z" fill="#4F4F4F"/>
<path d="M86.4097 270.508C84.8346 271.308 83.4647 272.459 82.4062 273.873C81.3476 275.288 80.6287 276.926 80.3052 278.663C78.9072 286.958 84.6389 290.452 106.587 299.027C132.822 309.325 142.002 296.976 133.708 289.707C130.636 287.55 127.3 285.796 123.782 284.488C101.461 273.723 93.3529 267.06 86.4097 270.508Z" fill="#F2AD91"/>
<path d="M117.119 280.9C116.604 280.163 115.844 279.635 114.975 279.409C113.605 278.844 112.281 278.174 111.014 277.405L103.745 273.537C98.4323 270.741 91.489 266.594 85.4777 269.623C83.6818 270.471 82.1121 271.732 80.8972 273.304C79.6823 274.875 78.8567 276.711 78.4878 278.663C78.1244 280.511 78.261 282.423 78.8837 284.201C79.5063 285.978 80.5922 287.557 82.0294 288.775C84.6855 290.359 87.3883 291.851 90.0911 293.435C94.1452 295.672 98.2925 297.815 102.486 299.772L105.376 301.031C106.225 301.507 107.134 301.867 108.078 302.102C110.222 302.102 112.738 299.26 113.717 297.769C116.614 294.189 118.15 289.698 118.051 285.094C118.035 283.986 117.797 282.893 117.352 281.878C117.301 281.546 117.223 281.219 117.119 280.9V280.9Z" fill="#CCCCCC"/>
<path d="M154.815 253.406C155.6 253.176 156.444 253.25 157.177 253.612C157.911 253.975 158.482 254.6 158.776 255.363C159.009 256.156 160.733 260.023 159.988 260.396C159.242 260.769 157.891 262.68 156.772 263.984C154.489 266.547 145.588 290.126 134.032 300.611C133.379 301.217 132.028 301.077 131.143 300.937C130.498 300.764 129.927 300.388 129.512 299.866C126.716 296.697 121.73 294.74 124.06 289.754C126.48 284.588 129.499 279.724 133.053 275.261C133.939 274.096 149.363 257.367 150.574 256.016C151.587 254.62 153.112 253.681 154.815 253.406V253.406Z" fill="#F2AD91"/>
<path d="M151.461 254.711C153.385 251.065 155.614 247.589 158.125 244.319C159.155 243.265 160.244 242.269 161.387 241.337C161.799 240.953 162.271 240.638 162.785 240.405C163.038 240.278 163.317 240.212 163.6 240.212C163.883 240.212 164.162 240.278 164.416 240.405C164.653 240.551 164.827 240.779 164.904 241.046C164.982 241.313 164.957 241.6 164.835 241.85C165.212 241.743 165.608 241.721 165.995 241.785C166.382 241.85 166.749 241.999 167.072 242.223C167.386 242.459 167.615 242.792 167.724 243.17C167.834 243.548 167.817 243.952 167.677 244.319C168.096 244.191 168.543 244.194 168.959 244.327C169.376 244.461 169.741 244.718 170.007 245.065C170.246 245.424 170.373 245.846 170.373 246.277C170.373 246.708 170.246 247.129 170.007 247.488C170.846 247.488 171.592 248.141 171.638 248.979C171.619 249.835 171.307 250.657 170.753 251.309C166.978 256.901 161.433 258.998 156.773 263.798C155.748 263.285 154.63 263.379 154.21 262.26C153.701 260.943 152.959 259.727 152.02 258.672L151.461 254.711Z" fill="#F2AD91"/>
<path d="M159.379 243.061C163.063 239.49 166.987 236.174 171.122 233.136C171.518 232.799 171.977 232.545 172.473 232.39C172.71 232.307 172.965 232.289 173.211 232.338C173.457 232.387 173.685 232.502 173.871 232.67C174.108 232.904 174.242 233.222 174.244 233.555C174.244 234.58 173.172 235.512 172.473 236.258C169.877 238.884 167.089 241.314 164.132 243.527C164.132 243.527 164.132 244.273 164.132 244.319C164.132 244.366 163.014 243.574 163.014 242.875C163.015 242.305 163.159 241.744 163.433 241.244L159.379 243.061Z" fill="#F2AD91"/>
<path d="M152.347 248.606C152.671 247.655 153.213 246.793 153.931 246.09C155.288 245.108 156.916 244.571 158.591 244.552C158.522 245.916 158.088 247.236 157.333 248.373C156.587 249.538 155.748 250.61 155.003 251.775C154.486 252.612 153.926 253.421 153.325 254.198C153.046 254.571 152.533 258.858 151.974 258.858C151.622 258.629 151.324 258.328 151.099 257.974C150.874 257.621 150.727 257.223 150.669 256.808C150.965 254.027 151.527 251.28 152.347 248.606V248.606Z" fill="#F2AD91"/>
<path d="M71.7277 191.802C68.9725 191.476 66.1883 191.476 63.4331 191.802C57.708 193.095 52.5859 196.28 48.8941 200.842C47.575 202.285 46.3896 203.845 45.3526 205.502C42.6458 210.887 41.3169 216.859 41.4849 222.884C41.4849 226.285 41.4849 229.641 41.4849 233.042C41.4484 234.235 41.7043 235.419 42.2304 236.491L71.7277 191.802Z" fill="#4F4F4F"/>
<path d="M79.8405 251.635C79.8605 251.512 79.8605 251.386 79.8405 251.263C79.1415 246.323 75.6466 241.943 75.1806 236.91C74.8696 231.829 75.534 226.736 77.1378 221.905C77.6038 220.414 78.4425 219.948 79.2813 218.83C80.112 217.473 80.7252 215.995 81.0987 214.449C82.0771 211.42 82.7331 208.296 83.0559 205.129C83.4057 202.935 83.1809 200.687 82.4035 198.606C81.727 197.373 80.795 196.298 79.67 195.454C78.5449 194.611 77.2526 194.017 75.8796 193.713C74.4898 193.224 73.0531 192.88 71.5925 192.687C69.9109 192.408 68.1947 192.408 66.5132 192.687C63.0738 193.46 59.8747 195.059 57.1933 197.347C49.6908 203.172 43.2136 207.366 41.9554 216.733C41.1519 226.32 38.9541 235.739 35.4315 244.692C33.7789 248.896 32.6065 253.273 31.9366 257.74C30.6318 263.611 31.0978 275.215 39.7186 275.261C40.8836 275.261 42.0486 274.935 43.2136 274.842C43.7962 274.75 44.3924 274.799 44.9519 274.986C45.5115 275.172 46.018 275.49 46.4289 275.914C47.8735 277.824 47.2211 280.573 49.0851 282.391C50.1518 282.966 51.3448 283.267 52.5567 283.267C53.7686 283.267 54.9616 282.966 56.0283 282.391C60.6065 279.918 64.9984 277.114 69.1693 274.003C71.8827 272.892 74.2597 271.093 76.066 268.784C77.1089 265.97 77.7368 263.018 77.93 260.023C79.062 257.364 79.7091 254.523 79.8405 251.635V251.635Z" fill="#4F4F4F"/>
<path d="M42.7025 212.772C41.1648 212.772 40.2794 213.517 40.326 215.381C40.326 219.389 48.8536 219.296 51.603 220.041C55.362 221.222 59.1831 222.247 63.0664 223.117C67.3032 224.286 71.6163 225.157 75.9744 225.726C79.2829 226.006 82.5449 226.146 85.8534 226.285C88.755 226.751 91.7124 226.751 94.614 226.285C95.8727 226.02 97.0626 225.496 98.109 224.748C98.6348 224.376 99.0595 223.878 99.3443 223.3C99.6291 222.723 99.7651 222.083 99.74 221.439C99.507 219.529 98.6682 219.435 96.478 220.088C93.8848 220.39 91.2607 220.296 88.6959 219.808C84.3156 219.808 79.8887 219.808 75.555 219.342C64.7905 217.804 54.3057 214.682 43.5879 212.725L42.7025 212.772Z" fill="#37404A"/>
<path d="M79.2775 220.274C75.8757 218.69 73.3128 222.604 74.3845 226.891C74.8577 228.18 75.4669 229.414 76.2019 230.573C80.3026 238.262 84.1238 233.182 82.8656 230.573C79.9299 224.655 83.4714 222.278 79.2775 220.274Z" fill="#F2AD91"/>
<path d="M77.7412 227.404C77.5082 226.845 74.4793 222.744 77.7412 222.464C77.9485 222.452 78.1555 222.492 78.3438 222.579C78.5321 222.667 78.6959 222.799 78.8205 222.965C78.945 223.132 79.0266 223.326 79.0578 223.531C79.089 223.736 79.0689 223.946 78.9994 224.142C78.9994 224.561 78.6266 224.934 78.5334 225.353C78.4872 225.615 78.4872 225.884 78.5334 226.146C78.5334 226.845 79.6052 227.87 79.046 228.615C78.4868 229.361 77.881 227.404 77.7412 227.404Z" fill="#F3A984"/>
<defs>
<linearGradient id="paint0_linear" x1="179.241" y1="255.961" x2="179.241" y2="334.295" gradientUnits="userSpaceOnUse">
<stop stop-color="#1F0159"/>
<stop offset="0.17" stop-color="#1A2B79"/>
<stop offset="0.58" stop-color="#0F8AC0"/>
<stop offset="0.86" stop-color="#08C5EE"/>
<stop offset="1" stop-color="#05DCFF"/>
</linearGradient>
<linearGradient id="paint1_linear" x1="15446.5" y1="9219.07" x2="7952.44" y2="9630.49" gradientUnits="userSpaceOnUse">
<stop stop-color="#1F0159"/>
<stop offset="0.17" stop-color="#1A2B79"/>
<stop offset="0.58" stop-color="#0F8AC0"/>
<stop offset="0.86" stop-color="#08C5EE"/>
<stop offset="1" stop-color="#05DCFF"/>
</linearGradient>
</defs>
</svg>
