<svg width="851" height="630" viewBox="0 0 851 630" fill="none" xmlns="http://www.w3.org/2000/svg">
<g opacity="0.5">
<path d="M416.773 613.911C265.072 632.996 146.223 551.668 104.944 427.182C145.535 564.735 270.06 641.078 414.537 628.354C425.889 628.698 427.609 613.911 416.773 613.911Z" fill="url(#paint0_linear)" style="mix-blend-mode:color-dodge"/>
</g>
<g opacity="0.5">
<path d="M514.123 87.4226C672.532 167.891 774.353 289.97 777.277 394.683C779.685 283.264 670.64 159.638 521.003 79.8572C509.479 72.8076 503.287 80.8888 514.123 87.4226Z" fill="url(#paint1_linear)" style="mix-blend-mode:color-dodge"/>
</g>
<path d="M168.927 418.929C28.5778 315.764 -22.6771 191.794 17.914 105.307C-31.2769 196.436 27.3738 322.47 158.435 423.743C167.723 432.169 178.558 426.666 168.927 418.929Z" fill="url(#paint2_linear)" fill-opacity="0.5" style="mix-blend-mode:color-dodge"/>
<g opacity="0.5">
<path d="M715.015 494.41C627.125 560.091 466.137 542.897 316.5 468.274C476.628 552.182 637.961 564.39 727.055 505.414C735.311 501.803 722.067 490.455 715.015 494.41Z" fill="url(#paint3_linear)" style="mix-blend-mode:color-dodge"/>
</g>
<circle cx="776.5" cy="453.5" r="74.5" fill="url(#paint4_radial)" fill-opacity="0.5"/>
<circle cx="63.5" cy="62.5" r="62.5" fill="url(#paint5_radial)" fill-opacity="0.5"/>
<defs>
<linearGradient id="paint0_linear" x1="264.493" y1="427.182" x2="264.493" y2="629.727" gradientUnits="userSpaceOnUse">
<stop stop-color="#0080F6"/>
<stop offset="1" stop-color="#D9DFE4"/>
</linearGradient>
<linearGradient id="paint1_linear" x1="625.998" y1="-36.9774" x2="752.136" y2="362.587" gradientUnits="userSpaceOnUse">
<stop stop-color="white"/>
<stop offset="0.14" stop-color="#0080F6"/>
<stop offset="0.421875" stop-color="#2294FD"/>
<stop offset="0.661458" stop-color="#4DA4F5"/>
<stop offset="1" stop-color="#7EBDF8"/>
</linearGradient>
<linearGradient id="paint2_linear" x1="86.6635" y1="105.307" x2="86.6635" y2="427.974" gradientUnits="userSpaceOnUse">
<stop stop-color="#0080F6"/>
<stop offset="1" stop-color="#BFD1E1" stop-opacity="0"/>
</linearGradient>
<linearGradient id="paint3_linear" x1="523.089" y1="468.274" x2="523.089" y2="542.024" gradientUnits="userSpaceOnUse">
<stop stop-color="#0080F6"/>
<stop offset="1" stop-color="#CDDAE5"/>
</linearGradient>
<radialGradient id="paint4_radial" cx="0" cy="0" r="1" gradientUnits="userSpaceOnUse" gradientTransform="translate(776.5 453.5) rotate(90) scale(74.5)">
<stop stop-color="#0080F6"/>
<stop offset="1" stop-color="#C4C4C4" stop-opacity="0"/>
</radialGradient>
<radialGradient id="paint5_radial" cx="0" cy="0" r="1" gradientUnits="userSpaceOnUse" gradientTransform="translate(63.5 62.5) rotate(90) scale(62.5)">
<stop stop-color="#0080F6"/>
<stop offset="1" stop-color="#C4C4C4" stop-opacity="0"/>
</radialGradient>
</defs>
</svg>
