<?xml version="1.0" encoding="utf-8"?>
<!-- Generator: Adobe Illustrator 24.0.0, SVG Export Plug-In . SVG Version: 6.00 Build 0)  -->
<svg version="1.1" id="Layer_1" xmlns="http://www.w3.org/2000/svg" xmlns:xlink="http://www.w3.org/1999/xlink" x="0px" y="0px"
	 viewBox="0 0 342 650" style="enable-background:new 0 0 342 650;" xml:space="preserve">
<style type="text/css">
	.st0{fill:url(#SVGID_1_);}
	.st1{fill:#63C7E8;}
	.st2{fill:#253D88;}
	.st3{fill:#DE2690;}
	.st4{fill:#47225B;}
	.st5{fill:#D9BAD9;}
	.st6{fill:#EDE7EE;}
	.st7{fill:#D671AD;}
	.st8{fill:none;stroke:#D671AD;stroke-width:0.2;stroke-linecap:round;stroke-miterlimit:10;}
	.st9{fill:#238CCC;}
	.st10{fill:#94C1D9;}
	.st11{fill:#283778;}
	.st12{fill:#253B75;}
	.st13{fill:#4B65AF;}
	.st14{fill:#253E8D;}
	.st15{fill:#A0AFDA;}
	.st16{fill:#FFE9B3;}
</style>
<linearGradient id="SVGID_1_" gradientUnits="userSpaceOnUse" x1="-430.6581" y1="758.0017" x2="-310.995" y2="243.9277" gradientTransform="matrix(1 0 0 -1 539.16 894.4)">
	<stop  offset="0" style="stop-color:#FFFFFF"/>
	<stop  offset="0.13" style="stop-color:#FBFDFE"/>
	<stop  offset="0.27" style="stop-color:#EEF9FC"/>
	<stop  offset="0.41" style="stop-color:#D9F1F9"/>
	<stop  offset="0.56" style="stop-color:#BBE7F5"/>
	<stop  offset="0.7" style="stop-color:#95D9EF"/>
	<stop  offset="0.85" style="stop-color:#67C8E9"/>
	<stop  offset="0.86" style="stop-color:#63C7E8"/>
</linearGradient>
<path class="st0" d="M5.71,370.09c1.37-34.08,10.87-61.42,24.42-83.31c26.44-42.69,68.54-64.58,97.42-75.23
	c2.75-12.81,6.59-33.79,4.93-50.44c-4.12-3.28-6.75-9.62-8.75-16.93c-0.64-1.68-1.1-3.43-1.37-5.21c-0.14-0.59-0.26-1.17-0.4-1.75
	c-3.93-0.12-8-15.32-7.36-21.28c0.26-1.42,0.69-2.81,1.28-4.12c-0.52-1.43-1.15-2.81-1.91-4.12c-8.33-14.11,12.37-38.95-5.5-50.01
	c8.57-8.24,19.88-0.99,19.88-0.99C129.71,17.18,168,2.06,168,2.06c-6.2,16.97,16.06,24.73,16.06,24.73
	c0.82-3.52,2.56-6.75,5.03-9.39c2.47-2.64,5.59-4.58,9.04-5.63c-12.45,28.94,13.48,24.32,20.47,29.12
	c8.89,6.1,10.99,16.49,10.61,26.04c7.71,3.71,13,8.12,13.64,13.2c2.2,17.16,0.27,29.56-3.88,36.44
	c-2.75,4.64-10.99,16.08-15.62,14.51c-2.02,20.01-6.69,38.93-16.03,44.13c-13.25,7.41-20.31,28.09-21.04,42.43
	c23.52,13.74,58.07,35.83,85.93,60.9c0.96,2.87,1.71,5.79,2.25,8.77c-0.54-2.98-1.3-5.91-2.25-8.78
	c6.44,5.76,12.58,11.84,18.4,18.22c45.67,50.44,58.08,115.95,41.96,114.62c-16.12-1.33-5.35-27.89-5.35-27.89
	c-3.83-17.71-40.33-51-67.33-59.21c-4.37-1.45-8.98-2.04-13.57-1.73c-39.85,4.12-20.36,85.92-20.36,85.92l0.3-0.15
	c55.72-28.52,93.01,86.1,91.48,103.48c-18.74-42.25-82.91-74.39-77.06-34.05c14.87,102.25,97.98,171.6,97.98,171.6
	C249.61,593.7,189.91,527.61,150.8,470.37c-51.76-75.72-67.42-136.18-67.42-136.18c-5.87,4.3-11.22,9.26-15.94,14.8
	c-47.09,55.04-27.97,155.58-27.97,155.58s42.81,20.03,30.89,32.98C51.64,557.91,0.42,496.39,5.71,370.09z"/>
<path class="st1" d="M67.44,349.03c4.72-5.55,10.07-10.53,15.94-14.84c0,0,15.66,60.46,67.51,136.25
	c66.65,4.48,74.91-57.05,75.48-62.06l-0.3,0.15c0,0-19.44-81.82,20.36-85.92c4.6-0.31,9.21,0.28,13.57,1.73
	c17.99-12.37,17.38-30.64,12.37-45.73c-47.09-42.33-113.23-76.02-113.23-76.02s-85.66,14.1-129.06,84.2
	C32.49,328.82,53.4,343.72,67.44,349.03z"/>
<g>
	<path class="st1" d="M221.84,356.17c1.77-16.95,8.12-31.9,24.55-33.59c4.6-0.32,9.22,0.27,13.59,1.73
		c5.95-3.87,10.56-9.49,13.19-16.09c-7.01-4.71-39.45-26.37-49.64-25.82C226.65,317.08,221.84,356.17,221.84,356.17z"/>
</g>
<g>
	<path class="st1" d="M41.44,327.32c5.99,9.93,15.15,17.57,26,21.68c4.72-5.54,10.07-10.51,15.94-14.81
		c0,0,15.66,60.46,67.51,136.25c66.64,4.48,74.9-57.06,75.46-62.08l-0.3,0.16c0,0-1.5-6.33-2.82-15.55
		c-59.67-11.27-108.3-48.65-129.65-97.9C80.89,312.02,62.27,323.54,41.44,327.32z"/>
</g>
<path class="st2" d="M193.11,272.73c0,0-37.72,30.08-63.6-2.9c-24.55-31.29-8.37-54.4-8.37-54.4s-21.09,22.57,6.66,56.09
	C155.56,305.03,190.36,276.29,193.11,272.73z"/>
<path class="st2" d="M227.5,321.48c5.5-5.5,10.09-13.66,9.11-33.14c0,0,4.62,15.76,1.29,28.22c0,0,6.12-1.28,7.89-14.5
	c1.21,4.06,1.27,8.38,0.15,12.46c0,0,10.25,0.3,17.86,3.96c-0.83,0.85-1.75,1.61-2.75,2.25c0,0-24.05-6.76-34.1,8.94
	C227.39,326.97,227.57,324.22,227.5,321.48z"/>
<path class="st2" d="M33.25,288.41c0,0,2.21,41.56,34.28,53.92c0,0,9.45-9.04,14.91-10.61c0,0-8.61-0.12-14.8,4.24
	C67.65,335.96,41.51,327.06,33.25,288.41z"/>
<path class="st2" d="M219.24,419.13c0,0-18.19,45.34-67.57,43.85c0,0-41.55-54.48-60.46-128.92c1.26,0.18,41.37,98.72,57.64,102.8
	c0,0,29.99,4.95,43.31-14.44c0,0-5.1,17.53-36.89,26.41C155.31,448.82,188.89,460.5,219.24,419.13z"/>
<path class="st3" d="M225.08,88.16c0,0,13.03-33.91-6.36-47.21c-6.99-4.8-32.98-0.18-20.47-29.12c-3.46,1.05-6.57,2.99-9.04,5.63
	c-2.47,2.64-4.2,5.87-5.03,9.39c0,0-22.26-7.78-16.06-24.73c0,0-38.29,15.11-39.67,54.64c0,0-11.31-7.2-19.88,0.99
	c17.86,11.06-2.86,35.9,5.5,50.01c7.16,12.12,7.06,44.72,18.65,53.59C132.68,161.3,118.53,81.05,225.08,88.16z"/>
<path class="st4" d="M122.03,137.29c2.27,10.21,5.13,19.81,10.65,24c0,0-14.15-80.24,92.4-73.14c3.13-5.83,4.72-12.36,4.63-18.98
	c-15.47-24.16-31.79-4.12-44.94-31.03c0.85,14.95-24.9,12.83-29.1-4.59c-2.89,2.75-4.36,7.52-3.93,15.11
	c-10.99-11.12-1.65-30.82-1.65-30.82s-18.64,14.96-18.62,36.03c0,21.72-10.58,13.12-10.58,13.12s-11.32,35.57-2.38,42.18
	C126.45,115.07,122.03,137.29,122.03,137.29z"/>
<path class="st5" d="M70.35,537.54c11.93-12.96-30.89-32.98-30.89-32.98S20.35,404.03,67.44,349.03
	c-14.04-5.3-34.95-20.21-37.32-62.24c-13.55,21.89-22.99,49.23-24.42,83.31C0.42,496.39,51.64,557.91,70.35,537.54z"/>
<path class="st5" d="M327.35,383.54c0,0-10.77,26.55,5.35,27.89c16.12,1.35,3.71-64.18-41.96-114.62
	c-5.82-6.38-11.96-12.46-18.4-18.22c5.02,15.11,5.62,33.38-12.37,45.74C287.02,332.54,323.51,365.79,327.35,383.54z"/>
<path class="st5" d="M224.04,84.59c2.02,22.96,0.91,80.92-16.6,90.68c-17.5,9.77-24.22,42.72-19.78,53.59
	c4.44,10.87,11.32,44.88-25.42,45.49c-36.74,0.62-38.71-44.15-36.89-52.83c1.81-8.68,12.26-48.97,5-71.09c0,0-6.62,0.33-8.11-12.78
	c-1.48-13.11,6.1-12.78,6.1-12.78s-11.29-49.82,21.46-63.12C182.55,48.45,222.33,65.67,224.04,84.59z"/>
<g>
	<path class="st6" d="M34.01,505.19c0,0,24.73,18.44,34.9,33.72c0.51-0.42,0.99-0.88,1.44-1.37c11.93-12.97-30.9-32.98-30.9-32.98
		s-19.1-100.52,27.99-155.54c-5.87-2.2-11.29-5.46-15.98-9.62C37.95,358.66,7.38,415.38,34.01,505.19z"/>
</g>
<g>
	<path class="st6" d="M327.35,383.54c0,0-9.85,24.29,3.38,27.58c-4.33-11.89,1.08-27.08,1.08-27.08
		c-7.24-32.59-52.76-66.12-60.58-71.67c-2.78,4.8-6.63,8.9-11.25,11.97C287.02,332.54,323.51,365.79,327.35,383.54z"/>
</g>
<path class="st7" d="M201.72,176.96c0,0-2.21-6.05-20.53-10.33c-20.8-4.88-39.04,10.55-47.33-8.04c0,0-1.04,43.76,16.57,88.43
	c0.47,1.17-20.82-4.56-20.34-3.39c0.58,1.37,22.81,11.1,23.88,10.03c2.87-2.86-13.23-54.33,3.59-64.99
	c12.78-8.11,31.7-6.87,31.27,6.42C188.85,195.08,194.37,182.76,201.72,176.96z"/>
<path class="st7" d="M126.58,131.45c-1.29,1.03-2.23,2.42-2.7,4c-0.47,1.58-0.44,3.26,0.07,4.82c0.31,1.44,1.04,2.75,2.12,3.76
	c1.07,1.01,2.43,1.66,3.89,1.87c0,0,0-5.85-2.61-5.4c-1.62,0.29-2.2-2.95-0.58-3.24C128.39,136.98,126.58,131.45,126.58,131.45z"/>
<path class="st7" d="M201.17,121.22c0.73-1.1,2.95-8.86,1.11-10.58c-2.58-2.39-16.27,7.39-16.27,7.39s-23.61-6.33-44.5,0l-4.82-3.01
	l-9.62,9.78l6.35,26.31c0,0,1.21-17.13,7.83-23.15c5.24-4.75,28.21-8.7,50.93-3.06c31.34,7.79,29.32,4.84,29.32,4.84
	S216.62,124.69,201.17,121.22z M200.57,121c0.2,0.03,0.4,0.1,0.58,0.21L200.57,121z"/>
<path class="st8" d="M201.96,146.57c-10.2-12.82-27.27-0.62-36.33-14.06"/>
<path class="st7" d="M61.43,349.54c0,0-42.46,41.07-25.6,151.9c0,0-9.04-32.77-6.97-80.2c0,0-9.1-2.75-13.18-6.1
	c0,0,12.19,1.73,13.56,0.27c0,0,5.5-45.59,27.67-68.14L61.43,349.54z"/>
<path class="st7" d="M268.21,320.16c0,0,36.4,15.54,58.78,54.16c0,0-19.98-33.11-61.83-51.43L268.21,320.16z"/>
<path class="st7" d="M170.64,247.97c3.93-2.55,18.28-3.56,18.56-2.5c0.29,1.06-6.29,0.99-20.61,9.11
	C164.38,256.94,169.18,248.92,170.64,247.97z"/>
<path class="st9" d="M150.88,470.44c39.11,57.24,98.81,123.33,187.88,178.97c0,0-83.11-69.35-97.98-171.6
	c-5.85-40.34,58.31-8.24,77.06,34.05c1.52-17.38-35.73-132-91.48-103.48C225.77,413.39,217.51,474.92,150.88,470.44z"/>
<g>
	<path class="st10" d="M150.88,470.44c39.09,57.24,98.78,123.32,187.86,178.94c-1.28-1.07-83.21-70.08-97.97-171.57
		c-5.85-40.34,58.31-8.24,77.06,34.03c0.08-1.22,0.05-2.45-0.1-3.67c-3.46-14.59-21.01-73.19-78.58-61.31
		c-11.69,2.43-20.94,1.94-28.24-0.49C200.05,460.45,181.72,472.51,150.88,470.44z"/>
</g>
<path class="st2" d="M173.07,477.62c0,0,53.59,73.66,61.83,78.74c0,0,13.29-3.57,20.27-8.08c0,0-6.25,10.99-12.59,14.51
	c0,0,9.07,4.95,17.73-3.96c0,0-3.48,10.44-9.69,12.37c0,0,12.92,18.7,57.56,55.04c-17.7-12.37-82.34-56.86-143.54-147.94
	L173.07,477.62z"/>
<path class="st2" d="M308.74,491.35c0,0-22.58-52.51-69.61-40.74c-7.19-4.86-5.81-25.16-5.81-25.16s-5.5,9.16-3.54,30.91
	c0.3,3.35-14.18-6.09-14.18-6.09s20.39,31.84,21.78,35.24c0,0-8.12-37.87,26.93-29.51C294.21,463.15,308.74,491.35,308.74,491.35z"
	/>
<path class="st11" d="M131.11,81.37c0.14,0.81-15.83,28.7-16.49,34.67c-0.66,5.96,3.43,21.16,7.36,21.28
	c-0.26,0,3.79-14.89,18.85-24.24L131.11,81.37z"/>
<g>
	<path class="st12" d="M116.73,126.01c0,0,2.08,8.84,4.55,9.62c2.67-7.68,7.36-14.49,13.59-19.72c0,0-3.9-2.17-7.03-23.52
		C127.83,92.46,128.39,117.52,116.73,126.01z"/>
</g>
<path class="st13" d="M239.1,116.63c-2.91,4.85-11.75,17.11-16.21,14.22c-6.38-4.14-13.38-7.23-20.73-9.15
	c0,0,4.12-12.65-0.29-13.56c-4.41-0.91-17.49,9.78-17.49,9.78s-25.31-4.49-42.68,0.85c-8.88,2.75-13.49-26.11-13.53-35.23
	c0-12.46,12.16-30.57,34.75-30.38c22.59,0.19,77.88,9.87,80.06,27.03C245.16,97.35,243.25,109.74,239.1,116.63z"/>
<path class="st14" d="M129.87,83.69c0.58,8.4,4.29,35.34,12.37,32.98c16.13-4.62,37.47-1.58,42.26-0.43
	c10.32-8.24,26.11-18.47,20.14,4.33c13.92,4.37,17.86,9.14,20.35,8.31c3.83-1.29,10.99-8.78,10.77-11.83
	c-0.4-5-49.09-21.42-81.18-17.46c-8.88,1.1-12.37-28.55-7.54-41.22C137.46,63.29,129.9,74.16,129.87,83.69z"/>
<path class="st14" d="M237.75,77.91c2.31,5.83,2.06,35.52-5.41,32.39c-12.64-5.3-33.57-14.98-72.82-14.74
	c-8.25,0-13.67-29.1-6.29-35.72C162.63,51.54,232.49,64.57,237.75,77.91z"/>
<path class="st15" d="M211.78,67.55c-13.74-5.37-31-7.2-45-7.2c-8.96,0-11.16,1.54-11.5,1.84c-3.33,2.95-3.26,15.49,0.12,24.38
	c1.7,4.47,3.49,5.91,4.12,5.91h1.44c16.52-0.21,32.97,1.98,48.86,6.5C213.66,100.07,217.56,69.81,211.78,67.55z"/>
<path class="st16" d="M225.74,58.69c-0.53-2.38-1.34-4.68-2.4-6.87c-1.03-2.18-2.42-4.18-4.12-5.89c-1.71-1.71-3.88-2.89-6.25-3.39
	c-2.36-0.48-4.75-0.93-7.09-1.57c-2.35-0.61-4.63-1.48-6.79-2.61c-2.16-1.15-4-2.82-5.35-4.86c-1.3-2.06-2.01-4.44-2.03-6.87v-0.91
	c0-0.3,0-0.6,0.07-0.91l0.15-1.81c0.16-1.2,0.45-2.38,0.67-3.56c-0.21,1.2-0.47,2.38-0.62,3.57l-0.11,1.81c0,0.3,0,0.59,0,0.89v0.91
	c0.03,2.44,0.74,4.82,2.05,6.87c1.35,2,3.17,3.64,5.3,4.75c2.14,1.12,4.4,1.98,6.75,2.56c2.33,0.65,4.71,1.11,7.08,1.61
	c2.4,0.52,4.6,1.74,6.32,3.49C222.66,49.46,224.87,53.9,225.74,58.69z"/>
<path class="st16" d="M181.5,41.52c0.22-3.19-0.44-6.37-1.9-9.21c-1.47-2.84-3.69-5.21-6.42-6.87c-2.57-1.81-5.33-3.6-7.08-6.35
	c-1.65-2.75-2.71-5.81-3.12-8.99l0.19,0.08c-1.89,1.55-3.66,3.23-5.3,5.04c-1.65,1.8-3.16,3.74-4.51,5.78
	c-1.35,2.04-2.47,4.23-3.31,6.53c-0.86,2.29-1.3,4.72-1.29,7.17c-0.04-2.46,0.36-4.9,1.18-7.21c0.83-2.32,1.94-4.53,3.28-6.6
	c1.35-2.06,2.85-4,4.49-5.83c1.64-1.83,3.42-3.54,5.3-5.11l0.15-0.12v0.21c0.41,3.14,1.46,6.17,3.08,8.89
	c1.69,2.75,4.41,4.49,6.98,6.33c2.75,1.66,4.98,4.06,6.44,6.93c1.46,2.87,2.08,6.08,1.81,9.28L181.5,41.52z"/>
<path class="st16" d="M124.31,57.65c-1.91-0.57-3.89-0.91-5.88-0.99c-1.99-0.14-3.99,0.15-5.87,0.84c1.86-0.75,3.86-1.08,5.87-0.95
	C120.43,56.65,122.41,57.02,124.31,57.65z"/>
<path class="st16" d="M268.21,280.42c-12.09-9.67-24.4-19.07-36.92-28.18c-6.24-4.57-12.57-9.04-19.02-13.33
	c-6.39-4.38-13.05-8.35-19.94-11.9c6.91,3.51,13.59,7.45,20.01,11.79c6.48,4.26,12.84,8.67,19.1,13.23
	C243.94,261.19,256.19,270.65,268.21,280.42z"/>
<path class="st16" d="M107.04,226.45c-6.44,4.01-12.75,8.24-18.98,12.6c-6.22,4.36-12.37,8.89-18.26,13.62
	c-6,4.65-11.76,9.63-17.23,14.89c-5.58,5.16-10.49,11-14.61,17.39c4.08-6.42,8.96-12.3,14.52-17.49
	c5.44-5.3,11.17-10.31,17.16-14.99c5.96-4.7,12.08-9.21,18.34-13.52C94.23,234.63,100.57,230.42,107.04,226.45z"/>
<path class="st16" d="M28.6,301.21c-3.5,7.87-6.44,15.98-8.81,24.27c-2.44,8.26-4.43,16.64-5.95,25.12c-1.6,8.46-2.73,17-3.41,25.58
	c-0.68,8.59-0.91,17.2-0.7,25.82c-0.25-8.61-0.06-17.24,0.58-25.83c1.25-17.2,4.39-34.21,9.36-50.73
	C22.08,317.17,25.07,309.07,28.6,301.21z"/>
<path class="st16" d="M209.8,170.02c0,0.08-0.18,0.22-0.11,0l0.11-0.29l0.22-0.58l0.47-1.14l0.89-2.31c0.6-1.56,1.16-3.11,1.69-4.66
	c1.06-3.13,2.01-6.29,2.87-9.48c1.79-6.36,3.15-12.83,4.33-19.33c-1,6.54-2.38,13.02-4.12,19.4c-0.89,3.19-1.87,6.33-2.97,9.47
	c-0.55,1.55-1.11,3.1-1.73,4.64l-0.95,2.28l-0.49,1.14l-0.23,0.58C209.73,169.91,209.58,170.35,209.8,170.02z"/>
<path class="st16" d="M242.2,97.97c0.37-5.04,0.26-10.1-0.3-15.11c-0.18-1.24-0.45-2.47-0.81-3.67c-0.34-1.21-0.88-2.35-1.61-3.37
	c-1.72-1.83-3.71-3.39-5.89-4.62c-4.36-2.54-8.96-4.64-13.74-6.25c-4.75-1.65-9.61-2.95-14.55-3.89c4.94,0.93,9.81,2.2,14.57,3.82
	c4.78,1.59,9.39,3.68,13.74,6.22c2.2,1.23,4.2,2.8,5.91,4.66c0.73,1.03,1.28,2.18,1.61,3.39c0.36,1.21,0.63,2.44,0.8,3.68
	C242.47,87.86,242.57,92.93,242.2,97.97z"/>
<path class="st16" d="M209.97,96.14c0.54-1.29,0.92-2.64,1.11-4.03c0.25-1.37,0.45-2.75,0.6-4.12c0.33-2.78,0.48-5.58,0.45-8.38
	c0.05-2.81-0.41-5.6-1.37-8.24c-0.31-0.62-0.74-1.18-1.26-1.63c-0.53-0.45-1.14-0.8-1.8-1c-1.29-0.55-2.61-1.01-3.96-1.37
	c-5.41-1.48-10.92-2.6-16.49-3.35c-5.5-0.8-11.07-1.39-16.71-1.79c5.59,0.37,11.16,0.94,16.72,1.72c5.57,0.72,11.07,1.83,16.49,3.31
	c1.35,0.36,2.67,0.82,3.96,1.37c0.68,0.22,1.3,0.57,1.84,1.05c0.53,0.47,0.96,1.05,1.26,1.7c0.97,2.64,1.44,5.43,1.37,8.24
	c0.03,2.8-0.13,5.6-0.48,8.38c-0.17,1.37-0.36,2.75-0.62,4.12C210.88,93.5,210.51,94.85,209.97,96.14z"/>
<path class="st16" d="M184.55,229.61c-1.04-2.6-1.72-5.33-1.99-8.12c-0.18-2.8,0.01-5.6,0.56-8.35c1.17-5.46,2.66-10.86,4.47-16.14
	c-1.78,5.3-3.23,10.7-4.34,16.17c-0.57,2.74-0.78,5.54-0.62,8.33C182.87,224.28,183.52,227.01,184.55,229.61z"/>
<path class="st16" d="M326.76,359.13c-3.03-6.42-6.4-12.67-10.07-18.74c-3.65-6.09-7.54-12.04-11.61-17.86
	c-4.07-5.83-8.24-11.53-12.71-17.08c-4.46-5.55-9.01-10.99-13.74-16.25c4.76,5.27,9.36,10.65,13.78,16.14
	c4.42,5.5,8.68,11.17,12.78,17.04c4.05,5.83,7.9,11.78,11.54,17.86C320.43,346.33,323.78,352.64,326.76,359.13z"/>
<path class="st16" d="M285.95,442.16c-2.69-5.33-6.12-10.26-10.18-14.63c-3.98-4.46-8.48-8.41-13.41-11.77
	c-4.86-3.47-10.39-5.9-16.23-7.14c-5.9-1.2-12.02-0.34-17.37,2.42c2.64-1.4,5.5-2.33,8.46-2.75c2.97-0.41,5.99-0.33,8.93,0.23
	c5.88,1.23,11.44,3.64,16.35,7.1c4.93,3.4,9.42,7.39,13.38,11.87C279.94,431.86,283.33,436.8,285.95,442.16z"/>
<path class="st16" d="M292.41,602.58c-5.96-6.13-11.35-12.79-16.09-19.91c-4.82-7.07-9.23-14.41-13.2-21.98
	c-3.99-7.56-7.5-15.36-10.51-23.36c-3.01-8-5.49-16.19-7.42-24.51c1.97,8.31,4.49,16.49,7.53,24.47c3.03,8,6.56,15.8,10.57,23.36
	c3.95,7.57,8.34,14.91,13.13,21.98C281.12,589.75,286.48,596.43,292.41,602.58z"/>
</svg>
