<?xml version="1.0" encoding="utf-8"?>
<!-- Generator: Adobe Illustrator 24.0.0, SVG Export Plug-In . SVG Version: 6.00 Build 0)  -->
<svg version="1.1" id="Layer_1" xmlns="http://www.w3.org/2000/svg" xmlns:xlink="http://www.w3.org/1999/xlink" x="0px" y="0px"
	 viewBox="0 0 540 410" style="enable-background:new 0 0 540 410;" xml:space="preserve">
<style type="text/css">
	.st0{fill:#0070CC;}
</style>
<path class="st0" d="M305.35,391.24l-15.79-67.63c8.24-2.47,16.49-5.32,24.48-8.48l25.25,64.57
	C328.16,384,316.73,387.94,305.35,391.24z M320.09,312.7c3.98-1.65,7.98-3.39,11.89-5.19l32.07,61.5
	c-5.39,2.51-10.91,4.96-16.41,7.26L320.09,312.7z M337.82,304.74c15.18-7.38,29.73-15.99,43.5-25.76l50.44,49.55
	c-18.73,13.98-38.69,26.23-59.65,36.59L337.82,304.74z M228.31,405.62l5.77-70.68c16.68-1.79,33.18-4.98,49.33-9.54l13.36,68.26
	C274.36,399.74,251.45,403.74,228.31,405.62z M386.32,275.37c6.48-4.84,12.74-9.95,18.58-15.11l58.46,41.56
	c-7.75,7.43-16.1,14.71-24.86,21.6L386.32,275.37z M203.58,406.68l12.54-70.42c3.94-0.17,7.98-0.41,11.97-0.74l-8.07,70.67
	c-5.56,0.3-11.1,0.47-16.52,0.49H203.58z M164.29,404.43l22.95-68.7c7.45,0.58,15.11,0.81,22.93,0.67l-14.72,70.21
	C185.04,406.42,174.64,405.69,164.29,404.43z M409.18,256.23c2.75-2.64,5.57-5.35,8.24-8.05l62.35,36.54
	c-3.42,3.85-7.04,7.68-10.73,11.42L409.18,256.23z M421.28,244.07c9.64-10.33,18.2-21.62,25.54-33.69l69.72,21.46
	c-8.78,16.84-19.44,32.64-31.77,47.09L421.28,244.07z M102.89,389.12l38.02-62.2c13.28,4.18,26.95,6.98,40.81,8.33l-24.87,68.18
	C138.37,400.73,120.27,395.94,102.89,389.12z M449.31,206.13c3.12-5.51,5.93-11.19,8.4-17.02l71.16,13.55
	c-2.64,7.98-5.78,15.78-9.4,23.36L449.31,206.13z M85.58,381.28l41.85-59.29c2.87,1.2,5.84,2.35,8.86,3.41l-39.38,61.25
	C93.08,384.96,89.23,383.14,85.58,381.28z M60.51,365.75l47.02-53.92c5.05,3.07,10.29,5.83,15.69,8.24l-43.05,58.27
	C73.35,374.59,66.78,370.38,60.51,365.75z M459.41,184.89c1.07-2.75,2.06-5.59,2.94-8.37l71.23,9.07
	c-0.82,3.74-1.81,7.56-2.93,11.32L459.41,184.89z M463.53,172.37c3-10.36,4.57-21.08,4.66-31.86l68.43-2.75
	c1.41,14.1,0.78,28.33-1.88,42.25L463.53,172.37z M27.55,331.96l52.46-43.21c6.97,8.03,15.02,15.05,23.92,20.87L56.08,362.4
	C45.14,353.69,35.53,343.44,27.55,331.96z M468.19,136.74c-0.17-4.89-0.7-9.76-1.58-14.57l65.31-8.24
	c1.84,6.17,3.22,12.47,4.12,18.85L468.19,136.74z M20.02,319.49l53.3-39.54c1.37,1.99,2.84,3.97,4.38,5.89l-52.8,41.99
	c-1.8-2.68-3.43-5.5-4.95-8.3L20.02,319.49z M10.94,297.98l53.78-33.48c1.9,4.28,4.11,8.41,6.62,12.37l-53.49,38.32
	c-2.75-5.54-5.08-11.28-6.98-17.16L10.94,297.98z M465.82,118.63c-0.51-2.28-1.1-4.57-1.77-6.8l63.04-11.06
	c1.21,2.84,2.32,5.76,3.33,8.68L465.82,118.63z M462.98,108.52c-2.95-8.59-7.12-16.71-12.37-24.13l55.08-17.86
	c7.85,9.1,14.42,19.24,19.53,30.12L462.98,108.52z M4.76,258.29l52.21-23.22c0.86,9.01,2.98,17.85,6.31,26.27l-53.74,32.3
	c-3.17-11.51-4.77-23.4-4.78-35.34V258.29z M448.56,81.71c-2.02-2.68-4.23-5.3-6.54-7.82c-0.73-0.78-1.48-1.58-2.24-2.35
	l50.26-20.53c1.07,0.92,2.14,1.87,3.17,2.82c3.31,3.01,6.5,6.18,9.48,9.44L448.56,81.71z M5.29,245.04c0.14-1.54,0.29-3.1,0.48-4.67
	l50.84-18.99c0,1.2,0,2.4,0,3.59c0,2.24,0.07,4.51,0.22,6.72L4.91,253.84C4.88,250.98,5.05,248.02,5.29,245.04z M432.46,64.69
	l47.29-21.85c2.38,1.73,4.71,3.53,6.98,5.37l-49.3,20.95C435.83,67.66,434.15,66.13,432.46,64.69z M6.34,236.07
	c1.72-11.66,4.63-23.12,8.68-34.18l46.46-10.43c-2.57,8.67-4.16,17.59-4.75,26.61L6.34,236.07z M406.89,47.83l38.23-24.64
	c10.87,4.7,21.25,10.43,31.02,17.12l-46.29,22.22c-7.12-5.68-14.81-10.59-22.96-14.66V47.83z M16.59,197.73
	c1.07-2.75,2.23-5.5,3.42-8.24l44.72-7.82c-0.81,2.16-1.58,4.34-2.27,6.51L16.59,197.73z M390.87,40.93l33.25-25.52
	c5.74,1.81,11.42,3.86,16.86,6.09l-37.21,24.84C399.64,44.44,395.36,42.55,390.87,40.93z M21.86,185.44
	c2.49-5.33,5.28-10.68,8.24-15.9l41.67-3.81c-2.14,4.21-4.12,8.48-5.83,12.72L21.86,185.44z M380.76,37.57l30.33-25.86
	c2.93,0.74,5.85,1.55,8.71,2.39l-32.26,25.64C385.32,38.94,383,38.24,380.76,37.57z M32.4,165.67c6.24-10.36,13.2-20.28,20.83-29.66
	l35.72,2.49c-5.77,7.63-10.96,15.69-15.51,24.11L32.4,165.67z M348.85,30.9L370.84,4.8c12.08,1.16,24.08,3.12,35.9,5.87L377.39,36.6
	C368.03,34.02,358.49,32.11,348.85,30.9z M56.1,132.48c1.94-2.31,3.94-4.63,5.98-6.87l33.75,4.29c-1.57,1.88-3.13,3.79-4.62,5.7
	L56.1,132.48z M330.4,29.32l17.49-25.9c6.14,0.14,12.3,0.45,18.33,0.95L345.2,30.48C340.4,29.93,335.37,29.54,330.4,29.32z
	 M65.21,122.19c4.12-4.44,8.4-8.86,12.81-13.12l30.38,7.16c-3.49,3.54-6.87,7.2-10.09,10.88L65.21,122.19z M319.24,29.05
	l14.92-25.65c3.06,0,6.16,0,9.21,0l-16.71,25.76c-2.46-0.08-4.99-0.12-7.49-0.12L319.24,29.05z M81.28,105.87
	c9-8.43,18.44-16.36,28.29-23.78l24.16,11.61c-7.96,6.19-15.57,12.82-22.78,19.87L81.28,105.87z M285.17,31.15l7.46-24.5
	c12.23-1.68,24.53-2.73,36.86-3.15l-14.07,25.54C305.31,29.19,295.21,29.89,285.17,31.15z M113.24,79.24
	c2.47-1.81,5.01-3.64,7.54-5.4l22.05,12.93c-2.06,1.48-4.12,3.01-6.14,4.53L113.24,79.24z M266.2,34.12l3.48-23.58
	c6.07-1.22,12.23-2.31,18.3-3.23l-6.65,24.33C276.37,32.33,271.28,33.17,266.2,34.12z M124.68,71.27
	c5.08-3.46,10.35-6.87,15.64-10.07l18.51,14.99c-4.34,2.75-8.64,5.5-12.79,8.44L124.68,71.27z M255.03,36.51l1.13-22.97
	c3.01-0.71,6.07-1.37,9.08-2.06l-2.75,23.36c-2.5,0.55-5.04,1.1-7.53,1.68H255.03z M144.32,58.79
	c10.59-6.28,21.66-12.15,32.98-17.46l11.97,18.22c-9.33,4.45-18.47,9.37-27.18,14.65L144.32,58.79z M221.6,46.21l-5.63-20.8
	c11.73-4.12,23.73-7.76,35.72-10.76l-0.36,22.75c-10.06,2.42-20.02,5.39-29.8,8.81H221.6z M181.46,39.34
	c2.75-1.29,5.68-2.57,8.51-3.79l9.93,19.13c-2.36,1.03-4.74,2.1-7.08,3.17L181.46,39.34z M203.44,53.16l-9.22-19.43
	c5.69-2.38,11.54-4.67,17.34-6.79l6.36,20.61c-4.88,1.73-9.77,3.64-14.52,5.63L203.44,53.16z"/>
</svg>
