<svg width="1084" height="933" viewBox="0 0 1084 933" fill="none" xmlns="http://www.w3.org/2000/svg">
<path fill-rule="evenodd" clip-rule="evenodd" d="M654.697 372.492C654.697 372.492 655.103 343.198 619.974 341.268H619.951C599.835 340.169 540.074 382.451 545.971 337.078C554.526 271.252 632.958 286.012 670.054 255.892C700.931 230.822 679.569 200.919 672.333 171.191C663.757 135.954 663.53 96.8028 677.418 62.3137C687.822 36.4716 715.731 25.7436 719.476 -4.6709H458.766C458.766 -4.6709 489.152 4.74059 468.687 81.9554C468.687 81.9554 484.868 9.67402 418.039 -4.6709H322.681C269.784 -4.6709 304.551 65.4564 276.369 78.9967C250.616 91.3692 227.117 69.5216 240.844 43.0566L263.69 -0.983218H-86.4088C-86.4088 -0.983218 -17.1569 18.5995 -24.0321 93.8348C-24.0321 93.8348 -66.3614 124.271 -81.3032 28.8698C-81.3032 28.8698 -100.775 112.092 -35.1565 152.463C8.9164 179.576 -71.3538 234.375 -79.4629 262.727C-94.7044 316.013 -29.7983 321.383 7.42529 319.46C7.42529 319.46 44.5239 324.332 26.6069 358.562C26.6069 358.562 -30.8341 392.417 -60.5691 338.158C-60.5691 338.158 -32.7098 413.351 38.4768 384.263C38.4768 384.263 77.0241 415.932 44.8471 473.659C44.8471 473.659 19.9535 568.34 143.02 584.511C143.02 584.511 253.039 582.18 258.369 626.203C258.369 626.203 306.583 707.582 380.917 541.321C380.917 541.321 413.436 486.081 488.251 503.783C488.251 503.783 539.308 523.967 572.966 461.35C572.966 461.35 601.798 388.108 654.699 430.048C654.699 430.048 677.901 464.08 719.478 459.125C719.469 459.125 649.306 445.243 654.697 372.492ZM648.221 39.0599C650.07 33.6522 654.119 31.2055 663.115 40.1994C672.279 49.3537 652.793 55.2333 646.6 56.5427C646.439 50.8779 646.366 44.4864 648.221 39.0599ZM651.524 187.669C651.524 187.669 630.834 207.723 623.612 202.42C616.39 197.116 629.428 178.347 651.517 187.669H651.524ZM607.274 32.2177C631.604 30.2948 632.047 66.1241 610.414 57.1538C602.012 53.6667 596.098 46.0058 594.311 37.137C594.293 37.0497 594.276 36.9624 594.26 36.8704C593.564 33.1426 605.264 32.3876 607.274 32.2177ZM630.053 217.862C637.266 213.752 649.99 208.568 654.371 213.884C655.046 214.735 655.499 215.74 655.69 216.809C660.954 242.661 600.904 247.368 587.189 263.074C600.389 247.972 610.072 229.26 630.058 217.871L630.053 217.862ZM-3.00545 123.155C-1.15807 117.745 2.89295 115.298 11.8868 124.292C21.0506 133.446 1.56464 139.326 -4.62868 140.635C-4.78912 134.97 -4.86227 128.588 -3.00545 123.155ZM8.97303 269.022C1.05266 281.8 -16.1164 296.355 -32.1742 295.855C-45.4551 295.442 -57.6176 281.321 -53.7742 267.927C-52.2028 262.449 -48.7888 257.662 -44.8676 253.535C-25.4949 233.103 13.9961 237.836 8.78899 200.542C12.3493 226.032 24.5755 243.852 8.97303 269.022ZM33.0385 104.7C24.6368 101.215 18.7219 93.554 16.9359 84.6828C16.9194 84.5979 16.9005 84.5106 16.884 84.4162C16.1762 80.679 27.8833 79.9334 29.8982 79.7635C54.2397 77.8407 54.6786 113.67 33.0456 104.7H33.0385ZM102.243 526.393C95.0095 513.214 90.7768 491.106 99.1077 477.37C105.997 466.007 124.273 462.36 134.045 472.29C138.056 476.353 140.536 481.681 142.208 487.128C150.466 514.044 126.939 546.112 161.973 559.908C138.018 550.47 116.484 552.353 102.243 526.393ZM386.693 17.4198C387.681 8.50849 410.449 10.429 413.419 34.2184C413.419 34.2184 385.702 26.3193 386.693 17.4198ZM297.596 622.629C296.572 622.476 295.587 622.124 294.699 621.593C289.522 618.29 295.274 609.296 299.717 604.233C312.031 590.204 331.302 583.799 347.086 574.76C330.679 584.155 323.443 627.173 297.596 622.629ZM395.601 57.0169C395.601 57.0169 390.142 38.3072 381.304 34.7871C379.072 34.393 377.781 34.2468 377.781 34.2468C378.982 34.1443 380.189 34.3295 381.304 34.7871C395.547 37.2998 448.201 49.9412 449.057 99.5845C449.057 99.5845 411.447 97.605 395.601 57.0169ZM572.789 405.476C573.778 414.387 546.06 422.274 546.06 422.274C549.042 398.487 571.81 396.567 572.801 405.469L572.789 405.476ZM578.176 422.845C569.338 426.365 563.88 445.075 563.88 445.075C548.04 485.656 510.422 487.643 510.422 487.643C511.279 437.999 563.932 425.356 578.176 422.845C579.29 422.388 580.498 422.202 581.698 422.305C581.698 422.305 580.42 422.456 578.188 422.845H578.176Z" fill="url(#paint0_linear)"/>
<path fill-rule="evenodd" clip-rule="evenodd" d="M672.069 265.87C652.163 279.986 629.27 285.528 605.977 291.467C590.214 295.478 567.219 304.557 574.5 324.828C575.345 327.188 576.697 329.441 578.771 330.837C580.585 332.06 582.796 332.524 584.955 332.876C618.163 338.288 654.643 323.54 665.588 289.808C668.032 282.27 670.788 273.057 672.069 265.87Z" fill="url(#paint1_linear)"/>
<path fill-rule="evenodd" clip-rule="evenodd" d="M694.839 500.833C671.245 522.305 635.534 520.53 613.159 498.252C604.031 489.17 605.246 472.193 616.405 464.923C628.636 456.95 643.412 463.86 651.347 474.346C658.684 484.043 676.056 517.915 694.839 500.833Z" fill="url(#paint2_linear)"/>
<path fill-rule="evenodd" clip-rule="evenodd" d="M648.998 570.104C646.713 553.853 656.005 540.957 669.701 540.103C675.287 539.752 681.309 546.008 681.316 552.709C681.326 560.055 675.183 563.282 669.365 562.703C663.983 562.166 647.183 557.17 648.998 570.104Z" fill="url(#paint3_linear)"/>
<path fill-rule="evenodd" clip-rule="evenodd" d="M81.8591 44.8021L82.3239 37.8963L82.6873 32.5075L84.78 34.336L88.1232 37.2569L85.2023 33.9137L83.3762 31.8209L88.765 31.4576L95.6708 30.9928L88.765 30.5256L83.3762 30.1623L85.2023 28.0695L88.1232 24.7263L84.78 27.6472L82.6873 29.4757L82.3239 24.0846L81.8591 17.1787L81.392 24.0846L81.0286 29.4757L78.9382 27.6472L75.5927 24.7263L78.5135 28.0695L80.342 30.1623L74.9533 30.5256L68.0474 30.9928L74.9533 31.4576L80.342 31.8209L78.5135 33.9137L75.5927 37.2569L78.9382 34.336L81.0286 32.5075L81.392 37.8963L81.8591 44.8021Z" fill="white"/>
<path fill-rule="evenodd" clip-rule="evenodd" d="M274.143 189.59L274.772 180.263L275.263 172.987L278.087 175.452L282.603 179.397L278.658 174.884L276.19 172.06L283.469 171.566L292.796 170.936L283.469 170.309L276.19 169.818L278.658 166.994L282.603 162.476L278.087 166.423L275.263 168.889L274.772 161.612L274.143 152.288L273.515 161.612L273.024 168.889L270.2 166.423L265.684 162.478L269.629 166.994L272.097 169.818L264.818 170.309L255.494 170.936L264.818 171.566L272.097 172.06L269.629 174.884L265.684 179.4L270.198 175.452L273.024 172.987L273.515 180.263L274.143 189.59Z" fill="white"/>
<path fill-rule="evenodd" clip-rule="evenodd" d="M603.159 71.8913L603.789 62.5648L604.28 55.2885L607.104 57.754L611.62 61.6989L607.675 57.1854L605.207 54.3613L612.485 53.8682L621.81 53.2382L612.485 52.6106L605.207 52.1199L607.675 49.2957L611.62 44.7776L607.104 48.7248L604.28 51.1903L603.789 43.914L603.159 34.5898L602.531 43.914L602.041 51.1903L599.216 48.7248L594.701 44.7799L598.645 49.2957L601.111 52.1199L593.835 52.6106L584.51 53.2382L593.835 53.8682L601.111 54.3613L598.645 57.1854L594.701 61.7013L599.214 57.754L602.041 55.2885L602.531 62.5648L603.159 71.8913Z" fill="white"/>
<path fill-rule="evenodd" clip-rule="evenodd" d="M621.81 253.537L622.44 244.213L622.931 236.934L625.755 239.402L630.271 243.347L626.326 238.831L623.858 236.007L631.137 235.514L640.461 234.886L631.137 234.256L623.858 233.765L626.326 230.941L630.271 226.425L625.755 230.37L622.931 232.838L622.44 225.56L621.81 216.235L621.183 225.56L620.69 232.838L617.865 230.37L613.352 226.425L617.297 230.941L619.762 233.765L612.486 234.256L603.162 234.886L612.486 235.514L619.762 236.007L617.297 238.831L613.352 243.347L617.865 239.402L620.69 236.934L621.183 244.213L621.81 253.537Z" fill="white"/>
<path fill-rule="evenodd" clip-rule="evenodd" d="M431.611 387.216L433.26 386.022L432.628 384.085L434.275 385.286L435.919 384.085L435.287 386.022L436.938 387.216L434.9 387.211L434.275 389.151L433.647 387.211L431.611 387.216Z" fill="white"/>
<path fill-rule="evenodd" clip-rule="evenodd" d="M424.662 495.234L426.311 494.041L425.677 492.104L427.324 493.304L428.97 492.104L428.336 494.041L429.987 495.234L427.949 495.232L427.324 497.169L426.698 495.232L424.662 495.234Z" fill="white"/>
<path fill-rule="evenodd" clip-rule="evenodd" d="M371.542 520.504L373.191 519.31L372.559 517.373L374.205 518.574L375.85 517.373L375.218 519.31L376.867 520.504L374.831 520.502L374.205 522.441L373.578 520.502L371.542 520.504Z" fill="white"/>
<path fill-rule="evenodd" clip-rule="evenodd" d="M270.897 292.201L272.546 291.007L271.912 289.07L273.558 290.271L275.205 289.07L274.573 291.007L276.222 292.201L274.184 292.199L273.558 294.136L272.933 292.199L270.897 292.201Z" fill="white"/>
<path fill-rule="evenodd" clip-rule="evenodd" d="M239.773 396.269L241.424 395.075L240.792 393.138L242.437 394.339L244.083 393.138L243.451 395.075L245.1 396.269L243.062 396.264L242.437 398.203L241.811 396.264L239.773 396.269Z" fill="white"/>
<path fill-rule="evenodd" clip-rule="evenodd" d="M360.938 192.599L362.589 191.405L361.955 189.468L363.602 190.669L365.248 189.468L364.614 191.405L366.265 192.599L364.227 192.594L363.602 194.533L362.976 192.594L360.938 192.599Z" fill="white"/>
<path fill-rule="evenodd" clip-rule="evenodd" d="M520.181 307.777L521.832 306.584L521.197 304.646L522.844 305.847L524.491 304.646L523.856 306.584L525.508 307.777L523.47 307.773L522.844 309.712L522.217 307.773L520.181 307.777Z" fill="white"/>
<path fill-rule="evenodd" clip-rule="evenodd" d="M451.713 185.053L453.364 183.859L452.732 181.922L454.376 183.123L456.023 181.922L455.391 183.859L457.04 185.053L455.004 185.05L454.376 186.987L453.751 185.05L451.713 185.053Z" fill="white"/>
<path fill-rule="evenodd" clip-rule="evenodd" d="M258.486 66.208L260.137 65.0142L259.502 63.0771L261.149 64.2781L262.794 63.0771L262.161 65.0142L263.813 66.208L261.774 66.2033L261.149 68.1427L260.524 66.2033L258.486 66.208Z" fill="white"/>
<path fill-rule="evenodd" clip-rule="evenodd" d="M162.889 61.0414L164.541 59.8452L163.909 57.9082L165.553 59.1091L167.2 57.9082L166.568 59.8452L168.217 61.0414L166.181 61.0367L165.553 62.9761L164.928 61.0367L162.889 61.0414Z" fill="white"/>
<path fill-rule="evenodd" clip-rule="evenodd" d="M136.507 222.517L138.158 221.323L137.526 219.386L139.173 220.584L140.817 219.386L140.185 221.323L141.834 222.517L139.798 222.512L139.173 224.451L138.545 222.512L136.507 222.517Z" fill="white"/>
<path fill-rule="evenodd" clip-rule="evenodd" d="M208.849 209.597L210.501 208.403L209.868 206.466L211.513 207.667L213.16 206.466L212.525 208.403L214.176 209.597L212.138 209.594L211.513 211.534L210.888 209.594L208.849 209.597Z" fill="white"/>
<path fill-rule="evenodd" clip-rule="evenodd" d="M374.394 252.489L376.045 251.295L375.411 249.358L377.058 250.559L378.704 249.358L378.072 251.295L379.721 252.489L377.683 252.485L377.058 254.424L376.432 252.485L374.394 252.489Z" fill="white"/>
<path fill-rule="evenodd" clip-rule="evenodd" d="M204.458 450.029L206.107 448.835L205.475 446.898L207.122 448.099L208.768 446.898L208.134 448.835L209.785 450.029L207.747 450.025L207.122 451.964L206.494 450.025L204.458 450.029Z" fill="white"/>
<path fill-rule="evenodd" clip-rule="evenodd" d="M297.825 238.017L299.476 236.823L298.844 234.886L300.489 236.087L302.135 234.886L301.503 236.823L303.152 238.017L301.116 238.012L300.489 239.951L299.863 238.012L297.825 238.017Z" fill="white"/>
<path fill-rule="evenodd" clip-rule="evenodd" d="M540.637 82.376L542.288 81.1798L541.656 79.2451L543.301 80.446L544.947 79.2451L544.313 81.1798L545.964 82.376L543.928 82.3713L543.301 84.3107L542.675 82.3713L540.637 82.376Z" fill="white"/>
<path fill-rule="evenodd" clip-rule="evenodd" d="M533.219 171.536L534.871 170.342L534.236 168.405L535.883 169.606L537.53 168.405L536.895 170.342L538.546 171.536L536.508 171.534L535.883 173.471L535.255 171.534L533.219 171.536Z" fill="white"/>
<path fill-rule="evenodd" clip-rule="evenodd" d="M593.456 129.391L595.107 128.197L594.475 126.26L596.119 127.461L597.766 126.26L597.134 128.197L598.783 129.391L596.747 129.386L596.119 131.325L595.494 129.386L593.456 129.391Z" fill="white"/>
<path fill-rule="evenodd" clip-rule="evenodd" d="M332.706 315.527L334.357 314.334L333.723 312.396L335.369 313.597L337.016 312.396L336.382 314.334L338.033 315.527L335.995 315.525L335.369 317.462L334.742 315.525L332.706 315.527Z" fill="white"/>
<path fill-rule="evenodd" clip-rule="evenodd" d="M425.796 466.027L427.448 464.834L426.813 462.896L428.46 464.097L430.107 462.896L429.472 464.834L431.124 466.027L429.085 466.023L428.46 467.962L427.835 466.023L425.796 466.027Z" fill="white"/>
<path fill-rule="evenodd" clip-rule="evenodd" d="M472.303 376.892L473.955 375.698L473.32 373.761L474.967 374.962L476.614 373.761L475.979 375.698L477.631 376.892L475.592 376.889L474.967 378.826L474.342 376.889L472.303 376.892Z" fill="white"/>
<path fill-rule="evenodd" clip-rule="evenodd" d="M67.6386 139.045L69.2878 137.851L68.6555 135.914L70.3023 137.115L71.9468 135.914L71.3145 137.851L72.966 139.045L70.9275 139.043L70.3023 140.98L69.6771 139.043L67.6386 139.045Z" fill="white"/>
<path fill-rule="evenodd" clip-rule="evenodd" d="M399.285 523.906L399.913 514.579L400.403 507.303L403.227 509.771L407.746 513.714L403.801 509.2L401.333 506.376L408.609 505.883L417.933 505.255L408.609 504.625L401.333 504.135L403.801 501.31L407.746 496.795L403.227 500.739L400.403 503.207L399.913 495.929L399.285 486.604L398.655 495.929L398.164 503.207L395.338 500.739L390.824 496.795L394.769 501.31L397.237 504.135L389.958 504.625L380.632 505.255L389.958 505.883L397.237 506.376L394.769 509.198L390.824 513.714L395.338 509.771L398.164 507.303L398.655 514.579L399.285 523.906Z" fill="white"/>
<path fill-rule="evenodd" clip-rule="evenodd" d="M312.915 506.907L314.567 505.713L313.932 503.773L315.579 504.974L317.226 503.773L316.591 505.713L318.243 506.907L316.204 506.902L315.579 508.841L314.954 506.902L312.915 506.907Z" fill="white"/>
<path fill-rule="evenodd" clip-rule="evenodd" d="M189.178 368.157L190.83 366.961L190.195 365.026L191.842 366.227L193.489 365.026L192.854 366.961L194.506 368.157L192.467 368.153L191.842 370.092L191.217 368.153L189.178 368.157Z" fill="white"/>
<path fill-rule="evenodd" clip-rule="evenodd" d="M537.972 359.543L539.624 358.349L538.992 356.412L540.636 357.613L542.283 356.412L541.648 358.349L543.3 359.543L541.261 359.541L540.636 361.478L540.011 359.541L537.972 359.543Z" fill="white"/>
<path fill-rule="evenodd" clip-rule="evenodd" d="M426.319 247.584L427.968 246.39L427.336 244.453L428.983 245.654L430.627 244.453L429.995 246.39L431.646 247.584L429.608 247.582L428.983 249.521L428.355 247.582L426.319 247.584Z" fill="white"/>
<path fill-rule="evenodd" clip-rule="evenodd" d="M66.5795 259.757L68.231 258.563L67.5987 256.626L69.2432 257.827L70.89 256.626L70.2554 258.563L71.9069 259.757L69.8708 259.752L69.2432 261.692L68.618 259.752L66.5795 259.757Z" fill="white"/>
<path fill-rule="evenodd" clip-rule="evenodd" d="M461.562 96.237L462.19 86.9128L462.681 79.6365L465.512 82.1044L470.028 86.0469L466.078 81.5287L463.61 78.6975L470.887 78.2044L480.213 77.5768L470.887 76.9468L463.61 76.4561L466.078 73.6248L470.021 69.1067L465.507 73.0539L462.676 75.5218L462.185 68.2431L462.129 67.382C461.751 67.3584 461.374 67.3348 460.991 67.3018L460.928 68.2455L460.437 75.5241L457.606 73.0562L453.09 69.1114L457.035 73.6248L459.503 76.4561L452.224 76.9468L442.9 77.5768L452.224 78.2044L459.503 78.6975L457.035 81.5287L453.09 86.0445L457.606 82.102L460.437 79.6341L460.928 86.9104L461.562 96.237Z" fill="white"/>
<path fill-rule="evenodd" clip-rule="evenodd" d="M320.491 51.3057L322.14 50.1118L321.508 48.1748L323.152 49.3757L324.799 48.1748L324.167 50.1118L325.816 51.3057L323.78 51.301L323.152 53.2404L322.527 51.301L320.491 51.3057Z" fill="white"/>
<path fill-rule="evenodd" clip-rule="evenodd" d="M440.531 145.018L442.183 143.821L441.548 141.887L443.195 143.085L444.842 141.887L444.207 143.821L445.859 145.018L443.82 145.013L443.195 146.952L442.57 145.013L440.531 145.018Z" fill="white"/>
<path fill-rule="evenodd" clip-rule="evenodd" d="M70.2088 327.277L70.8364 317.953L71.3272 310.674L74.1537 313.142L78.6695 317.087L74.7246 312.571L72.2567 309.747L79.533 309.256L88.8596 308.629L79.533 307.999L72.2567 307.506L74.7246 304.681L78.6695 300.168L74.1537 304.111L71.3272 306.578L70.8364 299.302L70.2088 289.976L69.5789 299.302L69.0881 306.578L66.264 304.111L61.7482 300.168L65.693 304.681L68.1609 307.506L60.8823 307.999L51.5581 308.629L60.8823 309.256L68.1609 309.747L65.693 312.571L61.7482 317.087L66.264 313.142L69.0881 310.674L69.5789 317.953L70.2088 327.277Z" fill="white"/>
<path fill-rule="evenodd" clip-rule="evenodd" d="M338.358 411.789L338.985 402.465L339.476 395.186L342.3 397.654L346.819 401.599L342.874 397.083L340.406 394.259L347.682 393.768L357.009 393.14L347.682 392.51L340.406 392.017L342.874 389.193L346.819 384.68L342.3 388.622L339.476 391.09L338.985 383.814L338.358 374.487L337.728 383.814L337.237 391.09L334.413 388.622L329.897 384.68L333.842 389.193L336.308 392.017L329.031 392.51L319.707 393.14L329.031 393.768L336.308 394.259L333.842 397.083L329.897 401.599L334.413 397.654L337.237 395.186L337.728 402.465L338.358 411.789Z" fill="white"/>
<path fill-rule="evenodd" clip-rule="evenodd" d="M149.565 160.535L150.195 151.211L150.686 143.935L153.51 146.403L158.026 150.345L154.081 145.832L151.613 143.005L158.891 142.517L168.216 141.887L158.891 141.257L151.613 140.766L154.081 137.942L158.026 133.426L153.51 137.371L150.686 139.837L150.195 132.561L149.565 123.236L148.937 132.561L148.444 139.837L145.62 137.371L141.104 133.426L145.049 137.942L147.517 140.766L140.241 141.257L130.914 141.887L140.241 142.517L147.517 143.005L145.049 145.83L141.104 150.345L145.62 146.403L148.444 143.935L148.937 151.211L149.565 160.535Z" fill="white"/>
<path fill-rule="evenodd" clip-rule="evenodd" d="M646.873 117.364L647.503 108.039L647.994 100.763L650.818 103.231L655.334 107.174L651.389 102.658L648.921 99.8335L656.2 99.3451L665.524 98.7152L656.2 98.0853L648.921 97.5945L651.389 94.7704L655.334 90.2545L650.818 94.197L647.994 96.6649L647.503 89.3887L646.873 80.0645L646.246 89.3887L645.755 96.6649L642.928 94.197L638.413 90.2545L642.36 94.7704L644.825 97.5945L637.549 98.0853L628.223 98.7152L637.549 99.3451L644.825 99.8335L642.36 102.658L638.413 107.174L642.928 103.231L645.755 100.763L646.246 108.039L646.873 117.364Z" fill="white"/>
<path fill-rule="evenodd" clip-rule="evenodd" d="M99.347 369.721L100.999 368.527L100.366 366.588L102.011 367.791L103.658 366.588L103.025 368.527L104.674 369.721L102.638 369.716L102.011 371.656L101.385 369.716L99.347 369.721Z" fill="white"/>
<path fill-rule="evenodd" clip-rule="evenodd" d="M478.923 447.682L480.574 446.486L479.94 444.549L481.586 445.75L483.233 444.549L482.601 446.486L484.25 447.682L482.214 447.677L481.586 449.617L480.961 447.677L478.923 447.682Z" fill="white"/>
<path fill-rule="evenodd" clip-rule="evenodd" d="M513.561 399.249L515.21 398.055L514.578 396.118L516.223 397.319L517.869 396.118L517.237 398.055L518.886 399.249L516.85 399.247L516.223 401.186L515.597 399.247L513.561 399.249Z" fill="white"/>
<g opacity="0.58">
<path opacity="0.58" d="M623.765 283.936C623.765 284.903 623.293 286.317 621.073 287.551C611.421 292.977 561.827 296.412 521.923 298.349C465.622 301.082 392.566 302.596 316.213 302.596C238.005 302.596 163.633 301.025 106.801 298.175C17.966 293.718 11.985 288.388 10.0668 286.666C8.91311 285.673 8.67245 284.639 8.67245 283.946C8.67245 282.57 9.99134 281.454 11.6217 281.454C13.0019 281.454 14.1603 282.256 14.4812 283.342C16.2295 284.543 28.0664 289.24 107.162 293.204C163.883 296.049 238.13 297.616 316.225 297.616C489.166 297.616 605.381 290.394 617.833 283.405L617.973 283.325C618.301 282.252 619.454 281.459 620.827 281.459C622.444 281.445 623.765 282.561 623.765 283.936Z" fill="#FAC8BE"/>
</g>
<g opacity="0.58">
<path opacity="0.58" d="M574.951 512.369C574.399 512.369 573.863 512.186 573.426 511.848C572.989 511.51 572.677 511.037 572.538 510.503C572.505 510.479 572.467 510.451 572.42 510.422C561.897 503.434 463.698 496.212 317.559 496.212C251.57 496.212 188.833 497.779 140.902 500.624C74.0592 504.592 64.065 509.28 62.588 510.486C62.4376 511.074 62.0779 511.587 61.5765 511.929C61.075 512.27 60.4662 512.418 59.864 512.343C59.2618 512.268 58.7076 511.976 58.3052 511.521C57.9028 511.067 57.6799 510.482 57.6782 509.875C57.6844 509.366 57.7919 508.864 57.9945 508.397C58.197 507.931 58.4905 507.509 58.8578 507.157C60.4882 505.435 65.5419 500.102 140.607 495.648C188.632 492.796 251.474 491.227 317.559 491.227C382.081 491.227 443.811 492.732 491.385 495.473C525.105 497.41 567.012 500.855 575.168 506.272C577.056 507.506 577.443 508.919 577.443 509.884C577.441 510.544 577.178 511.176 576.711 511.642C576.244 512.107 575.611 512.369 574.951 512.369Z" fill="#FAC8BE"/>
</g>
<g opacity="0.58">
<path opacity="0.58" d="M539.5 709.425C539.005 709.414 538.528 709.237 538.145 708.922C537.763 708.607 537.497 708.173 537.391 707.689C537.36 707.665 537.327 707.639 537.287 707.613C528.086 701.108 442.191 694.387 314.372 694.387C256.653 694.387 201.779 695.847 159.858 698.494C101.4 702.187 92.6515 706.554 91.3586 707.672C91.2555 708.162 90.9893 708.602 90.6035 708.92C90.2178 709.239 89.7353 709.417 89.2352 709.425C88.0319 709.425 87.0551 708.385 87.0551 707.104C87.0623 706.159 87.4313 705.253 88.0862 704.572C89.5018 702.97 93.9327 698.011 159.589 693.863C201.586 691.209 256.559 689.748 314.363 689.748C370.797 689.748 424.781 691.15 466.4 693.691C495.892 695.493 532.547 698.699 539.68 703.741C541.331 704.89 541.671 706.205 541.671 707.104C541.685 708.385 540.704 709.425 539.5 709.425Z" fill="#FAC8BE"/>
</g>
<g opacity="0.58">
<path opacity="0.58" d="M525.994 793.744C525.56 793.755 525.134 793.624 524.781 793.371C524.428 793.118 524.167 792.757 524.038 792.342L523.942 792.283C515.408 787.034 435.775 781.607 317.262 781.607C263.746 781.607 212.869 782.787 174.001 784.922C119.802 787.902 111.69 791.429 110.492 792.33C110.365 792.748 110.104 793.113 109.75 793.369C109.396 793.624 108.968 793.757 108.531 793.746C107.415 793.746 106.512 792.909 106.512 791.875C106.517 791.487 106.604 791.105 106.767 790.753C106.929 790.401 107.164 790.088 107.455 789.832C108.779 788.539 112.882 784.535 173.753 781.187C212.699 779.045 263.662 777.865 317.254 777.865C369.576 777.865 419.637 778.995 458.217 781.048C485.559 782.504 519.544 785.092 526.166 789.16C527.688 790.087 528.011 791.148 528.011 791.875C528.016 792.906 527.11 793.744 525.994 793.744Z" fill="#FAC8BE"/>
</g>
<g style="mix-blend-mode:screen" opacity="0.2">
<path style="mix-blend-mode:screen" opacity="0.2" d="M660.296 59.4414L512.192 861.768L511.304 863.837C501.848 874.879 417.664 883.512 315.216 883.512C210.418 883.512 124.735 874.473 118.596 863.082C118.471 862.65 118.36 862.209 118.237 861.768L-32.934 59.4414H660.296Z" fill="url(#paint4_linear)"/>
</g>
<g style="mix-blend-mode:multiply" opacity="0.1">
<path d="M580.438 867.252C580.438 881.575 461.236 908.375 314.193 908.375C167.151 908.375 47.9466 881.587 47.9466 867.252C47.9466 852.916 167.149 834.732 314.193 834.732C461.238 834.732 580.438 852.93 580.438 867.252Z" fill="#150044"/>
</g>
<path d="M525.829 831.562H102.552V856.244H525.829V831.562Z" fill="#2F80ED"/>
<path d="M525.83 856.243C525.83 870.564 431.075 887.483 314.195 887.483C197.315 887.483 102.56 870.564 102.56 856.243C102.56 841.921 197.315 823.724 314.195 823.724C431.075 823.724 525.83 841.921 525.83 856.243Z" fill="#2F80ED"/>
<path d="M314.191 857.493C431.075 857.493 525.828 845.883 525.828 831.562C525.828 817.24 431.075 805.63 314.191 805.63C197.308 805.63 102.554 817.24 102.554 831.562C102.554 845.883 197.308 857.493 314.191 857.493Z" fill="#56CCF2"/>
<path d="M498.302 829.331C498.302 829.985 498.022 830.629 497.472 831.266C488.634 841.586 409.94 849.655 314.194 849.655C216.243 849.655 136.159 841.206 130.421 830.558C130.207 830.185 130.092 829.762 130.089 829.331C130.089 818.103 212.508 809.003 314.194 809.003C415.88 809.003 498.302 818.103 498.302 829.331Z" fill="#2D9CDB"/>
<path d="M467.094 827.249C467.094 827.721 466.858 828.193 466.405 828.665C459.065 836.179 393.717 842.052 314.195 842.052C232.849 842.052 166.341 835.901 161.575 828.151C161.398 827.886 161.301 827.575 161.297 827.256C161.297 819.083 229.747 812.456 314.195 812.456C398.644 812.456 467.094 819.076 467.094 827.249Z" fill="#56CCF2"/>
<path d="M390.803 826.629C390.793 826.755 390.757 826.877 390.697 826.989C390.638 827.1 390.555 827.198 390.456 827.275C386.78 830.725 354.037 833.41 314.194 833.41C273.436 833.41 240.11 830.579 237.728 827.039C237.639 826.921 237.591 826.777 237.588 826.629C237.588 822.875 271.884 819.834 314.194 819.834C356.505 819.834 390.803 822.875 390.803 826.629Z" fill="#2D9CDB"/>
<path d="M335.217 352.941C335.217 352.941 345.086 302.954 282.662 316.586C282.662 316.586 260.614 311.457 253.429 354.845C253.429 354.845 254.666 369.002 236.119 384.951C236.119 384.951 222.241 389.563 226.24 404.902C226.24 404.902 235.897 421.974 210.064 436.442C210.064 436.442 162.228 453.578 175.563 497.587C175.563 497.587 176.896 475.645 188.233 469.274C188.233 469.274 174.896 482.916 183.564 527.593C183.564 527.593 195.568 554.933 161.56 565.602C161.56 565.602 180.23 581.606 204.237 565.602C204.237 565.602 199.32 591.607 236.119 606.278C236.119 606.278 267.583 613.611 260.248 634.949C260.248 634.949 374.892 605.023 350.935 510.61C350.935 510.61 360.936 526.94 358.935 546.945C358.935 546.945 375.467 532.43 359.199 475.008C354.639 458.907 356.132 441.139 363.073 425.933C368.045 415.066 369.977 408.391 359.197 401.662C352.379 397.415 343.517 394.87 344.654 384.956C344.654 384.956 347.929 379.685 341.214 368.747L335.217 352.939" fill="url(#paint5_linear)"/>
<path d="M312.198 638.337C314.532 637.879 316.881 637.412 319.245 636.936C332.319 634.359 344.792 631.431 357.391 629.596C357.863 632.682 357.944 635.86 358.099 638.894C360.058 661.093 360.058 682.967 353.852 705.166C349.254 721.711 342.474 737.571 333.692 752.327L329.527 667.978L312.198 638.337Z" fill="#CE9065"/>
<path d="M365.439 804.201L336.353 806.324L335.348 785.937C345.979 785.918 356.61 785.883 367.242 785.833C366.147 796.998 365.439 804.201 365.439 804.201Z" fill="#27AE60"/>
<path d="M353.852 705.175C360.054 682.976 360.054 661.102 358.099 638.903C357.948 635.869 357.863 632.691 357.391 629.605C362.197 628.897 367.019 628.357 371.903 628.055C376.214 643.518 379.203 657.261 378.682 664.292C377.469 680.902 370.573 751.824 367.241 785.839C356.61 785.872 345.979 785.907 335.347 785.943L333.696 752.336C342.476 737.579 349.254 721.72 353.852 705.175Z" fill="#EFAA7B"/>
<path d="M285.079 560.264L348.583 557.229C352.311 567.431 364.216 600.479 371.905 628.055C354.21 629.145 337.305 633.387 319.247 636.945C316.888 637.417 314.538 637.884 312.199 638.347L267.57 562L285.079 560.264Z" fill="#444444"/>
<path d="M364.749 804.2C364.749 804.2 391.479 819.21 398.868 820.298C406.258 821.386 397.566 826.937 383.65 828.841C372.28 830.401 349.826 828.822 341.477 826.734C340.615 826.519 339.843 826.036 339.271 825.356C338.7 824.675 338.358 823.832 338.294 822.945L337.027 805.774L364.749 804.2Z" fill="#444444"/>
<path d="M254.951 561.707L349.264 557.188C349.264 557.188 326.923 518.622 334.351 498.171C341.778 477.72 328.941 460.589 328.941 460.589C328.941 460.589 365.81 507.529 373.769 510.608C381.727 513.687 432.661 408.624 432.661 408.624L414.232 400.388L372.424 467.74C372.424 467.74 352.461 440.78 339.581 425.888C326.702 410.995 304.476 409.79 304.476 409.79L276.839 409.082C276.839 409.082 246.21 437.656 241.883 450.567C237.556 463.477 254.951 561.707 254.951 561.707Z" fill="url(#paint6_linear)"/>
<path d="M288.783 465.903C288.783 465.903 307.779 443.541 313.481 448.949C317.006 452.292 306.625 466.463 306.625 466.463C306.625 466.463 313.427 465.434 314.845 466.434C316.095 467.314 305.172 475.827 300.941 477.703C278.577 487.612 290.152 480.534 292.287 479.644C295.43 478.335 288.783 465.903 288.783 465.903Z" fill="#FFB685"/>
<path d="M242.753 481.57L289.879 464.111L296.802 480.015C296.802 480.015 223.081 527.264 212.86 516.746C202.64 506.227 223.501 440.144 227.443 431.629C230.841 424.285 266.437 411.726 276.948 409.088L274.631 417.518L242.753 481.57Z" fill="url(#paint7_linear)"/>
<path d="M416.324 402.052C416.324 402.052 424.537 375.042 430.716 370.016C436.895 364.991 440.443 375.901 438.308 384.13C436.173 392.359 436.234 395.252 436.234 395.252C436.234 395.252 441.779 391.949 443.416 393.504C445.054 395.059 431.405 408.25 431.405 408.25L416.324 402.052Z" fill="#FFB685"/>
<g style="mix-blend-mode:multiply" opacity="0.36">
<path d="M246.42 508.336C250.313 535.469 254.953 561.707 254.953 561.707L262.85 561.344C261.958 545.421 260.491 519.51 260.491 517.281C260.477 514.131 294.574 482.1 296.7 480.111C294.952 481.19 269.572 497.011 246.42 508.336Z" fill="#CC1729"/>
</g>
<g style="mix-blend-mode:multiply" opacity="0.36">
<path d="M236.118 485.88L291.118 467L289.869 464.105L236.118 485.88Z" fill="#CC1729"/>
</g>
<g style="mix-blend-mode:multiply" opacity="0.36">
<path d="M363.992 502.105C352.407 489.981 335.387 468.725 330.385 462.418L330.302 461.947C330.302 461.947 324.779 440.446 325.348 436.607C325.867 433.269 342.394 478.951 363.992 502.105Z" fill="#CC1729"/>
</g>
<path d="M366.365 504.538C365.825 503.998 365.269 503.431 364.694 502.837C365.249 503.417 365.806 503.991 366.365 504.538Z" fill="#CC1729"/>
<path d="M366.536 504.71C368.754 506.896 371.171 508.871 373.756 510.608C372.243 510.016 369.686 507.841 366.536 504.71Z" fill="#CC1729"/>
<path d="M236.118 485.88L291.118 467L289.869 464.105L236.118 485.88Z" fill="#56CCF2"/>
<path d="M273.092 369.473C271.676 357.473 279.122 356.36 282.475 361.956C282.475 361.956 288.555 357.752 290.648 351.707C290.648 351.707 312.793 361.689 334.501 357.804C334.501 357.804 334.343 404.087 303.301 403.377C303.301 403.377 303.226 403.377 303.091 403.377L303.691 411.522C303.72 411.888 303.612 412.253 303.389 412.546L293.93 424.942C293.8 425.113 293.634 425.254 293.445 425.355C293.255 425.456 293.046 425.515 292.832 425.529C292.617 425.542 292.402 425.509 292.202 425.431C292.001 425.354 291.82 425.235 291.67 425.081L277.247 410.347C277.085 410.182 276.963 409.981 276.892 409.762C276.822 409.542 276.803 409.308 276.839 409.08C277.799 402.794 277.856 386.05 277.832 378.92C277.837 378.849 277.848 378.779 277.863 378.71C276.159 377.691 273.776 375.268 273.092 369.473Z" fill="#FFB685"/>
<path d="M282.695 387.065C285.763 395.674 303.302 403.368 303.302 403.368C303.302 403.368 303.227 403.368 303.092 403.368L303.691 411.513C303.723 411.883 303.615 412.251 303.389 412.546L298.177 419.388L297.189 405.98C281.089 398.314 279.623 378.467 282.695 387.065Z" fill="#CE9065"/>
<path d="M320.048 375.344L319.177 384.505L313.871 384" fill="#CE9065"/>
<path d="M311.437 393.122C310.681 393.474 309.842 393.611 309.014 393.518C308.218 393.451 307.443 393.232 306.73 392.872C306.371 392.696 306.029 392.488 305.708 392.251C305.386 392.01 305.09 391.736 304.823 391.435C304.255 390.823 303.865 390.067 303.696 389.25C304.451 389.413 305.192 389.641 305.909 389.929C306.23 390.064 306.555 390.182 306.853 390.331C307.15 390.479 307.461 390.616 307.768 390.758C308.367 391.06 308.962 391.381 309.563 391.756C310.224 392.16 310.85 392.616 311.437 393.122Z" fill="#EB5757"/>
<path d="M295.557 373.617L324.813 376.399C326.236 376.533 327.664 376.204 328.884 375.461C330.104 374.718 331.052 373.6 331.585 372.274L335.893 361.549C336.277 360.593 336.433 359.561 336.348 358.535C336.263 357.509 335.941 356.516 335.405 355.637C334.869 354.757 334.136 354.014 333.263 353.468C332.39 352.922 331.402 352.586 330.377 352.489L294.602 349.08C293.577 348.982 292.543 349.125 291.583 349.497C290.622 349.869 289.762 350.46 289.07 351.223C288.378 351.985 287.874 352.899 287.597 353.891C287.32 354.883 287.278 355.925 287.474 356.936L289.685 368.28C289.956 369.684 290.675 370.963 291.734 371.925C292.792 372.887 294.133 373.48 295.557 373.617Z" fill="#EAE4E4"/>
<path d="M300.401 374.07L329.657 376.851C331.08 376.986 332.508 376.658 333.728 375.914C334.949 375.171 335.896 374.053 336.429 372.727L340.737 362.002C341.12 361.046 341.276 360.014 341.191 358.988C341.106 357.962 340.783 356.97 340.248 356.09C339.712 355.211 338.979 354.468 338.106 353.922C337.234 353.375 336.246 353.04 335.221 352.942L299.446 349.551C298.42 349.454 297.387 349.597 296.426 349.969C295.466 350.341 294.606 350.932 293.914 351.694C293.222 352.457 292.718 353.371 292.44 354.362C292.163 355.354 292.121 356.397 292.318 357.408L294.529 368.754C294.804 370.154 295.525 371.428 296.583 372.386C297.641 373.344 298.98 373.934 300.401 374.07Z" fill="white"/>
<path d="M295.02 356.865L297.229 368.189C297.391 369.01 297.812 369.756 298.432 370.318C299.051 370.881 299.834 371.229 300.666 371.311L329.908 374.093C330.568 374.152 331.232 374.041 331.836 373.77C332.441 373.499 332.965 373.077 333.36 372.545C333.578 372.285 333.75 371.991 333.872 371.674L338.175 360.958C338.404 360.401 338.499 359.798 338.452 359.198C338.406 358.597 338.219 358.016 337.906 357.501C337.594 356.986 337.165 356.552 336.654 356.233C336.143 355.914 335.564 355.72 334.964 355.666L299.192 352.264C299.056 352.248 298.92 352.242 298.783 352.245C298.213 352.244 297.65 352.369 297.134 352.613C296.618 352.856 296.163 353.212 295.802 353.653C295.441 354.094 295.182 354.61 295.045 355.163C294.907 355.717 294.895 356.294 295.008 356.853L295.02 356.865Z" fill="#56CCF2"/>
<g style="mix-blend-mode:overlay" opacity="0.53">
<path d="M298.784 352.267L305.451 371.788L314.181 372.621L307.525 353.09L299.192 352.297C299.057 352.278 298.92 352.267 298.784 352.267Z" fill="white"/>
</g>
<g style="mix-blend-mode:overlay" opacity="0.53">
<path d="M319.479 354.216L326.166 373.758L329.908 374.115C330.568 374.174 331.231 374.063 331.836 373.792C332.44 373.521 332.965 373.099 333.36 372.567L327.329 354.961L319.479 354.216Z" fill="white"/>
</g>
<path d="M285.295 353.629L294.176 354.474L293.633 360.181L282.662 359.138L285.295 353.629Z" fill="white"/>
<path d="M283.661 634.659C280.044 634.681 276.421 634.697 272.792 634.708C264.949 612.059 254.83 578.567 256.871 561.608L325.462 558.336C329.553 575.238 338.264 613.186 340.494 638.521C321.817 635.414 302.874 634.364 283.661 634.659Z" fill="#4F4F4F"/>
<path d="M254.652 767.779C246.205 777.608 240.677 783.938 240.677 783.938L216.949 768.012L226.408 751.827C226.774 752.063 227.139 752.287 227.512 752.511C236.308 758.039 246.84 761.444 254.652 767.779Z" fill="#27AE60"/>
<path d="M272.793 634.709C276.411 634.693 280.034 634.676 283.663 634.659C302.875 634.364 321.818 635.414 340.495 638.521C341.332 648.044 341.257 655.787 339.676 659.956C334.283 674.143 280.64 737.534 254.652 767.779C246.84 761.444 236.308 758.039 227.519 752.511C227.146 752.275 226.781 752.058 226.415 751.827L281.339 657.851C281.339 657.851 277.467 648.204 272.793 634.709Z" fill="#FFB685"/>
<path d="M240.67 783.939C240.67 783.939 244.006 809.892 255.083 819.638C260.691 824.571 249.746 827.141 237.464 820.327C225.181 813.513 206.025 785.071 206.025 785.071L216.954 768.018L240.67 783.939Z" fill="#444444"/>
<g opacity="0.54">
<g style="mix-blend-mode:screen" opacity="0.5">
<g style="mix-blend-mode:screen" opacity="0.5">
<path d="M565.958 428.972L582.455 324.355C582.455 324.355 507.052 326.189 483.229 327.585L483.531 431.161C483.531 431.161 542.6 431.532 565.958 428.972Z" fill="#E99050"/>
</g>
</g>
<g opacity="0.54">
<path opacity="0.54" d="M513.1 343.488L490.243 344.231C489.948 344.271 489.649 344.248 489.364 344.165C489.08 344.081 488.815 343.939 488.589 343.747C488.362 343.555 488.179 343.318 488.05 343.051C487.92 342.784 487.849 342.492 487.839 342.196C487.829 341.899 487.882 341.604 487.994 341.329C488.105 341.053 488.273 340.805 488.487 340.599C488.7 340.393 488.955 340.234 489.234 340.132C489.512 340.03 489.81 339.988 490.106 340.008L512.963 339.263C513.491 339.296 513.987 339.524 514.355 339.903C514.723 340.282 514.936 340.785 514.953 341.313C514.97 341.841 514.79 342.357 514.447 342.759C514.105 343.161 513.624 343.421 513.1 343.488Z" fill="#FFEBB2"/>
</g>
<g opacity="0.54">
<path opacity="0.54" d="M501.925 351.605L491.294 351.949C491 351.988 490.7 351.965 490.416 351.882C490.131 351.799 489.867 351.656 489.64 351.464C489.414 351.273 489.23 351.035 489.101 350.768C488.972 350.501 488.9 350.21 488.89 349.913C488.881 349.616 488.933 349.321 489.045 349.046C489.157 348.771 489.325 348.522 489.538 348.316C489.752 348.11 490.006 347.951 490.285 347.849C490.564 347.748 490.861 347.706 491.157 347.726L501.788 347.379C502.316 347.412 502.812 347.64 503.18 348.019C503.548 348.399 503.761 348.901 503.778 349.429C503.795 349.958 503.615 350.473 503.272 350.875C502.93 351.278 502.449 351.538 501.925 351.605Z" fill="#FFEBB2"/>
</g>
<g opacity="0.54">
<path opacity="0.54" d="M501.524 374.126L490.893 374.47C490.599 374.51 490.299 374.487 490.015 374.403C489.73 374.32 489.466 374.178 489.239 373.986C489.013 373.794 488.829 373.557 488.7 373.29C488.571 373.022 488.499 372.731 488.489 372.435C488.48 372.138 488.532 371.842 488.644 371.567C488.756 371.292 488.924 371.044 489.137 370.838C489.351 370.632 489.605 370.473 489.884 370.371C490.163 370.269 490.46 370.227 490.756 370.247L501.387 369.9C501.915 369.933 502.411 370.162 502.779 370.541C503.147 370.92 503.36 371.423 503.377 371.951C503.394 372.479 503.214 372.995 502.871 373.397C502.529 373.799 502.048 374.059 501.524 374.126Z" fill="#FFEBB2"/>
</g>
<g opacity="0.54">
<path opacity="0.54" d="M566.153 363.542L559.846 363.747C559.218 363.767 558.593 363.65 558.015 363.403C557.437 363.156 556.92 362.786 556.501 362.318C556.081 361.85 555.769 361.296 555.586 360.695C555.404 360.093 555.355 359.459 555.444 358.837L558.799 335.184C558.939 334.18 559.431 333.259 560.185 332.582C560.94 331.905 561.909 331.516 562.923 331.485L569.229 331.28C569.858 331.259 570.483 331.376 571.061 331.623C571.639 331.869 572.156 332.24 572.576 332.708C572.996 333.176 573.308 333.73 573.491 334.331C573.674 334.933 573.723 335.567 573.634 336.19L570.277 359.842C570.136 360.846 569.645 361.768 568.891 362.445C568.136 363.122 567.166 363.511 566.153 363.542ZM563.06 335.701C563.041 335.702 563.023 335.71 563.009 335.723C562.995 335.736 562.986 335.753 562.984 335.772L559.627 359.424L559.709 359.516L566.016 359.311C566.035 359.31 566.053 359.303 566.067 359.29C566.082 359.277 566.091 359.259 566.094 359.24L569.451 335.588L569.369 335.496L563.06 335.701Z" fill="#FFEBB2"/>
</g>
</g>
<path opacity="0.5" d="M570.94 411.017L584.936 322.183L582.404 322.244C581.649 322.263 506.693 324.094 483.106 325.476L481.11 325.592L481.424 433.268L483.519 433.28C483.944 433.28 514.235 433.452 539.931 432.617C550.124 432.285 559.597 431.796 566.189 431.074L567.795 430.897L570.895 411.225C570.914 411.157 570.929 411.087 570.94 411.017ZM579.984 326.531L567.165 407.79L552.856 401.705C548.373 399.803 545.306 397.741 544.891 393.886L545.138 383.913C548.574 380.563 550.987 375.134 551.811 368.837C553.063 359.248 551.407 351.462 547.021 346.321C543.704 342.433 538.978 340.295 533.358 340.14C528.269 340.003 523.194 342.181 519.438 346.132C515.019 350.78 512.886 357.207 513.436 364.231L513.495 364.998C514.066 372.366 514.561 378.779 519.53 383.203L519.36 392.244C519.048 394.448 518.132 396.523 516.713 398.238C515.294 399.953 513.428 401.242 511.322 401.962L485.605 410.635L485.369 329.584C508.077 328.369 567.026 326.854 579.972 326.531H579.984ZM564.136 427.04C542.803 429.118 496.092 429.097 485.649 429.066L485.609 415.092L512.671 405.968C515.546 404.987 518.089 403.223 520.014 400.874C521.939 398.525 523.169 395.684 523.567 392.673L523.803 381.202L522.958 380.553C518.692 377.269 518.284 371.986 517.718 364.675L517.659 363.903C517.203 358.09 518.928 352.814 522.51 349.039C525.445 345.953 529.366 344.245 533.254 344.356C537.647 344.479 541.302 346.104 543.822 349.058C547.41 353.265 548.729 359.911 547.635 368.282C546.898 373.902 544.676 378.788 541.687 381.351L540.979 381.962L540.679 394.035V394.16C541.285 400.542 546.342 403.517 551.209 405.586L566.495 412.086L564.136 427.04Z" fill="#FFEAB0"/>
<g style="mix-blend-mode:screen" opacity="0.5">
<g style="mix-blend-mode:screen" opacity="0.5">
<path d="M131.263 541.368C131.114 541.554 130.925 541.703 130.709 541.804C130.493 541.905 130.258 541.955 130.02 541.951C48.44 540.476 -12.5424 540.917 -19.4293 535.437L-19.7125 535.182L-53.1941 344.734C-53.2589 344.384 -53.2003 344.021 -53.0283 343.709C-52.8562 343.397 -52.5814 343.154 -52.2504 343.021L-51.3892 342.682C-29.4826 339.121 31.9457 336.283 110.732 335.151C111.121 335.145 111.498 335.286 111.788 335.545C112.078 335.804 112.26 336.163 112.298 336.55L131.572 540.259C131.615 540.655 131.504 541.052 131.263 541.368Z" fill="#FFEAAF"/>
</g>
</g>
<path d="M130.048 544.46H129.975C62.7758 543.247 -12.174 544.418 -20.9909 537.401L-21.3944 537.045L-22.0291 536.471L-22.1801 535.629L-55.6641 345.177C-55.8261 344.255 -55.6653 343.306 -55.2088 342.49C-54.7523 341.673 -54.0282 341.039 -53.1585 340.694L-51.8537 340.182H-51.573C-29.3053 336.603 31.3114 333.79 110.716 332.651C111.735 332.636 112.723 333.006 113.482 333.686C114.241 334.366 114.717 335.307 114.814 336.322L134.09 540.032C134.191 541.076 133.881 542.118 133.226 542.938C132.844 543.413 132.36 543.796 131.81 544.06C131.26 544.323 130.658 544.46 130.048 544.46ZM-17.4118 533.77C-10.1166 537.896 41.6265 537.811 128.998 539.432L109.906 337.681C32.5666 338.806 -28.758 341.645 -50.575 345.104L-17.4118 533.77Z" fill="#FFEAB0"/>
<g opacity="0.54">
<path opacity="0.54" d="M83.902 504.913C49.2571 507.159 12.9088 505.661 12.3449 505.649C11.6798 505.636 11.0473 505.358 10.5867 504.878C10.1261 504.398 9.87508 503.755 9.88884 503.089C9.90261 502.424 10.1801 501.792 10.6601 501.331C11.1402 500.871 11.7836 500.62 12.4488 500.633C13.1353 500.647 72.1642 502.584 104.509 497.868C104.846 497.793 105.194 497.789 105.533 497.855C105.872 497.921 106.193 498.056 106.477 498.252C106.761 498.448 107.002 498.701 107.184 498.994C107.366 499.287 107.486 499.614 107.536 499.956C107.586 500.297 107.565 500.645 107.474 500.978C107.384 501.311 107.225 501.622 107.009 501.891C106.793 502.16 106.524 502.382 106.218 502.542C105.913 502.702 105.577 502.798 105.233 502.823C99.1458 503.722 91.8106 504.399 83.902 504.913Z" fill="#FFEBB2"/>
</g>
<path d="M84.2884 410.958C83.4801 411.05 82.6651 411.067 81.8536 411.01V389.858L69.8845 403.757C67.511 400.513 65.8548 396.373 65.3263 391.755C63.9885 380.098 70.3045 369.802 79.4282 368.749C88.5518 367.697 97.0502 376.299 98.388 387.952C99.7257 399.605 93.405 409.906 84.2884 410.958Z" fill="#FFEBB2"/>
<path d="M85.3494 479.644C80.7817 479.644 76.3484 477.672 72.6985 473.982C68.7253 469.957 66.1465 464.332 65.434 458.141C63.9382 445.129 71.2546 433.563 81.7443 432.355C86.9349 431.758 92.0806 433.736 96.2166 437.923C100.187 441.934 102.769 447.573 103.481 453.764C104.967 466.767 97.6534 478.335 87.1708 479.552C86.5659 479.618 85.9578 479.649 85.3494 479.644ZM83.5397 437.265C83.1313 437.265 82.7233 437.289 82.3176 437.336C74.5765 438.225 69.2397 447.297 70.4193 457.56C71.0045 462.642 73.0807 467.22 76.2706 470.45C79.2976 473.517 82.9664 474.972 86.5975 474.555C94.3385 473.665 99.6754 464.591 98.4957 454.33C97.9106 449.248 95.8344 444.671 92.6445 441.441C89.9572 438.719 86.765 437.265 83.5397 437.265Z" fill="#FFEBB2"/>
<path d="M11.7584 369.929C11.237 369.929 10.7263 369.781 10.2863 369.501C9.84621 369.221 9.49495 368.822 9.27362 368.35C9.0523 367.878 8.97007 367.353 9.03657 366.835C9.10307 366.318 9.31554 365.831 9.6491 365.43L23.5339 348.752C24.0002 348.193 24.6687 347.842 25.3931 347.776C26.1175 347.71 26.8387 347.933 27.3986 348.398C27.9575 348.864 28.3087 349.532 28.375 350.257C28.4414 350.981 28.2175 351.703 27.7525 352.262L13.8653 368.941C13.6083 369.25 13.2863 369.499 12.9221 369.67C12.558 369.841 12.1606 369.929 11.7584 369.929ZM25.6503 348.601H25.4733C25.2235 348.622 24.9805 348.694 24.7585 348.81C24.5365 348.927 24.34 349.087 24.1804 349.28L10.2932 365.958C9.96964 366.347 9.81283 366.847 9.85704 367.351C9.90124 367.854 10.1429 368.32 10.5291 368.646C10.9174 368.969 11.4179 369.126 11.9214 369.082C12.4249 369.038 12.8905 368.796 13.2164 368.41L27.1084 351.729C27.3398 351.451 27.4872 351.112 27.5334 350.753C27.5796 350.394 27.5227 350.029 27.3693 349.701C27.2159 349.373 26.9724 349.095 26.6672 348.9C26.362 348.706 26.0077 348.602 25.6456 348.601H25.6503Z" fill="#FFEBB2"/>
<path d="M20.7199 369.11C20.1985 369.11 19.6878 368.962 19.2479 368.682C18.8079 368.402 18.4569 368.003 18.236 367.53C18.015 367.058 17.9334 366.533 18.0006 366.015C18.0678 365.498 18.281 365.011 18.6153 364.611L32.5002 347.933C32.9726 347.399 33.6345 347.069 34.3455 347.015C35.0565 346.96 35.7608 347.185 36.3093 347.641C36.8577 348.096 37.2071 348.748 37.2835 349.457C37.36 350.166 37.1574 350.877 36.7187 351.439L22.8315 368.117C22.6021 368.395 22.3195 368.625 22.0003 368.793C21.6811 368.96 21.3316 369.063 20.9723 369.094C20.8886 369.104 20.8043 369.11 20.7199 369.11ZM34.6118 347.782C34.3317 347.781 34.055 347.842 33.8013 347.961C33.5476 348.08 33.3232 348.253 33.1443 348.468L19.2571 365.147C18.9336 365.536 18.7778 366.037 18.824 366.541C18.8703 367.045 19.1147 367.509 19.5036 367.833C19.8925 368.156 20.394 368.312 20.8978 368.266C21.4015 368.22 21.8663 367.975 22.1898 367.586L36.0723 350.908C36.2333 350.716 36.3549 350.495 36.4302 350.256C36.5056 350.017 36.533 349.766 36.5111 349.517C36.4892 349.267 36.4183 349.025 36.3025 348.803C36.1867 348.581 36.0283 348.384 35.8363 348.223C35.4934 347.935 35.0594 347.779 34.6118 347.782Z" fill="#FFEBB2"/>
<path d="M-1.64969 350.138L-17.7181 369.437C-17.9373 369.701 -17.9016 370.092 -17.6382 370.311L-15.0163 372.494C-14.753 372.713 -14.3617 372.678 -14.1424 372.414L1.92593 353.115C2.1452 352.851 2.10946 352.46 1.84609 352.241L-0.775791 350.058C-1.03916 349.839 -1.43042 349.874 -1.64969 350.138Z" fill="#FFEBB2"/>
<path d="M7.98284 349.214L-8.0895 368.552C-8.30883 368.815 -8.27272 369.207 -8.00884 369.426L-5.38368 371.608C-5.1198 371.828 -4.72809 371.792 -4.50876 371.528L11.5636 352.191C11.7829 351.927 11.7468 351.535 11.4829 351.316L8.85776 349.134C8.59388 348.914 8.20217 348.951 7.98284 349.214Z" fill="#FFEBB2"/>
<path d="M17.148 348.643L19.2879 350.424C19.4764 350.584 19.5946 350.811 19.6171 351.058C19.6396 351.304 19.5646 351.549 19.4083 351.741L3.7492 370.549C3.58931 370.737 3.36226 370.855 3.11664 370.877C2.87103 370.9 2.62636 370.825 2.43503 370.67L0.295088 368.888C0.106596 368.728 -0.0116042 368.501 -0.0341052 368.255C-0.0566062 368.008 0.0183935 367.763 0.174765 367.572L15.8433 348.754C16.0042 348.57 16.23 348.456 16.4733 348.435C16.7166 348.414 16.9584 348.489 17.148 348.643Z" fill="#FFEBB2"/>
<path opacity="0.54" d="M59.0883 430.277C59.1183 430.547 59.09 430.819 59.0053 431.076C58.9207 431.334 58.7816 431.57 58.5976 431.768C58.2548 432.134 57.7819 432.35 57.2811 432.37L31.5758 433.33C28.4261 433.47 27.5461 435.064 27.8528 437.084L28.5087 441.406C28.5813 441.826 28.5137 442.259 28.3162 442.636C28.1188 443.014 27.8026 443.317 27.4163 443.497C27.1109 443.63 26.776 443.681 26.4449 443.644C26.1138 443.608 25.7979 443.485 25.5288 443.289C25.3265 443.144 25.1554 442.959 25.0257 442.746C24.896 442.534 24.8103 442.297 24.7738 442.051L24.1061 437.655C23.7994 435.633 22.4357 433.672 20.3948 433.75L-5.21603 434.708C-5.7053 434.735 -6.18684 434.577 -6.56496 434.266C-6.94308 433.954 -7.19008 433.511 -7.25688 433.026C-7.28772 432.756 -7.25869 432.482 -7.17184 432.224C-7.08498 431.967 -6.94243 431.731 -6.75433 431.535C-6.58635 431.351 -6.38377 431.203 -6.15824 431.098C-5.93271 430.993 -5.68868 430.934 -5.44017 430.924L20.2651 429.963C22.3059 429.886 22.7448 428.612 22.438 426.592L21.7845 422.279C21.7225 421.933 21.7556 421.577 21.8803 421.248C22.0049 420.919 22.2164 420.631 22.4923 420.413C22.7532 420.209 23.063 420.078 23.3907 420.032C23.7184 419.986 24.0524 420.027 24.3593 420.151C24.6661 420.275 24.935 420.477 25.1391 420.737C25.3431 420.998 25.4751 421.307 25.5217 421.635L26.1894 426.023C26.4961 428.043 27.631 429.546 31.4508 429.546L57.0357 428.59C57.5271 428.563 58.0111 428.721 58.3913 429.033C58.7716 429.346 59.0204 429.79 59.0883 430.277Z" fill="#FFEBB2"/>
<path opacity="0.5" d="M528.446 470.101C510.411 470.627 498.732 470.681 481.954 470.643C481.431 470.591 480.945 470.345 480.592 469.955C480.239 469.565 480.043 469.057 480.043 468.53C480.043 468.004 480.239 467.496 480.592 467.106C480.945 466.716 481.431 466.47 481.954 466.418C498.689 466.455 510.326 466.401 528.316 465.875C528.843 465.909 529.338 466.138 529.706 466.518C530.073 466.898 530.285 467.401 530.301 467.929C530.318 468.457 530.136 468.972 529.793 469.373C529.45 469.775 528.97 470.034 528.446 470.101Z" fill="#FFEAB0"/>
<path opacity="0.5" d="M540.243 447.184C522.85 447.751 502.81 448.159 481.804 448.112C481.509 448.141 481.211 448.109 480.929 448.016C480.647 447.923 480.388 447.772 480.168 447.573C479.948 447.374 479.772 447.131 479.651 446.86C479.531 446.589 479.469 446.295 479.469 445.999C479.469 445.702 479.531 445.409 479.651 445.137C479.772 444.866 479.948 444.623 480.168 444.424C480.388 444.225 480.647 444.074 480.929 443.982C481.211 443.889 481.509 443.856 481.804 443.886C544.349 444.023 586.402 440.505 586.942 440.465C587.468 440.48 587.97 440.689 588.35 441.052C588.73 441.416 588.962 441.907 589.001 442.432C589.039 442.957 588.881 443.477 588.558 443.892C588.235 444.307 587.769 444.587 587.251 444.679C586.902 444.707 574.77 446.049 540.243 447.184Z" fill="#FFEAB0"/>
<path opacity="0.5" d="M543.871 469.725C543.347 469.692 542.854 469.465 542.487 469.089C542.12 468.713 541.905 468.215 541.884 467.69C541.864 467.165 542.038 466.651 542.374 466.248C542.71 465.844 543.184 465.579 543.704 465.504C563.629 464.575 576.322 463.652 576.447 463.643C576.739 463.591 577.039 463.601 577.328 463.673C577.616 463.745 577.886 463.876 578.12 464.058C578.354 464.241 578.548 464.47 578.688 464.732C578.828 464.994 578.911 465.282 578.933 465.578C578.955 465.875 578.914 466.172 578.814 466.451C578.713 466.731 578.556 466.986 578.35 467.201C578.145 467.416 577.897 467.585 577.623 467.698C577.348 467.811 577.053 467.865 576.756 467.856C576.631 467.856 563.888 468.8 543.902 469.725H543.871Z" fill="#FFEAB0"/>
<path d="M318.604 527.95C294.376 527.95 270.596 527.745 247.93 527.339C163.644 525.838 69.687 521.134 58.749 512.433C58.5381 512.266 58.3386 512.086 58.1521 511.892C57.7845 511.541 57.4907 511.119 57.2882 510.652C57.0856 510.185 56.9783 509.683 56.9724 509.174C56.97 508.562 57.1914 507.971 57.5948 507.511C57.9983 507.051 58.556 506.754 59.163 506.676C59.77 506.599 60.3844 506.746 60.8904 507.09C61.3965 507.434 61.7593 507.951 61.9106 508.544C68.5286 513.697 129.549 520.211 248.005 522.321C270.655 522.726 294.393 522.932 318.592 522.932C465.703 522.932 564.556 515.66 575.135 508.632L575.267 508.542C575.421 507.951 575.784 507.436 576.29 507.094C576.795 506.752 577.408 506.606 578.014 506.684C578.619 506.761 579.176 507.057 579.579 507.515C579.982 507.974 580.204 508.564 580.203 509.174C580.203 510.146 579.804 511.569 577.9 512.819C569.704 518.265 527.516 521.735 493.57 523.684C445.696 526.435 383.555 527.95 318.604 527.95Z" fill="#FFEBB2"/>
<path d="M315.394 725.11C294.202 725.11 273.397 724.919 253.579 724.542C179.858 723.145 97.6767 718.766 88.1118 710.669C87.9263 710.512 87.7513 710.344 87.5881 710.164C86.9364 709.483 86.5707 708.577 86.5665 707.635C86.5665 706.344 87.5503 705.299 88.7607 705.299C89.2596 705.311 89.7401 705.489 90.1251 705.807C90.5102 706.124 90.7774 706.562 90.8841 707.049C96.6716 711.844 150.043 717.903 253.654 719.87C273.454 720.248 294.235 720.439 315.391 720.439C444.064 720.439 530.525 713.672 539.767 707.13C539.807 707.104 539.846 707.075 539.882 707.045C539.989 706.558 540.257 706.121 540.642 705.805C541.027 705.488 541.507 705.31 542.006 705.299C543.218 705.299 544.2 706.344 544.2 707.635C544.2 708.541 543.851 709.864 542.185 711.027C535.015 716.095 498.117 719.325 468.427 721.14C426.548 723.699 372.202 725.11 315.394 725.11Z" fill="#FFEBB2"/>
<path d="M318.306 806.855C298.658 806.855 279.377 806.701 260.993 806.397C192.645 805.269 116.449 801.735 107.58 795.199C107.409 795.075 107.247 794.94 107.094 794.794C106.803 794.538 106.568 794.224 106.406 793.872C106.243 793.52 106.156 793.138 106.15 792.75C106.15 791.71 107.061 790.863 108.184 790.863C108.622 790.853 109.051 790.986 109.406 791.241C109.762 791.496 110.024 791.861 110.154 792.278C115.522 796.148 165.005 801.044 261.068 802.627C279.427 802.931 298.684 803.099 318.309 803.099C437.608 803.099 517.772 797.637 526.35 792.356L526.456 792.288C526.587 791.87 526.849 791.506 527.205 791.251C527.56 790.995 527.989 790.863 528.426 790.872C529.549 790.872 530.46 791.717 530.46 792.76C530.46 793.491 530.137 794.56 528.594 795.499C521.945 799.59 487.734 802.195 460.205 803.66C421.37 805.717 370.977 806.855 318.306 806.855Z" fill="#FFEBB2"/>
<path d="M625.63 281.986C625.152 281.986 624.684 281.849 624.281 281.592C623.878 281.335 623.557 280.968 623.356 280.535L623.17 280.443C610.429 274.476 492.27 268.301 316.589 268.301C284.566 268.301 252.995 268.518 222.753 268.946C124.094 270.333 45.9425 273.936 18.7981 278.348L18.5904 278.381C12.4986 279.381 10.4507 280.193 9.81598 280.528C9.57702 281.048 9.16721 281.471 8.65465 281.726C8.14208 281.981 7.55763 282.053 6.9984 281.93C6.43917 281.808 5.93884 281.497 5.58055 281.05C5.22225 280.604 5.02757 280.048 5.02885 279.475C5.02885 278.845 5.23646 277.637 6.61669 276.625C7.72323 275.804 10.026 274.688 17.9841 273.395L18.1941 273.362C46.1431 268.863 122.534 265.34 222.68 263.925C252.948 263.495 284.542 263.278 316.582 263.278C477.222 263.278 609.938 268.705 625.291 275.894C627.178 276.779 628.134 277.982 628.134 279.471C628.135 280.136 627.872 280.775 627.402 281.246C626.933 281.718 626.296 281.984 625.63 281.986Z" fill="#FFEBB2"/>
<g style="mix-blend-mode:screen" opacity="0.4">
<path style="mix-blend-mode:screen" opacity="0.4" d="M267.083 516.013C349.36 433.736 349.36 300.338 267.083 218.061C184.806 135.784 51.4083 135.784 -30.8689 218.061C-113.146 300.338 -113.146 433.736 -30.8689 516.013C51.4083 598.29 184.806 598.29 267.083 516.013Z" fill="url(#paint8_radial)"/>
</g>
<defs>
<linearGradient id="paint0_linear" x1="532.574" y1="3.54439" x2="-82.3461" y2="645.451" gradientUnits="userSpaceOnUse">
<stop stop-color="#56CCF2"/>
<stop offset="0.46" stop-color="#3E72AE"/>
<stop offset="0.83" stop-color="#2C317D"/>
<stop offset="1" stop-color="#25186A"/>
</linearGradient>
<linearGradient id="paint1_linear" x1="343980" y1="56346.3" x2="180711" y2="304011" gradientUnits="userSpaceOnUse">
<stop offset="1" stop-color="#56CCF2"/>
</linearGradient>
<linearGradient id="paint2_linear" x1="172498" y1="-103552" x2="172886" y2="112866" gradientUnits="userSpaceOnUse">
<stop stop-color="#56CCF2"/>
</linearGradient>
<linearGradient id="paint3_linear" x1="-2167.61" y1="101048" x2="-92934.9" y2="43272.1" gradientUnits="userSpaceOnUse">
<stop stop-color="#56CCF2"/>
</linearGradient>
<linearGradient id="paint4_linear" x1="613.897" y1="1077.92" x2="306.696" y2="233.897" gradientUnits="userSpaceOnUse">
<stop offset="0.55" stop-color="#E4FF37"/>
<stop offset="0.59" stop-color="#D9F334"/>
<stop offset="0.67" stop-color="#BBD22D"/>
<stop offset="0.76" stop-color="#8C9C22"/>
<stop offset="0.88" stop-color="#4A5312"/>
<stop offset="1"/>
</linearGradient>
<linearGradient id="paint5_linear" x1="296.844" y1="297.721" x2="260.835" y2="568.443" gradientUnits="userSpaceOnUse">
<stop offset="0.13" stop-color="#F2994A"/>
<stop offset="0.83" stop-color="#E52836"/>
</linearGradient>
<linearGradient id="paint6_linear" x1="338.966" y1="407.119" x2="298.599" y2="631.37" gradientUnits="userSpaceOnUse">
<stop stop-color="#56CCF2"/>
<stop offset="1" stop-color="#2F80ED"/>
</linearGradient>
<linearGradient id="paint7_linear" x1="546049" y1="225257" x2="557660" y2="329393" gradientUnits="userSpaceOnUse">
<stop stop-color="#56CCF2"/>
<stop offset="1" stop-color="#2F80ED"/>
</linearGradient>
<radialGradient id="paint8_radial" cx="0" cy="0" r="1" gradientUnits="userSpaceOnUse" gradientTransform="translate(372691 661750) scale(376269)">
<stop stop-color="#E99050"/>
<stop offset="0.09" stop-color="#BF7642"/>
<stop offset="0.22" stop-color="#8D5730"/>
<stop offset="0.34" stop-color="#623C21"/>
<stop offset="0.47" stop-color="#3E2715"/>
<stop offset="0.6" stop-color="#23160C"/>
<stop offset="0.73" stop-color="#0F0A05"/>
<stop offset="0.86" stop-color="#040201"/>
<stop offset="1"/>
</radialGradient>
</defs>
</svg>
