<svg width="500" height="363" viewBox="0 0 500 363" fill="none" xmlns="http://www.w3.org/2000/svg">
<g clip-path="url(#clip0)">
<path d="M318.625 271.697V359.063H99.7411C74.8022 359.063 54.5117 339.466 54.5117 315.38C54.5117 291.294 74.8022 271.697 99.7411 271.697H318.625Z" fill="#F2F2F2"/>
<path d="M324.001 358.391C324.001 359.282 323.647 360.137 323.017 360.767C322.386 361.397 321.532 361.751 320.641 361.752H95.8426C83.6333 361.752 71.9242 356.901 63.291 348.268C54.6577 339.635 49.8076 327.926 49.8076 315.717C49.8076 303.507 54.6577 291.798 63.291 283.165C71.9242 274.532 83.6333 269.682 95.8426 269.682H320.641C321.532 269.682 322.387 270.036 323.017 270.666C323.647 271.296 324.001 272.151 324.001 273.042C324.001 273.933 323.647 274.788 323.017 275.418C322.387 276.048 321.532 276.402 320.641 276.402H95.8426C85.4157 276.402 75.4159 280.544 68.043 287.917C60.6701 295.29 56.528 305.29 56.528 315.717C56.528 326.143 60.6701 336.143 68.043 343.516C75.4159 350.889 85.4157 355.031 95.8426 355.031H320.641C321.532 355.031 322.386 355.386 323.017 356.016C323.647 356.646 324.001 357.5 324.001 358.391Z" fill="#0080F6"/>
<path d="M318.625 291.859H83.4103C83.2321 291.859 83.0612 291.788 82.9351 291.662C82.8091 291.536 82.7383 291.365 82.7383 291.187C82.7383 291.008 82.8091 290.838 82.9351 290.711C83.0612 290.585 83.2321 290.515 83.4103 290.515H318.625C318.804 290.515 318.975 290.585 319.101 290.711C319.227 290.838 319.297 291.008 319.297 291.187C319.297 291.365 319.227 291.536 319.101 291.662C318.975 291.788 318.804 291.859 318.625 291.859Z" fill="#CCCCCC"/>
<path d="M318.625 307.988H83.4103C83.2321 307.988 83.0612 307.917 82.9351 307.791C82.8091 307.665 82.7383 307.494 82.7383 307.316C82.7383 307.137 82.8091 306.966 82.9351 306.84C83.0612 306.714 83.2321 306.644 83.4103 306.644H318.625C318.804 306.644 318.975 306.714 319.101 306.84C319.227 306.966 319.297 307.137 319.297 307.316C319.297 307.494 319.227 307.665 319.101 307.791C318.975 307.917 318.804 307.988 318.625 307.988Z" fill="#CCCCCC"/>
<path d="M318.625 324.117H83.4103C83.2321 324.117 83.0612 324.046 82.9351 323.92C82.8091 323.794 82.7383 323.623 82.7383 323.445C82.7383 323.266 82.8091 323.095 82.9351 322.969C83.0612 322.843 83.2321 322.772 83.4103 322.772H318.625C318.804 322.772 318.975 322.843 319.101 322.969C319.227 323.095 319.297 323.266 319.297 323.445C319.297 323.623 319.227 323.794 319.101 323.92C318.975 324.046 318.804 324.117 318.625 324.117Z" fill="#CCCCCC"/>
<path d="M318.625 340.245H83.4103C83.2321 340.245 83.0612 340.175 82.9351 340.049C82.8091 339.923 82.7383 339.752 82.7383 339.573C82.7383 339.395 82.8091 339.224 82.9351 339.098C83.0612 338.972 83.2321 338.901 83.4103 338.901H318.625C318.804 338.901 318.975 338.972 319.101 339.098C319.227 339.224 319.297 339.395 319.297 339.573C319.297 339.752 319.227 339.923 319.101 340.049C318.975 340.175 318.804 340.245 318.625 340.245Z" fill="#CCCCCC"/>
<path d="M487.79 288.143L432.975 356.173L262.534 218.84C243.115 203.193 239.611 175.203 254.723 156.448C269.835 137.692 297.93 135.163 317.349 150.811L487.79 288.143Z" fill="#F2F2F2"/>
<path d="M437.583 359.023C437.023 359.717 436.212 360.16 435.326 360.255C434.44 360.35 433.552 360.09 432.858 359.531L257.812 218.488C248.305 210.828 242.23 199.704 240.924 187.565C239.619 175.426 243.188 163.265 250.849 153.758C258.509 144.251 269.632 138.177 281.772 136.871C293.911 135.565 306.071 139.135 315.579 146.795L490.625 287.838C490.969 288.115 491.255 288.457 491.466 288.844C491.678 289.232 491.811 289.657 491.859 290.096C491.906 290.535 491.866 290.979 491.742 291.402C491.618 291.826 491.411 292.221 491.134 292.564C490.857 292.908 490.515 293.194 490.128 293.405C489.741 293.617 489.315 293.75 488.876 293.797C488.437 293.844 487.993 293.804 487.57 293.68C487.146 293.555 486.752 293.349 486.408 293.071L311.362 152.028C307.342 148.786 302.723 146.369 297.768 144.912C292.814 143.456 287.621 142.991 282.486 143.542C277.351 144.093 272.376 145.651 267.843 148.126C263.31 150.6 259.31 153.944 256.07 157.965C252.83 161.986 250.414 166.607 248.959 171.562C247.505 176.517 247.042 181.71 247.595 186.844C248.148 191.979 249.708 196.954 252.184 201.486C254.661 206.017 258.006 210.016 262.029 213.255L437.075 354.298C437.768 354.858 438.211 355.669 438.307 356.555C438.402 357.441 438.142 358.329 437.583 359.023Z" fill="#CCCCCC"/>
<path d="M475.14 303.843L291.983 156.264C291.914 156.208 291.857 156.14 291.815 156.063C291.772 155.985 291.746 155.9 291.736 155.812C291.727 155.725 291.735 155.636 291.76 155.551C291.785 155.466 291.826 155.387 291.881 155.319C291.937 155.25 292.005 155.193 292.082 155.151C292.16 155.108 292.245 155.082 292.333 155.072C292.42 155.063 292.509 155.071 292.594 155.096C292.678 155.12 292.757 155.162 292.826 155.217L475.983 302.796C476.052 302.851 476.11 302.92 476.152 302.997C476.194 303.075 476.221 303.16 476.231 303.247C476.24 303.335 476.232 303.424 476.207 303.509C476.183 303.594 476.141 303.673 476.086 303.741C476.03 303.81 475.962 303.867 475.884 303.91C475.807 303.952 475.722 303.979 475.634 303.988C475.546 303.997 475.457 303.989 475.373 303.964C475.288 303.939 475.209 303.898 475.14 303.843V303.843Z" fill="#CCCCCC"/>
<path d="M465.02 316.402L281.863 168.823C281.725 168.711 281.636 168.548 281.617 168.371C281.598 168.194 281.65 168.017 281.762 167.878C281.874 167.74 282.036 167.651 282.213 167.632C282.39 167.613 282.568 167.665 282.706 167.776L465.864 315.355C465.933 315.41 465.99 315.479 466.032 315.556C466.075 315.634 466.101 315.719 466.111 315.806C466.12 315.894 466.112 315.983 466.088 316.068C466.063 316.153 466.021 316.232 465.966 316.3C465.911 316.369 465.842 316.426 465.765 316.469C465.687 316.511 465.602 316.538 465.514 316.547C465.426 316.556 465.337 316.548 465.253 316.523C465.168 316.498 465.089 316.457 465.02 316.402Z" fill="#CCCCCC"/>
<path d="M454.901 328.961L271.744 181.382C271.605 181.27 271.516 181.108 271.497 180.93C271.478 180.753 271.53 180.576 271.642 180.437C271.754 180.298 271.916 180.209 272.093 180.19C272.271 180.171 272.448 180.223 272.587 180.335L455.744 327.914C455.813 327.97 455.87 328.038 455.912 328.115C455.955 328.193 455.981 328.278 455.991 328.366C456 328.453 455.992 328.542 455.967 328.627C455.943 328.711 455.901 328.79 455.846 328.859C455.79 328.928 455.722 328.985 455.645 329.027C455.567 329.07 455.482 329.096 455.394 329.106C455.307 329.115 455.218 329.107 455.133 329.082C455.049 329.057 454.97 329.016 454.901 328.961V328.961Z" fill="#CCCCCC"/>
<path d="M444.782 341.52L261.624 193.941C261.556 193.886 261.499 193.818 261.456 193.74C261.414 193.663 261.387 193.578 261.378 193.49C261.368 193.402 261.376 193.314 261.401 193.229C261.426 193.144 261.467 193.065 261.523 192.996C261.578 192.928 261.647 192.871 261.724 192.828C261.801 192.786 261.886 192.759 261.974 192.75C262.062 192.741 262.151 192.748 262.235 192.773C262.32 192.798 262.399 192.839 262.468 192.895L445.625 340.474C445.694 340.529 445.751 340.597 445.794 340.675C445.836 340.752 445.863 340.837 445.872 340.925C445.882 341.013 445.874 341.102 445.849 341.187C445.824 341.271 445.783 341.35 445.727 341.419C445.672 341.488 445.604 341.545 445.526 341.587C445.448 341.63 445.363 341.656 445.276 341.666C445.188 341.675 445.099 341.667 445.014 341.642C444.929 341.617 444.85 341.576 444.782 341.52Z" fill="#CCCCCC"/>
<path d="M499.328 362.423H0.672043C0.493806 362.423 0.322869 362.352 0.196836 362.226C0.0708038 362.1 0 361.929 0 361.751C0 361.573 0.0708038 361.402 0.196836 361.276C0.322869 361.15 0.493806 361.079 0.672043 361.079H499.328C499.506 361.079 499.677 361.15 499.803 361.276C499.929 361.402 500 361.573 500 361.751C500 361.929 499.929 362.1 499.803 362.226C499.677 362.352 499.506 362.423 499.328 362.423Z" fill="#CCCCCC"/>
<path d="M227.205 262.515L219.522 262.514L215.868 232.88L227.208 232.881L227.205 262.515Z" fill="#FFB8B8"/>
<path d="M214.034 260.319H228.851V269.649H204.705C204.705 268.423 204.946 267.21 205.415 266.078C205.884 264.947 206.571 263.918 207.438 263.052C208.304 262.185 209.332 261.498 210.464 261.029C211.596 260.561 212.809 260.319 214.034 260.319Z" fill="#2F2E41"/>
<path d="M148.714 262.515L141.031 262.514L137.377 232.88L148.716 232.881L148.714 262.515Z" fill="#FFB8B8"/>
<path d="M135.543 260.319H150.36V269.649H126.214C126.214 268.423 126.455 267.21 126.924 266.078C127.393 264.947 128.08 263.918 128.946 263.052C129.813 262.185 130.841 261.498 131.973 261.029C133.105 260.561 134.318 260.319 135.543 260.319Z" fill="#2F2E41"/>
<path d="M174.376 42.6967V39.3365C174.376 33.5883 176.659 28.0756 180.724 24.0111C184.789 19.9465 190.301 17.6631 196.049 17.6631H196.049C201.798 17.6631 207.31 19.9465 211.375 24.0111C215.439 28.0756 217.723 33.5883 217.723 39.3365V42.6967C217.723 46.8407 216.077 50.815 213.146 53.7453C210.216 56.6755 206.242 58.3217 202.098 58.3217H190.001C187.949 58.3217 185.917 57.9176 184.022 57.1324C182.126 56.3471 180.403 55.1962 178.952 53.7453C177.502 52.2944 176.351 50.5719 175.565 48.6762C174.78 46.7805 174.376 44.7486 174.376 42.6967Z" fill="#2F2E41"/>
<path d="M196.049 59.478C205.165 59.478 212.555 52.0879 212.555 42.9719C212.555 33.8558 205.165 26.4658 196.049 26.4658C186.933 26.4658 179.543 33.8558 179.543 42.9719C179.543 52.0879 186.933 59.478 196.049 59.478Z" fill="#FFB8B8"/>
<path d="M106.267 99.7013C106.937 99.0688 107.737 98.5909 108.612 98.3012C109.486 98.0114 110.413 97.917 111.328 98.0245C112.243 98.132 113.124 98.4387 113.907 98.9232C114.691 99.4077 115.359 100.058 115.864 100.829L130.013 98.1521L133.737 106.354L113.702 109.853C112.351 110.616 110.768 110.856 109.252 110.53C107.735 110.203 106.392 109.331 105.475 108.08C104.559 106.828 104.133 105.284 104.279 103.74C104.425 102.196 105.132 100.759 106.267 99.7013V99.7013Z" fill="#FFB8B8"/>
<path d="M183.18 69.8726L183.365 70.153L160.162 85.4382L121.01 97.9404C120.491 98.1072 120.046 98.4486 119.751 98.9067C119.455 99.3648 119.327 99.9111 119.389 100.453L120.243 107.809C120.281 108.135 120.387 108.449 120.553 108.731C120.72 109.014 120.943 109.258 121.209 109.449C121.476 109.64 121.779 109.774 122.1 109.84C122.421 109.907 122.752 109.906 123.073 109.838L159.921 101.939C161.704 101.559 163.39 100.817 164.875 99.7584L190.942 81.2121C191.887 80.5361 192.641 79.627 193.131 78.5733C193.62 77.5197 193.829 76.3572 193.736 75.199C193.641 74.0392 193.245 72.9242 192.588 71.9638C191.931 71.0034 191.035 70.2307 189.988 69.7215C188.942 69.2124 187.781 68.9844 186.62 69.0601C185.458 69.1357 184.337 69.5124 183.365 70.153L183.18 69.8726Z" fill="#CCCCCC"/>
<path d="M219.659 254.106C219.07 254.106 218.493 253.934 217.999 253.612C217.505 253.289 217.116 252.83 216.879 252.29L181.657 165.26C181.575 165.071 181.437 164.912 181.261 164.804C181.086 164.696 180.882 164.645 180.676 164.656C180.471 164.668 180.274 164.742 180.112 164.869C179.949 164.996 179.83 165.17 179.77 165.366L151.034 250.093C150.913 250.488 150.712 250.853 150.444 251.167C150.177 251.481 149.848 251.737 149.477 251.919C149.107 252.101 148.704 252.205 148.292 252.225C147.88 252.245 147.468 252.181 147.081 252.036L137.445 248.423C136.922 248.228 136.464 247.893 136.12 247.453C135.776 247.014 135.561 246.488 135.499 245.933C131.164 208.169 168.966 112.849 169.349 111.89L169.455 111.625L203.915 119.248L203.987 119.326C217.735 134.324 229.036 228.924 231.162 247.736C231.241 248.415 231.087 249.101 230.724 249.681C230.361 250.261 229.811 250.7 229.165 250.926L220.66 253.934C220.338 254.048 220 254.106 219.659 254.106Z" fill="#2F2E41"/>
<path d="M189.968 122.316C181.619 122.316 172.311 120.651 169.445 113.78L169.379 113.622L169.469 113.476C171.73 109.765 174.719 103.435 173.113 102.247C169.948 99.9071 168.412 96.0576 168.548 90.8054C168.844 79.4036 176.613 69.2806 187.88 65.6156H187.88C191.025 64.6091 194.226 63.7851 197.466 63.1476C199.828 62.671 202.266 62.7234 204.605 63.3011C206.945 63.8788 209.127 64.9674 210.996 66.4888C212.888 68.0201 214.417 69.9515 215.474 72.1442C216.531 74.3369 217.089 76.7365 217.109 79.1706C217.227 91.3553 215.351 108.326 205.743 119.977C205.293 120.518 204.666 120.882 203.973 121.006C199.351 121.842 194.665 122.28 189.968 122.316Z" fill="#CCCCCC"/>
<path d="M186.862 121.86C187.316 120.23 188.396 118.845 189.865 118.006C191.335 117.168 193.076 116.943 194.71 117.381C195.044 117.474 195.369 117.595 195.683 117.741L206.427 107.964L213.899 112.998L198.535 126.594C197.841 127.845 196.749 128.827 195.432 129.386C194.115 129.945 192.649 130.047 191.268 129.676C190.463 129.456 189.71 129.078 189.052 128.565C188.394 128.052 187.844 127.414 187.435 126.687C187.025 125.96 186.763 125.159 186.665 124.33C186.567 123.502 186.634 122.662 186.862 121.86Z" fill="#FFB8B8"/>
<path d="M204.725 121.984C204.028 121.984 203.353 121.743 202.813 121.301L198.576 117.839C198.223 117.55 197.94 117.186 197.748 116.772C197.555 116.358 197.459 115.907 197.466 115.451C197.473 114.995 197.583 114.546 197.788 114.139C197.993 113.731 198.288 113.375 198.65 113.098L216.42 99.4689C216.63 99.3065 216.768 99.0677 216.804 98.8041C216.84 98.5406 216.77 98.2736 216.61 98.0611L205.642 83.561C204.368 81.8819 203.729 79.8062 203.838 77.7012C203.947 75.5962 204.797 73.5977 206.239 72.0595C207.756 70.4203 209.835 69.4115 212.062 69.2334C214.288 69.0553 216.501 69.7209 218.26 71.098L218.329 71.1712L229.782 87.5706C231.021 88.5416 232.018 89.7858 232.696 91.206C233.374 92.6262 233.715 94.1839 233.691 95.7575C233.668 97.3311 233.281 98.8779 232.561 100.277C231.841 101.677 230.807 102.891 229.54 103.824L206.526 121.391C206.004 121.776 205.373 121.984 204.725 121.984Z" fill="#CCCCCC"/>
<path d="M181.429 38.3289V30.1393L196.049 23.7549L209.991 30.1393V38.3289C209.991 38.6854 209.849 39.0273 209.597 39.2793C209.345 39.5314 209.003 39.673 208.646 39.673H182.773C182.416 39.673 182.074 39.5314 181.822 39.2793C181.57 39.0273 181.429 38.6854 181.429 38.3289Z" fill="#2F2E41"/>
<path d="M195.378 18.7497C193.228 11.869 197.743 3.98339 204.417 1.25982C211.092 -1.46375 219.077 0.440108 224.709 4.93985C230.34 9.4396 233.835 16.1794 235.686 23.1463C237.538 30.1132 237.889 37.378 238.231 44.5786C246.431 46.085 252.01 55.8114 249.169 63.6501C246.328 71.4888 235.814 75.3832 228.552 71.2861C221.291 67.189 219.187 56.1754 224.428 49.6908C226.908 46.6225 228.293 42.8145 228.364 38.87C228.436 34.9254 227.189 31.0699 224.822 27.914C222.454 24.7581 219.102 22.4822 215.295 21.4468C211.488 20.4114 207.444 20.6756 203.805 22.1977C199.763 23.8879 194.692 19.4966 195.378 18.7497Z" fill="#2F2E41"/>
<path d="M103.235 67.9322C93.417 67.8677 83.7216 65.7443 74.7754 61.6991C74.2428 61.4617 73.7908 61.0746 73.4744 60.5849C73.1579 60.0952 72.9907 59.524 72.9932 58.941V34.4666C72.9941 33.6648 73.313 32.8961 73.8799 32.3291C74.4469 31.7622 75.2156 31.4433 76.0174 31.4424H130.453C131.255 31.4433 132.023 31.7622 132.59 32.3291C133.157 32.8961 133.476 33.6648 133.477 34.4666V58.941C133.479 59.5241 133.312 60.0952 132.996 60.5849C132.679 61.0746 132.227 61.4618 131.695 61.6991C122.749 65.7443 113.053 67.8678 103.235 67.9322Z" fill="#0080F6"/>
<path d="M103.228 48.1044C102.824 48.1048 102.424 48.0244 102.052 47.8681L58.8857 29.656C58.329 29.4212 57.8555 29.025 57.5261 28.5185C57.1967 28.0121 57.0265 27.4185 57.0376 26.8144C57.0487 26.2104 57.2405 25.6235 57.5882 25.1294C57.9359 24.6353 58.4237 24.2567 58.9886 24.0425L102.156 7.6663C102.851 7.40133 103.62 7.40296 104.314 7.67089L146.903 24.047C147.464 24.263 147.949 24.6417 148.294 25.1346C148.639 25.6275 148.83 26.2122 148.841 26.8139C148.852 27.4156 148.683 28.0069 148.357 28.5122C148.03 29.0175 147.56 29.4138 147.006 29.6505L104.417 47.8622C104.041 48.0224 103.636 48.1048 103.228 48.1044Z" fill="#0080F6"/>
<path d="M78.0332 63.3643C80.2602 63.3643 82.0655 61.559 82.0655 59.3321C82.0655 57.1051 80.2602 55.2998 78.0332 55.2998C75.8063 55.2998 74.001 57.1051 74.001 59.3321C74.001 61.559 75.8063 63.3643 78.0332 63.3643Z" fill="#3F3D56"/>
<path opacity="0.2" d="M147.154 27.0659L104.564 45.2777C104.232 45.4197 103.875 45.4933 103.514 45.4942C103.153 45.495 102.795 45.4231 102.463 45.2828L59.2959 27.0712C58.7538 26.848 58.3016 26.4504 58.0106 25.9414C57.8202 26.2715 57.7023 26.6383 57.6646 27.0174C57.6268 27.3965 57.6702 27.7794 57.7918 28.1405C57.9133 28.5015 58.1103 28.8326 58.3697 29.1118C58.629 29.3909 58.9447 29.6116 59.2959 29.7594L102.463 47.971C102.795 48.1113 103.153 48.1832 103.514 48.1823C103.875 48.1815 104.232 48.1078 104.564 47.9659L147.154 29.7541C147.503 29.605 147.817 29.3836 148.075 29.1043C148.332 28.8251 148.527 28.4944 148.648 28.1341C148.768 27.7737 148.811 27.392 148.773 27.014C148.734 26.6361 148.617 26.2705 148.427 25.9414C148.138 26.4463 147.69 26.8416 147.154 27.0659Z" fill="black"/>
<path d="M78.3722 59.3156C78.5505 59.3156 78.7214 59.2448 78.8475 59.1188C78.9735 58.9928 79.0443 58.8218 79.0443 58.6436V36.1561L101.209 28.0814C101.387 28.084 101.559 28.0158 101.687 27.8916C101.815 27.7675 101.888 27.5976 101.891 27.4194C101.894 27.2411 101.826 27.0691 101.701 26.9412C101.577 26.8133 101.407 26.74 101.229 26.7373L79.0643 34.812C78.8859 34.8079 78.7086 34.84 78.543 34.9065C78.3774 34.9729 78.2271 35.0723 78.101 35.1986C77.9736 35.3233 77.8725 35.4723 77.8037 35.6367C77.7348 35.8012 77.6997 35.9778 77.7002 36.1561V58.6436C77.7002 58.8218 77.771 58.9928 77.897 59.1188C78.0231 59.2448 78.194 59.3156 78.3722 59.3156Z" fill="#3F3D56"/>
</g>
<defs>
<clipPath id="clip0">
<rect width="500" height="362.423" fill="white"/>
</clipPath>
</defs>
</svg>
