<svg width="500" height="362" viewBox="0 0 500 362" fill="none" xmlns="http://www.w3.org/2000/svg">
<g clip-path="url(#clip0)">
<path d="M499.277 358.413H0.722543C0.530913 358.413 0.347131 358.337 0.211627 358.201C0.0761243 358.066 0 357.882 0 357.69C0 357.499 0.0761243 357.315 0.211627 357.179C0.347131 357.044 0.530913 356.968 0.722543 356.968H499.277C499.469 356.968 499.653 357.044 499.788 357.179C499.924 357.315 500 357.499 500 357.69C500 357.882 499.924 358.066 499.788 358.201C499.653 358.337 499.469 358.413 499.277 358.413Z" fill="#CCCCCC"/>
<path d="M449.931 232.399H156.578C155.333 232.399 154.138 232.894 153.257 233.775C152.377 234.656 151.882 235.85 151.882 237.096C151.882 238.342 152.377 239.536 153.257 240.417C154.138 241.298 155.333 241.792 156.578 241.792H164.888V354.148C164.888 355.394 165.382 356.588 166.263 357.469C167.144 358.35 168.339 358.845 169.584 358.845C170.83 358.845 172.024 358.35 172.905 357.469C173.786 356.588 174.281 355.394 174.281 354.148L174.352 241.792H431.506V354.148C431.506 355.394 432.001 356.588 432.882 357.469C433.762 358.35 434.957 358.845 436.203 358.845C437.448 358.845 438.643 358.35 439.524 357.469C440.404 356.588 440.899 355.394 440.899 354.148V244.269L442.266 241.792H449.931C451.177 241.792 452.371 241.298 453.252 240.417C454.133 239.536 454.628 238.342 454.628 237.096C454.628 235.85 454.133 234.656 453.252 233.775C452.371 232.894 451.177 232.399 449.931 232.399Z" fill="#CCCCCC"/>
<path d="M319.216 234.857H230.356C228.635 234.855 226.986 234.171 225.769 232.954C224.553 231.738 223.868 230.088 223.866 228.368V179.445C223.868 177.724 224.553 176.075 225.769 174.858C226.986 173.641 228.635 172.957 230.356 172.955H319.216C320.936 172.957 322.586 173.641 323.802 174.858C325.019 176.075 325.703 177.724 325.705 179.445V228.368C325.703 230.088 325.019 231.738 323.802 232.954C322.586 234.171 320.936 234.855 319.216 234.857Z" fill="#3F3D56"/>
<path d="M319.215 177.95H230.356C229.959 177.951 229.58 178.109 229.299 178.389C229.019 178.67 228.861 179.049 228.86 179.446V228.369C228.861 228.766 229.019 229.146 229.299 229.426C229.58 229.706 229.959 229.864 230.356 229.865H319.215C319.611 229.864 319.991 229.706 320.271 229.426C320.552 229.146 320.709 228.766 320.71 228.369V179.446C320.709 179.049 320.552 178.67 320.271 178.389C319.991 178.109 319.611 177.951 319.215 177.95Z" fill="white"/>
<path d="M282.364 212.587C282.364 212.587 271.727 210.136 265.876 214.63C260.025 219.124 273.322 229.337 273.322 229.337L282.364 212.587Z" fill="#2F2E41"/>
<path d="M275.306 207.957C280.848 207.957 285.34 203.464 285.34 197.923C285.34 192.381 280.848 187.889 275.306 187.889C269.765 187.889 265.272 192.381 265.272 197.923C265.272 203.464 269.765 207.957 275.306 207.957Z" fill="#A0616A"/>
<path d="M267.547 183.837C268.216 182.701 269.186 181.773 270.35 181.153C271.514 180.534 272.826 180.249 274.142 180.329C275.518 180.501 276.861 180.877 278.127 181.444L284.686 184.003C286.384 184.665 288.243 185.476 288.979 187.142C289.663 188.689 289.153 190.475 288.636 192.085L286.182 199.739C285.91 198.007 285.444 196.311 284.791 194.683C284.128 193.045 282.93 191.679 281.392 190.808C279.689 189.934 277.68 189.952 275.768 190.044C273.059 190.174 270.113 190.519 268.189 192.429C267.167 193.515 266.474 194.867 266.191 196.331C265.912 197.786 265.772 199.265 265.772 200.747C264.661 198.837 263.726 196.831 262.976 194.753C262.36 193.205 262.009 191.565 261.938 189.901C261.873 188.223 262.43 186.58 263.502 185.286C264.046 184.654 264.755 184.187 265.551 183.936C266.346 183.686 267.196 183.663 268.003 183.869L267.547 183.837Z" fill="#2F2E41"/>
<path d="M299.265 221.288C299.171 220.949 298.979 220.646 298.713 220.415C298.447 220.185 298.119 220.039 297.77 219.995C297.746 219.979 297.722 219.964 297.697 219.951L282.718 211.557C282.29 211.317 281.787 211.251 281.312 211.374C280.837 211.496 280.427 211.796 280.169 212.213L276.072 218.846L269.901 212.675L269.803 212.577C269.486 212.261 269.068 212.066 268.622 212.027C268.176 211.988 267.73 212.107 267.364 212.364L255.053 220.985C255.031 220.985 255.009 220.992 254.988 220.992C254.399 221.09 253.861 221.386 253.462 221.832C253.064 222.277 252.83 222.845 252.798 223.441L252.48 229.865H301.642L299.265 221.288Z" fill="#0080F6"/>
<path d="M326.704 228.868H317.219C317.219 228.603 317.113 228.349 316.926 228.162C316.739 227.974 316.485 227.869 316.22 227.869H313.225C312.96 227.869 312.706 227.974 312.519 228.162C312.332 228.349 312.226 228.603 312.226 228.868H309.231C309.231 228.603 309.126 228.349 308.939 228.162C308.752 227.974 308.498 227.869 308.233 227.869H305.238C304.973 227.869 304.719 227.974 304.532 228.162C304.344 228.349 304.239 228.603 304.239 228.868H301.244C301.244 228.603 301.139 228.349 300.951 228.162C300.764 227.974 300.51 227.869 300.245 227.869H297.25C296.985 227.869 296.731 227.974 296.544 228.162C296.357 228.349 296.252 228.603 296.252 228.868H293.256C293.256 228.603 293.151 228.349 292.964 228.162C292.777 227.974 292.523 227.869 292.258 227.869H289.263C288.998 227.869 288.744 227.974 288.557 228.162C288.37 228.349 288.264 228.603 288.264 228.868H285.269C285.269 228.603 285.164 228.349 284.977 228.162C284.789 227.974 284.535 227.869 284.271 227.869H281.275C281.011 227.869 280.757 227.974 280.569 228.162C280.382 228.349 280.277 228.603 280.277 228.868H277.282C277.282 228.603 277.176 228.349 276.989 228.162C276.802 227.974 276.548 227.869 276.283 227.869H273.288C273.023 227.869 272.769 227.974 272.582 228.162C272.395 228.349 272.29 228.603 272.29 228.868H269.294C269.294 228.603 269.189 228.349 269.002 228.162C268.815 227.974 268.561 227.869 268.296 227.869H265.301C265.036 227.869 264.782 227.974 264.595 228.162C264.407 228.349 264.302 228.603 264.302 228.868H261.307C261.307 228.603 261.202 228.349 261.014 228.162C260.827 227.974 260.573 227.869 260.308 227.869H257.313C257.048 227.869 256.794 227.974 256.607 228.162C256.42 228.349 256.315 228.603 256.315 228.868H253.319C253.319 228.603 253.214 228.349 253.027 228.162C252.84 227.974 252.586 227.869 252.321 227.869H249.326C249.061 227.869 248.807 227.974 248.62 228.162C248.433 228.349 248.327 228.603 248.327 228.868H245.332C245.332 228.603 245.227 228.349 245.04 228.162C244.852 227.974 244.598 227.869 244.334 227.869H241.338C241.074 227.869 240.82 227.974 240.632 228.162C240.445 228.349 240.34 228.603 240.34 228.868H237.345C237.345 228.603 237.24 228.349 237.052 228.162C236.865 227.974 236.611 227.869 236.346 227.869H233.351C233.086 227.869 232.832 227.974 232.645 228.162C232.458 228.349 232.353 228.603 232.353 228.868H222.868C222.074 228.869 221.313 229.185 220.753 229.747C220.192 230.308 219.877 231.069 219.877 231.863C219.877 232.656 220.192 233.418 220.753 233.979C221.313 234.541 222.074 234.857 222.868 234.858H326.704C327.498 234.858 328.26 234.543 328.822 233.981C329.383 233.419 329.699 232.657 329.699 231.863C329.699 231.068 329.383 230.307 328.822 229.745C328.26 229.183 327.498 228.868 326.704 228.868Z" fill="#3F3D56"/>
<path d="M207.427 211.473V231.361H157.599C156.264 231.408 154.933 231.185 153.686 230.706C152.439 230.227 151.301 229.502 150.341 228.574C149.38 227.646 148.616 226.534 148.094 225.305C147.572 224.075 147.303 222.753 147.303 221.417C147.303 220.081 147.572 218.759 148.094 217.529C148.616 216.3 149.38 215.188 150.341 214.26C151.301 213.332 152.439 212.607 153.686 212.128C154.933 211.649 156.264 211.426 157.599 211.473H207.427Z" fill="#F2F2F2"/>
<path d="M208.651 231.208C208.651 231.411 208.57 231.606 208.427 231.749C208.283 231.892 208.089 231.973 207.886 231.973H156.711C153.932 231.973 151.266 230.869 149.301 228.904C147.336 226.938 146.231 224.273 146.231 221.493C146.231 218.714 147.336 216.048 149.301 214.083C151.266 212.118 153.932 211.014 156.711 211.014H207.886C208.089 211.014 208.283 211.094 208.427 211.238C208.57 211.381 208.651 211.576 208.651 211.779C208.651 211.981 208.57 212.176 208.427 212.32C208.283 212.463 208.089 212.544 207.886 212.544H156.711C154.339 212.546 152.065 213.49 150.388 215.168C148.711 216.846 147.769 219.121 147.769 221.493C147.769 223.866 148.711 226.141 150.388 227.819C152.065 229.497 154.339 230.441 156.711 230.443H207.886C208.089 230.443 208.283 230.524 208.427 230.667C208.57 230.811 208.651 231.005 208.651 231.208Z" fill="#0080F6"/>
<path d="M207.428 216.063H153.882C153.861 216.063 153.841 216.059 153.823 216.051C153.804 216.044 153.787 216.033 153.773 216.018C153.758 216.004 153.747 215.987 153.739 215.969C153.732 215.95 153.728 215.93 153.728 215.91C153.728 215.89 153.732 215.87 153.739 215.851C153.747 215.832 153.758 215.816 153.773 215.801C153.787 215.787 153.804 215.776 153.823 215.768C153.841 215.761 153.861 215.757 153.882 215.757H207.428C207.468 215.757 207.507 215.773 207.535 215.802C207.564 215.831 207.58 215.869 207.58 215.91C207.58 215.95 207.564 215.989 207.535 216.018C207.507 216.046 207.468 216.063 207.428 216.063Z" fill="#CCCCCC"/>
<path d="M207.428 219.734H153.882C153.861 219.734 153.841 219.73 153.823 219.722C153.804 219.715 153.787 219.703 153.773 219.689C153.758 219.675 153.747 219.658 153.739 219.639C153.732 219.621 153.728 219.601 153.728 219.581C153.728 219.561 153.732 219.541 153.739 219.522C153.747 219.503 153.758 219.486 153.773 219.472C153.787 219.458 153.804 219.447 153.823 219.439C153.841 219.431 153.861 219.428 153.882 219.428H207.428C207.468 219.428 207.507 219.444 207.535 219.473C207.564 219.502 207.58 219.54 207.58 219.581C207.58 219.621 207.564 219.66 207.535 219.689C207.507 219.717 207.468 219.733 207.428 219.734Z" fill="#CCCCCC"/>
<path d="M207.428 223.406H153.882C153.861 223.406 153.841 223.402 153.823 223.394C153.804 223.387 153.787 223.375 153.773 223.361C153.758 223.347 153.747 223.33 153.739 223.311C153.732 223.293 153.728 223.273 153.728 223.253C153.728 223.232 153.732 223.212 153.739 223.194C153.747 223.175 153.758 223.158 153.773 223.144C153.787 223.13 153.804 223.119 153.823 223.111C153.841 223.103 153.861 223.099 153.882 223.1H207.428C207.468 223.1 207.507 223.116 207.535 223.145C207.564 223.173 207.58 223.212 207.58 223.253C207.58 223.293 207.564 223.332 207.535 223.36C207.507 223.389 207.468 223.405 207.428 223.406Z" fill="#CCCCCC"/>
<path d="M207.428 227.077H153.882C153.861 227.078 153.841 227.074 153.823 227.066C153.804 227.059 153.787 227.047 153.773 227.033C153.758 227.019 153.747 227.002 153.739 226.983C153.732 226.965 153.728 226.945 153.728 226.924C153.728 226.904 153.732 226.884 153.739 226.866C153.747 226.847 153.758 226.83 153.773 226.816C153.787 226.802 153.804 226.79 153.823 226.783C153.841 226.775 153.861 226.771 153.882 226.771H207.428C207.468 226.772 207.507 226.788 207.535 226.817C207.564 226.845 207.58 226.884 207.58 226.924C207.58 226.965 207.564 227.004 207.535 227.032C207.507 227.061 207.468 227.077 207.428 227.077Z" fill="#CCCCCC"/>
<path d="M198.034 190.519V210.407H148.206C146.871 210.454 145.54 210.231 144.293 209.752C143.046 209.273 141.908 208.548 140.947 207.62C139.986 206.692 139.222 205.58 138.7 204.351C138.178 203.121 137.909 201.799 137.909 200.463C137.909 199.127 138.178 197.805 138.7 196.575C139.222 195.346 139.986 194.234 140.947 193.306C141.908 192.378 143.046 191.653 144.293 191.174C145.54 190.695 146.871 190.472 148.206 190.519H198.034Z" fill="#F2F2F2"/>
<path d="M199.258 210.255C199.258 210.458 199.178 210.652 199.034 210.796C198.891 210.939 198.696 211.02 198.493 211.02H147.319C145.942 211.02 144.58 210.749 143.308 210.222C142.037 209.696 140.881 208.924 139.908 207.951C138.935 206.977 138.163 205.822 137.637 204.551C137.11 203.279 136.839 201.916 136.839 200.54C136.839 199.164 137.11 197.801 137.637 196.53C138.163 195.258 138.935 194.103 139.908 193.13C140.881 192.157 142.037 191.385 143.308 190.858C144.58 190.332 145.942 190.061 147.319 190.061H198.493C198.696 190.061 198.891 190.141 199.034 190.285C199.178 190.428 199.258 190.623 199.258 190.825C199.258 191.028 199.178 191.223 199.034 191.366C198.891 191.51 198.696 191.59 198.493 191.59H147.319C144.946 191.593 142.672 192.536 140.995 194.215C139.319 195.893 138.377 198.168 138.377 200.54C138.377 202.913 139.319 205.188 140.995 206.866C142.672 208.544 144.946 209.488 147.319 209.49H198.493C198.696 209.49 198.891 209.571 199.034 209.714C199.178 209.858 199.258 210.052 199.258 210.255Z" fill="#3F3D56"/>
<path d="M198.034 195.109H144.488C144.468 195.109 144.448 195.105 144.429 195.097C144.41 195.09 144.393 195.079 144.379 195.064C144.365 195.05 144.353 195.033 144.346 195.015C144.338 194.996 144.334 194.976 144.334 194.956C144.334 194.936 144.338 194.916 144.346 194.897C144.353 194.878 144.365 194.861 144.379 194.847C144.393 194.833 144.41 194.822 144.429 194.814C144.448 194.806 144.468 194.803 144.488 194.803H198.034C198.074 194.803 198.113 194.819 198.142 194.848C198.17 194.877 198.186 194.915 198.186 194.956C198.186 194.996 198.17 195.035 198.142 195.064C198.113 195.092 198.074 195.108 198.034 195.109Z" fill="#CCCCCC"/>
<path d="M198.034 198.781H144.488C144.468 198.781 144.448 198.777 144.429 198.769C144.41 198.762 144.393 198.75 144.379 198.736C144.365 198.722 144.353 198.705 144.346 198.686C144.338 198.668 144.334 198.648 144.334 198.628C144.334 198.607 144.338 198.587 144.346 198.569C144.353 198.55 144.365 198.533 144.379 198.519C144.393 198.505 144.41 198.494 144.429 198.486C144.448 198.478 144.468 198.474 144.488 198.475H198.034C198.074 198.475 198.113 198.491 198.142 198.52C198.17 198.548 198.186 198.587 198.186 198.628C198.186 198.668 198.17 198.707 198.142 198.735C198.113 198.764 198.074 198.78 198.034 198.781Z" fill="#CCCCCC"/>
<path d="M198.034 202.452H144.488C144.468 202.453 144.448 202.449 144.429 202.441C144.41 202.433 144.393 202.422 144.379 202.408C144.365 202.394 144.353 202.377 144.346 202.358C144.338 202.34 144.334 202.32 144.334 202.299C144.334 202.279 144.338 202.259 144.346 202.241C144.353 202.222 144.365 202.205 144.379 202.191C144.393 202.177 144.41 202.165 144.429 202.158C144.448 202.15 144.468 202.146 144.488 202.146H198.034C198.074 202.147 198.113 202.163 198.142 202.192C198.17 202.22 198.186 202.259 198.186 202.299C198.186 202.34 198.17 202.379 198.142 202.407C198.113 202.436 198.074 202.452 198.034 202.452Z" fill="#CCCCCC"/>
<path d="M198.034 206.124H144.488C144.468 206.124 144.448 206.121 144.429 206.113C144.41 206.105 144.393 206.094 144.379 206.08C144.365 206.066 144.353 206.049 144.346 206.03C144.338 206.011 144.334 205.992 144.334 205.971C144.334 205.951 144.338 205.931 144.346 205.913C144.353 205.894 144.365 205.877 144.379 205.863C144.393 205.849 144.41 205.837 144.429 205.83C144.448 205.822 144.468 205.818 144.488 205.818H198.034C198.074 205.819 198.113 205.835 198.142 205.864C198.17 205.892 198.186 205.931 198.186 205.971C198.186 206.012 198.17 206.05 198.142 206.079C198.113 206.108 198.074 206.124 198.034 206.124Z" fill="#CCCCCC"/>
<path d="M256 302.054V284.713C256 283.947 255.695 283.212 255.153 282.67C254.611 282.128 253.876 281.823 253.109 281.823H187.358C186.591 281.823 185.856 282.128 185.314 282.67C184.772 283.212 184.468 283.947 184.468 284.713V302.054H256Z" fill="#CCCCCC"/>
<path d="M256 308.558H184.468V330.956H256V308.558Z" fill="#CCCCCC"/>
<path d="M184.468 337.459V354.8C184.468 355.567 184.772 356.302 185.314 356.844C185.856 357.386 186.591 357.69 187.358 357.69H253.109C253.876 357.69 254.611 357.386 255.153 356.844C255.695 356.302 256 355.567 256 354.8V337.459H184.468Z" fill="#CCCCCC"/>
<path d="M219.873 294.828C221.07 294.828 222.04 293.858 222.04 292.661C222.04 291.464 221.07 290.493 219.873 290.493C218.676 290.493 217.705 291.464 217.705 292.661C217.705 293.858 218.676 294.828 219.873 294.828Z" fill="white"/>
<path d="M219.873 323.731C221.07 323.731 222.04 322.76 222.04 321.563C222.04 320.366 221.07 319.396 219.873 319.396C218.676 319.396 217.705 320.366 217.705 321.563C217.705 322.76 218.676 323.731 219.873 323.731Z" fill="white"/>
<path d="M219.988 352.02C221.185 352.02 222.156 351.049 222.156 349.852C222.156 348.655 221.185 347.685 219.988 347.685C218.791 347.685 217.82 348.655 217.82 349.852C217.82 351.049 218.791 352.02 219.988 352.02Z" fill="white"/>
<path d="M247.889 262.051V281.94H198.061C196.726 281.986 195.395 281.763 194.148 281.284C192.901 280.805 191.763 280.08 190.802 279.152C189.842 278.224 189.077 277.112 188.556 275.883C188.034 274.653 187.765 273.331 187.765 271.995C187.765 270.659 188.034 269.337 188.556 268.108C189.077 266.878 189.842 265.766 190.802 264.838C191.763 263.91 192.901 263.185 194.148 262.706C195.395 262.227 196.726 262.004 198.061 262.051H247.889Z" fill="#F2F2F2"/>
<path d="M249.114 281.786C249.114 281.989 249.033 282.184 248.889 282.327C248.746 282.471 248.552 282.551 248.349 282.551H197.174C195.797 282.552 194.433 282.282 193.161 281.756C191.888 281.23 190.732 280.458 189.758 279.485C188.784 278.512 188.011 277.356 187.484 276.084C186.957 274.812 186.686 273.448 186.686 272.071C186.686 270.695 186.957 269.331 187.484 268.059C188.011 266.787 188.784 265.631 189.758 264.658C190.732 263.685 191.888 262.913 193.161 262.387C194.433 261.861 195.797 261.591 197.174 261.592H248.349C248.552 261.592 248.746 261.672 248.89 261.816C249.033 261.959 249.114 262.154 249.114 262.357C249.114 262.56 249.033 262.754 248.89 262.898C248.746 263.041 248.552 263.122 248.349 263.122H197.174C194.802 263.124 192.527 264.068 190.851 265.746C189.174 267.424 188.232 269.699 188.232 272.071C188.232 274.444 189.174 276.719 190.851 278.397C192.527 280.075 194.802 281.019 197.174 281.021H248.349C248.552 281.021 248.746 281.102 248.889 281.245C249.033 281.389 249.114 281.583 249.114 281.786Z" fill="#3F3D56"/>
<path d="M247.889 266.641H194.343C194.323 266.641 194.303 266.637 194.285 266.63C194.266 266.622 194.249 266.611 194.235 266.597C194.22 266.582 194.209 266.565 194.201 266.547C194.193 266.528 194.189 266.508 194.189 266.488C194.189 266.468 194.193 266.448 194.201 266.429C194.209 266.411 194.22 266.394 194.235 266.379C194.249 266.365 194.266 266.354 194.285 266.346C194.303 266.339 194.323 266.335 194.343 266.335H247.889C247.93 266.335 247.969 266.352 247.997 266.38C248.025 266.409 248.041 266.448 248.041 266.488C248.041 266.528 248.025 266.567 247.997 266.596C247.969 266.624 247.93 266.641 247.889 266.641Z" fill="#CCCCCC"/>
<path d="M247.889 270.312H194.343C194.323 270.312 194.303 270.308 194.285 270.301C194.266 270.293 194.249 270.282 194.235 270.267C194.22 270.253 194.209 270.236 194.201 270.218C194.193 270.199 194.189 270.179 194.189 270.159C194.189 270.139 194.193 270.119 194.201 270.1C194.209 270.081 194.22 270.064 194.235 270.05C194.249 270.036 194.266 270.025 194.285 270.017C194.303 270.01 194.323 270.006 194.343 270.006H247.889C247.93 270.006 247.969 270.022 247.997 270.051C248.025 270.08 248.041 270.118 248.041 270.159C248.041 270.199 248.025 270.238 247.997 270.267C247.969 270.295 247.93 270.312 247.889 270.312Z" fill="#CCCCCC"/>
<path d="M247.889 273.984H194.343C194.323 273.984 194.303 273.98 194.285 273.972C194.266 273.965 194.249 273.953 194.235 273.939C194.22 273.925 194.209 273.908 194.201 273.89C194.193 273.871 194.189 273.851 194.189 273.831C194.189 273.811 194.193 273.791 194.201 273.772C194.209 273.753 194.22 273.736 194.235 273.722C194.249 273.708 194.266 273.697 194.285 273.689C194.303 273.681 194.323 273.678 194.343 273.678H247.889C247.93 273.678 247.969 273.694 247.997 273.723C248.025 273.752 248.041 273.79 248.041 273.831C248.041 273.871 248.025 273.91 247.997 273.939C247.969 273.967 247.93 273.983 247.889 273.984Z" fill="#CCCCCC"/>
<path d="M247.889 277.656H194.343C194.323 277.656 194.303 277.652 194.285 277.644C194.266 277.637 194.249 277.625 194.235 277.611C194.22 277.597 194.209 277.58 194.201 277.561C194.193 277.543 194.189 277.523 194.189 277.503C194.189 277.482 194.193 277.462 194.201 277.444C194.209 277.425 194.22 277.408 194.235 277.394C194.249 277.38 194.266 277.369 194.285 277.361C194.303 277.353 194.323 277.349 194.343 277.35H247.889C247.93 277.35 247.969 277.366 247.997 277.395C248.025 277.423 248.041 277.462 248.041 277.503C248.041 277.543 248.025 277.582 247.997 277.61C247.969 277.639 247.93 277.655 247.889 277.656Z" fill="#CCCCCC"/>
<path d="M180.716 132.241V5.43457C180.717 3.99373 181.291 2.61238 182.309 1.59356C183.328 0.57474 184.71 0.0016389 186.15 0H286.388C287.829 0.00164844 289.21 0.574753 290.229 1.59357C291.248 2.61239 291.821 3.99374 291.822 5.43457V132.241C291.821 133.682 291.248 135.063 290.229 136.082C289.21 137.101 287.829 137.674 286.388 137.675H186.15C184.71 137.674 183.328 137.101 182.309 136.082C181.291 135.063 180.717 133.682 180.716 132.241ZM186.15 1.20768C185.03 1.20894 183.955 1.65467 183.163 2.4471C182.37 3.23952 181.925 4.31391 181.923 5.43457V132.241C181.925 133.362 182.37 134.436 183.163 135.228C183.955 136.021 185.03 136.467 186.15 136.468H286.388C287.508 136.467 288.583 136.021 289.375 135.228C290.168 134.436 290.613 133.362 290.615 132.241V5.43457C290.613 4.31391 290.168 3.23952 289.375 2.4471C288.583 1.65467 287.508 1.20894 286.388 1.20768H186.15Z" fill="#E6E6E6"/>
<path d="M241.89 58.2351V32.1978C241.89 31.4773 242.177 30.7866 242.686 30.2772C243.196 29.7678 243.886 29.4813 244.607 29.4805H266.671C267.392 29.4813 268.082 29.7678 268.592 30.2772C269.101 30.7866 269.388 31.4773 269.389 32.1978V58.2351C269.388 58.9555 269.101 59.6462 268.592 60.1556C268.082 60.665 267.392 60.9516 266.671 60.9524H244.607C243.886 60.9516 243.196 60.665 242.686 60.1556C242.177 59.6462 241.89 58.9555 241.89 58.2351Z" fill="#0080F6"/>
<path d="M199.018 70.3122V44.2749C199.018 43.5545 199.305 42.8638 199.814 42.3544C200.324 41.8449 201.014 41.5584 201.735 41.5576H223.799C224.52 41.5584 225.21 41.8449 225.72 42.3544C226.229 42.8638 226.516 43.5545 226.516 44.2749V70.3122C226.516 71.0327 226.229 71.7233 225.72 72.2328C225.21 72.7422 224.52 73.0287 223.799 73.0295H201.735C201.014 73.0287 200.324 72.7422 199.814 72.2327C199.305 71.7233 199.018 71.0326 199.018 70.3122Z" fill="#CCCCCC"/>
<path d="M233.437 107.146V81.1089C233.437 80.3885 233.724 79.6978 234.233 79.1883C234.743 78.6789 235.433 78.3924 236.154 78.3916H258.218C258.939 78.3924 259.629 78.6789 260.139 79.1883C260.648 79.6978 260.935 80.3885 260.935 81.1089V107.146C260.935 107.867 260.648 108.557 260.139 109.067C259.629 109.576 258.939 109.863 258.218 109.863H236.154C235.433 109.863 234.743 109.576 234.233 109.067C233.724 108.557 233.437 107.867 233.437 107.146Z" fill="#FF6584"/>
<path d="M365.292 226.188H342.589C342.374 226.187 342.161 226.237 341.968 226.332L336.238 229.201C336.05 229.281 335.889 229.415 335.776 229.585C335.663 229.756 335.603 229.957 335.603 230.162C335.603 230.366 335.663 230.567 335.776 230.738C335.889 230.909 336.05 231.042 336.238 231.123L341.968 233.991C342.161 234.086 342.374 234.136 342.589 234.136H365.292C365.605 234.154 365.912 234.048 366.147 233.841C366.383 233.634 366.527 233.343 366.549 233.03V227.293C366.527 226.98 366.383 226.689 366.147 226.482C365.912 226.275 365.605 226.169 365.292 226.188Z" fill="#3F3D56"/>
<path d="M366.549 227.293V233.03C366.527 233.343 366.382 233.634 366.147 233.841C365.912 234.048 365.604 234.154 365.291 234.136H360.769V226.188H365.291C365.604 226.169 365.912 226.275 366.147 226.482C366.382 226.689 366.527 226.98 366.549 227.293Z" fill="#0080F6"/>
<path d="M365.121 183.268C366.149 182.824 367.259 182.603 368.379 182.618C369.499 182.633 370.603 182.885 371.619 183.357C372.635 183.828 373.539 184.509 374.274 185.355C375.008 186.201 375.555 187.192 375.88 188.264C375.981 188.604 376.058 188.95 376.111 189.301L407.858 205.044L415.205 200.175L424.347 210.699L413.128 219.81C411.779 220.897 410.116 221.52 408.384 221.587C406.653 221.654 404.946 221.161 403.518 220.181L371.307 197.906C371.068 198.008 370.823 198.097 370.574 198.173C369.502 198.498 368.373 198.592 367.262 198.449C366.151 198.307 365.083 197.932 364.127 197.348C363.171 196.764 362.35 195.984 361.716 195.061C361.083 194.137 360.651 193.09 360.451 191.988C360.391 191.668 360.352 191.345 360.333 191.02C360.244 189.394 360.655 187.779 361.511 186.393C362.367 185.007 363.626 183.916 365.121 183.268Z" fill="#FFB8B8"/>
<path d="M431.243 280.196H396.554C396.554 281.193 360.803 282.003 360.803 282.003C360.242 282.425 359.73 282.91 359.278 283.448C357.92 285.067 357.178 287.115 357.183 289.228V290.673C357.184 293.068 358.135 295.365 359.829 297.059C361.523 298.752 363.819 299.704 366.214 299.705H431.243C433.638 299.703 435.934 298.751 437.627 297.057C439.321 295.364 440.273 293.068 440.275 290.673V289.228C440.272 286.834 439.319 284.538 437.626 282.845C435.933 281.152 433.638 280.2 431.243 280.196Z" fill="#3F3D56"/>
<path d="M393.51 360.04H402.903V299.346H393.51V360.04Z" fill="#3F3D56"/>
<path d="M366.775 359.71C366.775 360.725 381.009 360.102 398.567 360.102C416.125 360.102 430.359 360.725 430.359 359.71C430.359 358.695 416.125 350.646 398.567 350.646C381.009 350.646 366.775 358.695 366.775 359.71Z" fill="#3F3D56"/>
<path d="M375.255 352.596L366.397 352.595L362.183 329.62L375.256 329.621L375.255 352.596Z" fill="#FFB8B8"/>
<path d="M377.515 361.183L348.952 361.182V360.82C348.952 359.36 349.24 357.915 349.798 356.566C350.357 355.217 351.176 353.992 352.208 352.959C353.241 351.927 354.466 351.108 355.815 350.549C357.164 349.991 358.61 349.703 360.07 349.703H360.07L377.515 349.704L377.515 361.183Z" fill="#2F2E41"/>
<path d="M362.007 338.349L344.347 298.748C342.873 295.41 342.71 291.639 343.89 288.187C345.071 284.734 347.509 281.853 350.719 280.118L389.023 259.577L406.502 258.091L422.626 256.625L422.742 256.822C422.891 257.073 426.357 263.061 424.014 269.627C422.237 274.607 417.613 278.497 410.272 281.189C393.137 287.471 373.344 292.841 365.629 294.858C365.288 294.945 364.969 295.103 364.694 295.322C364.419 295.542 364.193 295.817 364.031 296.129C363.869 296.438 363.773 296.778 363.749 297.126C363.724 297.474 363.772 297.823 363.889 298.152L380.296 335.012C380.467 335.479 380.529 335.98 380.476 336.475C380.423 336.97 380.258 337.447 379.992 337.867C379.726 338.288 379.367 338.643 378.942 338.903C378.518 339.163 378.039 339.322 377.543 339.368L365.284 340.261C365.18 340.271 365.077 340.276 364.973 340.276C364.346 340.275 363.731 340.093 363.205 339.751C362.678 339.409 362.262 338.922 362.007 338.349Z" fill="#2F2E41"/>
<path d="M379.591 352.596L370.733 352.595L366.519 329.62L379.592 329.621L379.591 352.596Z" fill="#FFB8B8"/>
<path d="M381.85 361.183L353.287 361.182V360.82C353.287 359.36 353.575 357.915 354.133 356.566C354.692 355.217 355.511 353.992 356.543 352.959C357.576 351.927 358.801 351.108 360.15 350.549C361.499 349.991 362.945 349.703 364.405 349.703H364.405L381.85 349.704L381.85 361.183Z" fill="#2F2E41"/>
<path d="M367.064 340.517L349.405 300.916C347.93 297.578 347.767 293.807 348.948 290.355C350.129 286.902 352.567 284.021 355.776 282.286L394.081 261.745L411.56 260.259L427.683 258.793L427.8 258.99C427.948 259.241 431.415 265.229 429.072 271.795C427.294 276.775 422.671 280.665 415.33 283.357C398.195 289.639 378.401 295.009 370.686 297.026C370.345 297.113 370.027 297.271 369.752 297.49C369.476 297.71 369.25 297.985 369.089 298.297C368.927 298.606 368.831 298.945 368.806 299.294C368.782 299.642 368.83 299.991 368.947 300.32L385.353 337.18C385.525 337.647 385.586 338.148 385.534 338.643C385.481 339.138 385.315 339.614 385.049 340.035C384.783 340.456 384.424 340.811 384 341.071C383.575 341.331 383.097 341.49 382.601 341.536L370.342 342.429C370.238 342.439 370.134 342.444 370.031 342.444C369.403 342.443 368.789 342.261 368.262 341.919C367.736 341.577 367.32 341.09 367.064 340.517Z" fill="#2F2E41"/>
<path d="M358.262 219.541C350.841 209.67 344.974 198.722 340.866 187.076C340.628 186.379 340.645 185.621 340.914 184.935C341.183 184.25 341.686 183.682 342.334 183.333L367.728 169.727C368.139 169.505 368.595 169.38 369.062 169.361C369.528 169.342 369.993 169.43 370.42 169.618C370.855 169.807 371.242 170.093 371.55 170.454C371.858 170.815 372.08 171.242 372.198 171.701C375.154 182.924 380.71 193.292 388.416 201.969C388.734 202.322 388.966 202.743 389.096 203.2C389.226 203.656 389.25 204.137 389.167 204.604C389.086 205.064 388.902 205.499 388.628 205.877C388.354 206.255 387.997 206.566 387.585 206.785L362.191 220.391C361.541 220.738 360.79 220.842 360.07 220.687C359.351 220.531 358.71 220.125 358.262 219.541Z" fill="#CCCCCC"/>
<path d="M359.995 218.238C360.131 218.409 360.323 218.526 360.537 218.57C360.751 218.615 360.974 218.583 361.167 218.48L386.561 204.873C386.684 204.809 386.791 204.717 386.873 204.605C386.955 204.492 387.009 204.362 387.033 204.225C387.059 204.08 387.052 203.932 387.011 203.79C386.97 203.649 386.897 203.519 386.798 203.41C378.864 194.478 373.145 183.804 370.102 172.251C370.067 172.108 369.999 171.975 369.904 171.863C369.809 171.751 369.689 171.662 369.554 171.604C369.427 171.547 369.288 171.52 369.149 171.526C369.01 171.532 368.874 171.57 368.752 171.637L343.358 185.244C343.166 185.348 343.016 185.515 342.934 185.718C342.852 185.921 342.844 186.146 342.911 186.354C346.945 197.792 352.707 208.544 359.995 218.238Z" fill="white"/>
<path d="M442.625 215.911L422.737 223.468L417.881 209.981C417.237 208.19 417.246 206.228 417.907 204.444C418.568 202.659 419.839 201.165 421.495 200.227C423.171 199.277 425.13 198.958 427.02 199.327C428.91 199.696 430.606 200.729 431.801 202.239L442.625 215.911Z" fill="#0080F6"/>
<path d="M392.039 269.35C391.621 269.054 391.27 268.672 391.01 268.23C390.751 267.788 390.588 267.296 390.534 266.786C387.986 243.007 389.761 224.399 395.957 209.897C397.048 207.395 398.692 205.174 400.766 203.4C402.839 201.625 405.288 200.344 407.927 199.651L424.004 198.84L424.087 198.88C427.715 200.657 430.673 203.556 432.524 207.146C434.374 210.737 435.019 214.828 434.361 218.814C429.19 232.443 424.861 246.634 428.162 258.081C428.301 258.56 428.341 259.062 428.281 259.556C428.221 260.051 428.062 260.528 427.813 260.96C427.571 261.377 427.247 261.74 426.86 262.027C426.473 262.314 426.031 262.518 425.562 262.628L394.941 269.912C394.445 270.03 393.93 270.041 393.43 269.944C392.929 269.847 392.455 269.645 392.039 269.35Z" fill="#0080F6"/>
<path d="M418.639 192.836C428.44 192.836 436.385 184.89 436.385 175.089C436.385 165.288 428.44 157.343 418.639 157.343C408.838 157.343 400.893 165.288 400.893 175.089C400.893 184.89 408.838 192.836 418.639 192.836Z" fill="#FFB8B8"/>
<path d="M369.396 189.145L355.565 195.25C355.039 195.481 354.443 195.495 353.907 195.287C353.371 195.079 352.939 194.668 352.707 194.142L352.365 193.367C352.133 192.841 352.12 192.245 352.327 191.709C352.535 191.173 352.947 190.741 353.472 190.509L367.303 184.404C367.829 184.172 368.425 184.159 368.961 184.366C369.497 184.574 369.929 184.986 370.161 185.511L370.503 186.286C370.735 186.812 370.748 187.409 370.541 187.944C370.333 188.48 369.921 188.912 369.396 189.145Z" fill="#CCCCCC"/>
<path d="M374.453 198.538L360.623 204.643C360.097 204.875 359.5 204.888 358.964 204.681C358.428 204.473 357.997 204.061 357.764 203.536L357.422 202.761C357.191 202.235 357.177 201.638 357.385 201.102C357.593 200.567 358.004 200.135 358.53 199.902L372.36 193.797C372.886 193.566 373.483 193.552 374.019 193.76C374.555 193.968 374.986 194.379 375.219 194.905L375.561 195.68C375.792 196.206 375.806 196.802 375.598 197.338C375.391 197.874 374.979 198.305 374.453 198.538Z" fill="#CCCCCC"/>
<path d="M385.119 235.227L354.285 210.901C354.04 210.988 353.79 211.062 353.537 211.122C352.448 211.377 351.319 211.4 350.221 211.189C349.123 210.979 348.082 210.539 347.165 209.9C346.242 209.261 345.467 208.431 344.89 207.468C344.314 206.504 343.95 205.428 343.823 204.312C343.616 202.529 344.018 200.728 344.963 199.201C345.909 197.675 347.342 196.513 349.031 195.903C350.086 195.525 351.208 195.374 352.324 195.46C353.441 195.546 354.527 195.866 355.511 196.401C356.495 196.936 357.355 197.672 358.035 198.562C358.715 199.452 359.198 200.476 359.455 201.566C359.534 201.912 359.59 202.262 359.62 202.616L390.315 220.323L397.954 215.925L406.415 227.003L394.555 235.457C393.167 236.438 391.499 236.946 389.799 236.904C388.099 236.863 386.458 236.275 385.119 235.227Z" fill="#FFB8B8"/>
<path d="M410.178 230.453L392.585 218.49L400.853 206.779C401.951 205.225 403.563 204.108 405.405 203.626C407.246 203.145 409.199 203.33 410.917 204.149C412.655 204.978 414.04 206.401 414.821 208.161C415.602 209.921 415.728 211.902 415.176 213.747L410.178 230.453Z" fill="#0080F6"/>
<path d="M412.132 172.446C407.571 175.567 401.582 178.776 396.923 175.452C393.865 173.269 392.901 169.227 394.141 165.68C396.372 159.301 402.501 156.492 408.361 154.34C415.98 151.541 424.276 149.315 432.141 151.319C440.006 153.323 446.957 160.938 445.537 168.93C444.396 175.356 438.334 180.703 439.194 187.173C440.06 193.685 447.383 197.113 453.848 198.276C460.314 199.44 467.548 199.814 472.194 204.458C478.121 210.382 476.641 220.97 471.064 227.225C465.487 233.48 457.071 236.315 448.915 238.242C438.11 240.796 426.423 242.138 416.161 237.9C405.899 233.662 397.913 222.253 400.886 211.556C402.141 207.037 405.099 203.218 407.958 199.501C410.817 195.783 413.712 191.895 414.802 187.334C415.711 183.533 415.039 179.119 412.518 176.268C412.059 175.769 411.771 175.138 411.694 174.464C411.617 173.791 411.755 173.111 412.088 172.521L412.132 172.446Z" fill="#2F2E41"/>
<path d="M78.8089 258.669C74.236 260.276 69.3262 260.679 64.5525 259.838C59.7788 258.997 55.3022 256.941 51.5538 253.868C42.0075 245.855 39.0145 232.655 36.5792 220.432C34.1781 208.381 31.7771 196.33 29.376 184.279L44.4566 194.663C55.3018 202.131 66.3912 209.838 73.9003 220.654C81.4094 231.47 84.6872 246.236 78.6538 257.94" fill="#E6E6E6"/>
<path d="M77.5206 302.44C79.047 291.322 80.6165 280.061 79.5459 268.824C78.595 258.844 75.5503 249.096 69.3516 241.104C66.0614 236.87 62.0578 233.242 57.5208 230.383C56.3377 229.637 55.2488 231.512 56.4268 232.255C64.277 237.216 70.3489 244.543 73.767 253.177C77.5422 262.78 78.1484 273.247 77.4979 283.447C77.1045 289.616 76.2706 295.744 75.4304 301.864C75.3642 302.141 75.4055 302.432 75.546 302.68C75.6865 302.927 75.9158 303.112 76.1874 303.197C76.4645 303.272 76.7599 303.234 77.0095 303.093C77.2591 302.951 77.4427 302.716 77.5206 302.44H77.5206Z" fill="#F2F2F2"/>
<path d="M62.819 282.766C60.8577 285.747 58.1619 288.173 54.9911 289.809C51.8204 291.446 48.2817 292.238 44.7158 292.11C35.5517 291.675 27.9117 285.279 21.0344 279.206L0.692383 261.246L14.1554 260.602C23.8372 260.138 33.7688 259.706 42.9904 262.692C52.2119 265.678 60.7166 272.863 62.4028 282.408" fill="#E6E6E6"/>
<path d="M81.834 308.831C74.4874 295.832 65.9659 281.385 50.7395 276.767C46.5058 275.488 42.0665 275.029 37.6607 275.417C36.2721 275.536 36.6189 277.677 38.0049 277.557C45.3901 276.944 52.761 278.894 58.8767 283.079C64.7617 287.085 69.3439 292.654 73.2221 298.56C75.5977 302.177 77.7256 305.948 79.8539 309.714C80.534 310.918 82.5221 310.049 81.834 308.831Z" fill="#F2F2F2"/>
<path d="M93.6053 322.514C93.3578 319.646 92.328 316.901 90.6281 314.577C88.9282 312.254 86.6233 310.442 83.9646 309.337V301.822H71.3599V309.574C68.832 310.733 66.6565 312.54 65.0551 314.814C63.4537 317.087 62.4838 319.744 62.2442 322.514L59.2803 356.968H96.5692L93.6053 322.514Z" fill="#F2F2F2"/>
</g>
<defs>
<clipPath id="clip0">
<rect width="500" height="361.183" fill="white"/>
</clipPath>
</defs>
</svg>
