<svg width="500" height="366" viewBox="0 0 500 366" fill="none" xmlns="http://www.w3.org/2000/svg">
<g clip-path="url(#clip0)">
<path d="M500 137.112V211.609H96.3672V158.537C103.834 129.828 117.27 103.016 135.798 79.8496L417.519 34.4707C426.033 40.046 434.136 46.2242 441.767 52.9578L274.766 116.662L459.649 70.7083C467.23 79.1797 474.12 88.245 480.253 97.8172L442.521 126.029L485.153 105.852C489.098 112.658 492.662 119.678 495.827 126.88C497.305 130.248 498.696 133.659 500 137.112Z" fill="#F2F2F2"/>
<path d="M394.46 21.3721C365.536 7.26472 333.77 -0.0453511 301.589 0.000211687C236.093 0.000211687 177.535 29.699 138.642 76.362C205.244 61.7689 321.203 36.5073 394.46 21.3721Z" fill="#F2F2F2"/>
<path d="M500 139.68V268.663H99.4753C98.5302 268.115 97.7457 267.328 97.2002 266.381C96.6548 265.435 96.3675 264.361 96.3672 263.269V156.191C96.3665 152.342 97.1242 148.53 98.5969 144.974C100.07 141.417 102.229 138.186 104.95 135.464C107.672 132.742 110.904 130.583 114.46 129.111C118.016 127.638 121.828 126.88 125.677 126.881H487.201C490.595 126.881 493.851 128.23 496.251 130.63C498.651 133.03 500 136.285 500 139.68Z" fill="#2F2E41"/>
<path d="M460.403 263.221C460.403 258.094 457.801 253.938 454.592 253.938C452.575 253.938 450.799 255.58 449.757 258.073C449.405 257.927 449.027 257.851 448.646 257.85C448.141 257.871 447.647 258.002 447.198 258.234C446.748 258.465 446.355 258.791 446.044 259.19C445.105 256.082 443.113 253.938 440.808 253.938C438.653 253.938 436.773 255.814 435.77 258.598C435.213 258.128 434.51 257.864 433.781 257.85C431.318 257.85 429.322 261.04 429.322 264.975C429.311 266.286 429.55 267.588 430.024 268.811H459.231C460.025 267.055 460.425 265.147 460.403 263.221Z" fill="#3F3D56"/>
<path d="M164.491 260.662C164.491 253.323 161.89 247.374 158.68 247.374C156.663 247.374 154.887 249.725 153.845 253.293C153.51 253.089 153.126 252.979 152.734 252.974C151.763 252.974 150.865 253.687 150.132 254.892C149.193 250.444 147.202 247.374 144.896 247.374C142.741 247.374 140.861 250.059 139.858 254.045C139.624 253.733 139.324 253.476 138.981 253.291C138.638 253.107 138.258 252.998 137.869 252.974C135.406 252.974 133.41 257.54 133.41 263.172C133.396 265.025 133.633 266.872 134.112 268.663H163.319C164.125 266.073 164.52 263.373 164.491 260.662Z" fill="#3F3D56"/>
<path d="M129.578 188.618H132.558C133.912 188.622 135.21 189.161 136.167 190.119C137.124 191.076 137.664 192.373 137.668 193.727V226.086C137.668 228.457 138.61 230.731 140.287 232.408C141.963 234.085 144.238 235.027 146.609 235.027C148.98 235.027 151.255 234.085 152.931 232.408C154.608 230.731 155.55 228.457 155.55 226.086V147.744C155.554 146.39 156.094 145.093 157.051 144.135C158.008 143.178 159.306 142.638 160.659 142.634H163.64C164.994 142.638 166.291 143.178 167.248 144.135C168.206 145.093 168.745 146.39 168.749 147.744V226.086C168.749 227.26 168.98 228.423 169.43 229.508C169.879 230.592 170.538 231.578 171.368 232.408C172.198 233.239 173.184 233.897 174.269 234.347C175.353 234.796 176.516 235.027 177.69 235.027C178.865 235.027 180.027 234.796 181.112 234.347C182.197 233.897 183.182 233.239 184.013 232.408C184.843 231.578 185.502 230.592 185.951 229.508C186.4 228.423 186.632 227.26 186.632 226.086V178.399C186.636 177.045 187.175 175.748 188.132 174.791C189.09 173.834 190.387 173.294 191.741 173.29H194.721C196.075 173.294 197.372 173.834 198.33 174.791C199.287 175.748 199.827 177.045 199.831 178.399V226.086C199.831 228.457 200.773 230.731 202.449 232.408C204.126 234.085 206.4 235.027 208.772 235.027C211.143 235.027 213.417 234.085 215.094 232.408C216.771 230.731 217.713 228.457 217.713 226.086V211.61C217.717 210.256 218.257 208.958 219.214 208.001C220.171 207.044 221.468 206.504 222.822 206.5H225.803C227.157 206.504 228.454 207.044 229.411 208.001C230.368 208.958 230.908 210.256 230.912 211.61V226.086C230.912 227.26 231.143 228.423 231.593 229.508C232.042 230.592 232.701 231.578 233.531 232.408C234.361 233.239 235.347 233.897 236.432 234.347C237.516 234.796 238.679 235.027 239.853 235.027C241.027 235.027 242.19 234.796 243.275 234.347C244.36 233.897 245.345 233.239 246.176 232.408C247.006 231.578 247.664 230.592 248.114 229.508C248.563 228.423 248.794 227.26 248.794 226.086V175.419C248.798 174.065 249.338 172.768 250.295 171.81C251.253 170.853 252.55 170.314 253.904 170.31H256.884C258.238 170.314 259.535 170.853 260.493 171.81C261.45 172.768 261.989 174.065 261.993 175.419V226.086C261.993 228.457 262.935 230.732 264.612 232.408C266.289 234.085 268.563 235.027 270.935 235.027C273.306 235.027 275.58 234.085 277.257 232.408C278.934 230.732 279.876 228.457 279.876 226.086V161.794C279.88 160.44 280.419 159.143 281.377 158.186C282.334 157.228 283.631 156.689 284.985 156.685H287.965C289.319 156.689 290.617 157.228 291.574 158.186C292.531 159.143 293.071 160.44 293.075 161.794V226.086C293.075 227.26 293.306 228.423 293.755 229.508C294.205 230.592 294.863 231.578 295.694 232.408C296.524 233.239 297.51 233.897 298.594 234.347C299.679 234.796 300.842 235.027 302.016 235.027C303.19 235.027 304.353 234.796 305.438 234.347C306.522 233.897 307.508 233.239 308.338 232.408C309.169 231.578 309.827 230.592 310.277 229.508C310.726 228.423 310.957 227.26 310.957 226.086V193.727C310.961 192.373 311.501 191.076 312.458 190.119C313.415 189.161 314.713 188.622 316.067 188.618H319.047C320.401 188.622 321.698 189.161 322.655 190.119C323.613 191.076 324.152 192.373 324.156 193.727V226.086C324.156 228.457 325.098 230.731 326.775 232.408C328.452 234.085 330.726 235.027 333.097 235.027C335.469 235.027 337.743 234.085 339.42 232.408C341.097 230.731 342.039 228.457 342.039 226.086V178.399C342.043 177.045 342.582 175.748 343.539 174.791C344.497 173.834 345.794 173.294 347.148 173.29H350.128C351.482 173.294 352.779 173.834 353.737 174.791C354.694 175.748 355.234 177.045 355.238 178.399V226.086C355.238 228.457 356.18 230.731 357.856 232.408C359.533 234.085 361.807 235.027 364.179 235.027H368.17C370.611 234.994 372.939 233.995 374.646 232.25C375.598 231.302 376.886 230.77 378.229 230.769H381.21C382.553 230.77 383.841 231.302 384.793 232.25C386.5 233.995 388.828 234.994 391.269 235.027H395.26C396.434 235.027 397.597 234.796 398.682 234.347C399.767 233.897 400.752 233.239 401.583 232.408C402.413 231.578 403.072 230.592 403.521 229.508C403.97 228.423 404.202 227.26 404.202 226.086V221.402C404.206 220.049 404.745 218.751 405.702 217.794C406.66 216.837 407.957 216.297 409.311 216.293H412.291C413.645 216.297 414.942 216.837 415.9 217.794C416.857 218.751 417.397 220.049 417.401 221.402V226.086C417.401 228.457 418.343 230.731 420.019 232.408C421.696 234.085 423.97 235.027 426.342 235.027C428.713 235.027 430.987 234.085 432.664 232.408C434.341 230.731 435.283 228.457 435.283 226.086V175.419C435.287 174.065 435.826 172.768 436.784 171.81C437.741 170.853 439.038 170.314 440.392 170.31H443.373C444.726 170.314 446.024 170.853 446.981 171.81C447.938 172.768 448.478 174.065 448.482 175.419V226.086C448.482 227.26 448.713 228.423 449.163 229.508C449.612 230.592 450.27 231.578 451.101 232.408C451.931 233.239 452.917 233.897 454.001 234.347C455.086 234.796 456.249 235.027 457.423 235.027C458.597 235.027 459.76 234.796 460.845 234.347C461.93 233.897 462.915 233.239 463.746 232.408C464.576 231.578 465.234 230.592 465.684 229.508C466.133 228.423 466.364 227.26 466.364 226.086V193.727C466.368 192.373 466.908 191.076 467.865 190.119C468.823 189.161 470.12 188.622 471.474 188.618H474.454C475.18 188.619 475.898 188.776 476.559 189.077C477.22 189.378 477.809 189.817 478.286 190.365V141.007C478.286 136.244 476.394 131.676 473.026 128.309C469.659 124.941 465.091 123.049 460.328 123.049H139.954C135.847 123.049 131.908 124.68 129.004 127.584C126.1 130.488 124.469 134.427 124.469 138.534V193.727C124.473 192.373 125.012 191.076 125.97 190.119C126.927 189.161 128.224 188.622 129.578 188.618Z" fill="#3F3D56"/>
<path d="M379.368 132.604H376.866V231.407H379.368V132.604Z" fill="#2F2E41"/>
<path d="M402.452 145.197C402.592 175.397 384.037 200.684 379.366 206.568C378.689 207.415 378.306 207.862 378.306 207.862C378.306 207.862 377.774 207.257 376.867 206.116C371.975 199.972 356.161 178.245 353.862 151.528C353.845 151.341 353.828 151.153 353.816 150.966C353.671 149.139 353.593 147.29 353.581 145.418C353.569 140.828 353.962 136.246 354.756 131.725C354.795 131.474 354.842 131.227 354.884 130.976C359.908 103.365 377.727 82.7529 377.727 82.7529C381.464 87.2283 384.821 92.0079 387.762 97.0419C387.839 97.1696 387.916 97.2973 387.988 97.4251C390.268 101.274 392.325 105.25 394.149 109.334C394.217 109.474 394.277 109.615 394.336 109.755C398.781 119.816 402.392 132.023 402.452 145.197Z" fill="#0080F6"/>
<path d="M225.663 113.869H223.162V212.671H225.663V113.869Z" fill="#2F2E41"/>
<path d="M248.748 126.461C248.907 161.009 224.6 189.129 224.6 189.129C224.6 189.129 200.035 161.235 199.876 126.686C199.717 92.1374 224.023 64.0176 224.023 64.0176C224.023 64.0176 248.588 91.9121 248.748 126.461Z" fill="#0080F6"/>
<path opacity="0.1" d="M181.175 152.381C180.484 153.483 179.589 153.457 178.781 152.95C177.973 152.444 177.56 151.649 178.25 150.548C178.941 149.446 181.281 148.962 181.281 148.962C181.281 148.962 181.865 151.28 181.175 152.381Z" fill="black"/>
<path opacity="0.1" d="M344.672 165.58C343.982 166.682 343.086 166.656 342.278 166.15C341.47 165.643 341.057 164.848 341.747 163.747C342.438 162.645 344.778 162.161 344.778 162.161C344.778 162.161 345.362 164.479 344.672 165.58Z" fill="black"/>
<path opacity="0.1" d="M255.08 158.819C255.371 160.086 254.719 160.701 253.79 160.914C252.861 161.127 252.006 160.858 251.716 159.591C251.425 158.324 252.738 156.326 252.738 156.326C252.738 156.326 254.79 157.552 255.08 158.819Z" fill="black"/>
<path opacity="0.1" d="M401.121 204.803C401.411 206.07 400.759 206.685 399.83 206.898C398.901 207.111 398.046 206.841 397.756 205.574C397.465 204.307 398.778 202.31 398.778 202.31C398.778 202.31 400.83 203.536 401.121 204.803Z" fill="black"/>
<path opacity="0.1" d="M242.761 179.399C243.261 181.577 242.141 182.634 240.544 183C238.947 183.366 237.478 182.903 236.978 180.725C236.479 178.548 238.735 175.114 238.735 175.114C238.735 175.114 242.262 177.221 242.761 179.399Z" fill="black"/>
<path opacity="0.1" d="M304.792 190.299C303.745 192.273 302.206 192.34 300.758 191.572C299.311 190.804 298.503 189.492 299.551 187.519C300.598 185.545 304.55 184.425 304.55 184.425C304.55 184.425 305.839 188.326 304.792 190.299Z" fill="black"/>
<path opacity="0.1" d="M366.772 212.825C366.481 215.04 365.063 215.64 363.439 215.427C361.814 215.214 360.599 214.267 360.89 212.052C361.181 209.837 364.492 207.405 364.492 207.405C364.492 207.405 367.063 210.61 366.772 212.825Z" fill="black"/>
<path d="M241.91 94.2404L199.664 137.79L199.97 138.087L242.216 94.5369L241.91 94.2404Z" fill="#3F3D56"/>
<path d="M246.168 108.717L203.922 152.267L204.227 152.563L246.474 109.013L246.168 108.717Z" fill="#3F3D56"/>
<path d="M387.987 97.4252L354.756 131.725C354.794 131.474 354.841 131.227 354.884 130.976L387.762 97.042C387.838 97.1697 387.915 97.2974 387.987 97.4252Z" fill="#3F3D56"/>
<path d="M397.728 121.475L355.512 165.054L355.818 165.35L398.034 121.772L397.728 121.475Z" fill="#3F3D56"/>
<path d="M394.336 109.756L353.862 151.528L353.262 152.15L352.955 151.852L353.815 150.966L394.149 109.334C394.217 109.475 394.276 109.615 394.336 109.756Z" fill="#3F3D56"/>
<path d="M220.938 102.255H215.614V96.9307H220.938V102.255ZM216.024 101.845H220.529V97.3402H216.024V101.845Z" fill="#2F2E41"/>
<path d="M379.326 172.933H374.002V167.608H379.326V172.933ZM374.411 172.523H378.917V168.018H374.411V172.523Z" fill="#2F2E41"/>
<path opacity="0.4" d="M160.693 55.0021C164.202 55.0021 167.046 52.1579 167.046 48.6495C167.046 45.141 164.202 42.2969 160.693 42.2969C157.185 42.2969 154.341 45.141 154.341 48.6495C154.341 52.1579 157.185 55.0021 160.693 55.0021Z" fill="#0080F6"/>
<path opacity="0.4" d="M148.936 56.1401C151.397 56.1401 153.392 54.145 153.392 51.6838C153.392 49.2227 151.397 47.2275 148.936 47.2275C146.475 47.2275 144.479 49.2227 144.479 51.6838C144.479 54.145 146.475 56.1401 148.936 56.1401Z" fill="#0080F6"/>
<path opacity="0.4" d="M437.743 45.6657C445.091 45.6657 451.047 39.709 451.047 32.3612C451.047 25.0133 445.091 19.0566 437.743 19.0566C430.395 19.0566 424.438 25.0133 424.438 32.3612C424.438 39.709 430.395 45.6657 437.743 45.6657Z" fill="#0080F6"/>
<path opacity="0.4" d="M418.762 58.6172C423.916 58.6172 428.095 54.4387 428.095 49.2842C428.095 44.1297 423.916 39.9512 418.762 39.9512C413.607 39.9512 409.429 44.1297 409.429 49.2842C409.429 54.4387 413.607 58.6172 418.762 58.6172Z" fill="#0080F6"/>
<path d="M172.555 240.094L172.15 240.086C172.307 235.59 172.787 231.111 173.586 226.684C175.335 217.205 178.242 210.979 182.228 208.181L182.46 208.512C173.149 215.049 172.56 239.844 172.555 240.094Z" fill="#2F2E41"/>
<path d="M177.609 239.997L177.205 239.99C177.214 239.542 177.467 228.987 181.622 226.07L181.854 226.401C177.866 229.201 177.611 239.89 177.609 239.997Z" fill="#2F2E41"/>
<path d="M184.761 208.549C185.878 208.549 186.783 207.643 186.783 206.527C186.783 205.41 185.878 204.505 184.761 204.505C183.644 204.505 182.739 205.41 182.739 206.527C182.739 207.643 183.644 208.549 184.761 208.549Z" fill="#0080F6"/>
<path d="M183.759 225.936C184.876 225.936 185.781 225.031 185.781 223.914C185.781 222.798 184.876 221.893 183.759 221.893C182.643 221.893 181.737 222.798 181.737 223.914C181.737 225.031 182.643 225.936 183.759 225.936Z" fill="#0080F6"/>
<path d="M176.666 209.761C176.869 211.32 176.658 212.906 176.056 214.359C175.003 213.182 174.313 211.727 174.069 210.167C173.825 208.608 174.037 207.011 174.68 205.569C175.697 206.768 176.382 208.214 176.666 209.761Z" fill="#2F2E41"/>
<path d="M183.276 215.655C181.775 216.126 180.177 216.195 178.642 215.855C179.617 214.613 180.93 213.68 182.423 213.168C183.916 212.656 185.525 212.587 187.057 212.968C186.053 214.179 184.749 215.106 183.276 215.655Z" fill="#2F2E41"/>
<path d="M183.351 231.054C182.299 231.384 181.179 231.433 180.103 231.194C180.786 230.324 181.706 229.67 182.753 229.311C183.799 228.952 184.927 228.904 186.001 229.171C185.298 230.02 184.384 230.669 183.351 231.054Z" fill="#2F2E41"/>
<path d="M173.562 365.145H0V364.136H173.058L173.562 365.145Z" fill="#2F2E41"/>
<path d="M37.0768 350.04C37.0768 350.04 34.032 362.773 36.8 363.326C39.568 363.88 53.1312 363.701 56.4528 364.255C59.7744 364.808 66.6943 363.88 66.6943 361.389C66.6943 358.898 59.4976 357.237 59.4976 357.237C59.4976 357.237 49.256 351.701 48.9792 351.424C48.7024 351.147 37.0768 350.04 37.0768 350.04Z" fill="#2F2E41"/>
<path d="M39.5673 275.028C39.5673 275.028 40.3977 284.439 40.3977 285.269C40.3977 286.1 39.5673 299.109 40.3977 299.663C41.2281 300.216 39.8441 304.091 39.8441 305.475C39.8441 306.859 35.4153 329.834 36.5225 338.691C37.6297 347.549 34.8617 346.718 35.6921 347.549C36.5225 348.379 36.5225 348.379 36.5225 350.04C36.5225 351.701 45.3801 353.085 45.3801 353.085L55.0681 291.912L50.0857 273.644L39.5673 275.028Z" fill="#575A89"/>
<path opacity="0.1" d="M39.5673 275.028C39.5673 275.028 40.3977 284.439 40.3977 285.269C40.3977 286.1 39.5673 299.109 40.3977 299.663C41.2281 300.216 39.8441 304.091 39.8441 305.475C39.8441 306.859 35.4153 329.834 36.5225 338.691C37.6297 347.549 34.8617 346.718 35.6921 347.549C36.5225 348.379 36.5225 348.379 36.5225 350.04C36.5225 351.701 45.3801 353.085 45.3801 353.085L55.0681 291.912L50.0857 273.644L39.5673 275.028Z" fill="black"/>
<path d="M40.9519 353.915C40.9519 353.915 38.1839 363.88 40.9519 364.433C43.7199 364.987 57.283 363.799 60.6046 364.353C63.9262 364.906 70.8462 364.987 70.8462 362.496C70.8462 360.005 63.6494 358.344 63.6494 358.344C63.6494 358.344 53.4079 352.808 53.1311 352.531C52.8543 352.254 40.9519 353.915 40.9519 353.915Z" fill="#2F2E41"/>
<path d="M37.0769 263.955C37.0769 263.955 33.7553 271.982 37.6305 276.134C41.5057 280.286 45.9345 288.59 45.9345 289.144C45.9345 289.697 38.1841 344.78 39.2913 348.379C40.3985 351.977 40.1217 354.192 39.8449 354.745C39.5681 355.299 42.6129 358.344 45.9345 358.344C49.2561 358.344 54.2385 355.852 54.7921 353.638C55.3457 351.424 53.9617 332.324 54.2385 328.726C54.5153 325.128 55.8993 319.868 56.4529 318.761C57.0065 317.654 60.0512 316.547 60.6048 313.225C61.1584 309.904 65.5872 267.553 64.2032 266.169C62.8192 264.785 37.0769 263.955 37.0769 263.955Z" fill="#575A89"/>
<path d="M58.1133 200.291C63.311 200.291 67.5245 196.078 67.5245 190.88C67.5245 185.682 63.311 181.469 58.1133 181.469C52.9157 181.469 48.7021 185.682 48.7021 190.88C48.7021 196.078 52.9157 200.291 58.1133 200.291Z" fill="#FFB9B9"/>
<path d="M52.3008 195.586C52.3008 195.586 54.2384 205.828 52.8544 206.935C51.4704 208.042 63.3728 209.703 63.3728 209.703C63.3728 209.703 64.7567 196.14 65.0335 194.756C65.3103 193.372 52.3008 195.586 52.3008 195.586Z" fill="#FFB9B9"/>
<path d="M65.0335 208.872C65.0335 208.872 61.7119 199.184 48.1488 201.952C48.1488 201.952 45.6576 202.783 46.488 203.613C47.3184 204.444 48.1488 204.444 47.0416 205.274C45.9344 206.104 44.5504 205.274 45.3808 206.104C46.2112 206.935 37.9072 211.917 38.4608 221.328C39.0144 230.74 36.5232 244.026 38.4608 246.24C40.3984 248.455 37.0768 258.143 37.6304 260.08C38.184 262.018 34.3088 264.509 35.9696 265.339C37.6304 266.17 67.5247 271.152 68.3551 265.339C69.1855 259.527 68.6319 263.679 69.4623 262.295C70.2927 260.911 70.5695 258.419 70.0159 255.375C69.4623 252.33 68.0783 244.856 68.6319 242.088C69.1855 239.32 68.6319 216.069 66.9711 213.301C65.3103 210.533 65.0335 208.872 65.0335 208.872Z" fill="#0080F6"/>
<path d="M59.2204 276.411C59.2204 276.411 55.0684 292.189 60.3276 292.189C65.5868 292.189 65.31 275.857 65.31 275.857L59.2204 276.411Z" fill="#FFB9B9"/>
<path d="M62.2652 190.88C62.2652 191.683 61.1026 192.192 59.3007 192.308H59.2979C58.5339 192.352 57.7677 192.337 57.006 192.264C55.8545 192.159 55.3784 193.241 55.1819 194.669C54.8608 197.025 55.3092 200.327 54.7916 200.845C54.0774 201.559 48.8709 200.842 47.2433 199.223C46.9899 198.995 46.8211 198.689 46.7644 198.354C46.5937 197.365 46.106 196.458 45.3749 195.771C44.4144 194.722 43.047 193.559 41.5052 191.71C38.7373 188.389 41.5052 188.112 42.3356 185.621C43.166 183.13 44.55 182.299 44.55 180.638C44.55 178.978 50.9164 177.594 56.1756 177.87C61.4348 178.147 60.3276 184.79 60.3276 184.79C60.3276 184.79 60.6404 185.593 61.014 186.628C61.5195 187.927 61.9303 189.261 62.243 190.62C62.256 190.706 62.2634 190.793 62.2652 190.88Z" fill="#2F2E41"/>
<path d="M69.7391 179.808V177.317L62.2658 177.871L61.2441 182.005L63.3395 184.665L68.3551 181.469L69.7391 179.808Z" fill="#575A89"/>
<path opacity="0.1" d="M69.7391 179.808V177.317L62.2658 177.871L61.2441 182.005L63.3395 184.665L68.3551 181.469L69.7391 179.808Z" fill="black"/>
<path d="M74.1677 185.068L69.1853 186.452L64.2029 189.497L62.2431 190.62L59.3008 192.309H59.298L55.182 194.67L47.2434 199.223C46.9901 198.996 46.8212 198.69 46.7645 198.354C46.5938 197.365 46.1061 196.459 45.375 195.772L61.0142 186.629L62.2653 185.898L69.7389 177.317L74.1677 185.068Z" fill="#575A89"/>
<path opacity="0.1" d="M61.1578 213.025C61.1578 213.025 51.7467 212.471 50.9163 226.311C50.0859 240.151 50.3626 253.16 50.3626 253.437C50.3626 253.714 54.2378 280.01 57.8362 280.01C61.4346 280.01 64.2026 279.456 65.033 278.072C65.8634 276.688 62.8186 256.759 62.8186 256.759C62.8186 256.759 61.4346 235.722 63.649 229.079C65.8634 222.436 66.1402 213.855 61.1578 213.025Z" fill="black"/>
<path d="M62.5416 211.641C62.5416 211.641 53.1304 211.087 52.3 224.927C51.4696 238.767 51.7464 251.777 51.7464 252.053C51.7464 252.33 55.6216 278.626 59.22 278.626C62.8184 278.626 65.5864 278.073 66.4168 276.689C67.2472 275.305 64.2024 255.375 64.2024 255.375C64.2024 255.375 62.8184 234.338 65.0328 227.695C67.2472 221.052 67.524 212.471 62.5416 211.641Z" fill="#0080F6"/>
</g>
<defs>
<clipPath id="clip0">
<rect width="500" height="365.145" fill="white"/>
</clipPath>
</defs>
</svg>
