<svg width="500" height="273" viewBox="0 0 500 273" fill="none" xmlns="http://www.w3.org/2000/svg">
<g clip-path="url(#clip0)">
<path opacity="0.1" d="M145.622 133.107C133.833 138.552 122.964 146.033 110.675 150.223C95.7188 155.322 79.5691 155.269 63.766 155.153L0 154.706C12.9149 177.888 35.7315 195.341 61.494 201.743C71.6026 204.259 82.3995 205.245 91.3143 210.648C102.424 217.382 109.009 230.044 120.302 236.456C132.75 243.518 148.221 241.613 162.094 245.115C180.179 249.651 195.308 263.294 213.753 265.978C231.593 268.571 248.984 260.518 266.275 255.434C328.034 237.269 394.755 256.67 458.502 247.689C460.952 247.342 463.561 246.876 465.332 245.154C467.609 242.946 467.797 239.381 467.344 236.22C465.072 220.471 450.896 208.897 436.032 203.187C404.363 191.026 368.786 198.665 335.143 194.287C312.038 191.276 290.059 182.607 268.378 174.011C245.677 165.01 222.62 156.178 201.108 144.532C179.24 132.674 172.149 120.869 145.622 133.107Z" fill="#0080F6"/>
<path d="M345.242 216.714C345.242 216.714 346.205 231.145 344.28 233.551C344.28 233.551 386.639 241.248 391.934 238.842C397.229 236.437 394.823 232.589 391.934 231.145C389.046 229.702 374.605 224.411 372.68 214.309C372.68 214.309 378.938 211.422 358.72 215.271C338.503 219.119 345.242 216.714 345.242 216.714Z" fill="#DC9BA3"/>
<path opacity="0.05" d="M345.242 216.714C345.242 216.714 346.205 231.145 344.28 233.551C344.28 233.551 386.639 241.248 391.934 238.842C397.229 236.437 394.823 232.589 391.934 231.145C389.046 229.702 374.605 224.411 372.68 214.309C372.68 214.309 378.938 211.422 358.72 215.271C338.503 219.119 345.242 216.714 345.242 216.714Z" fill="black"/>
<path d="M180.044 15.75L179.861 15.8366C171.123 19.9555 163.522 26.1427 157.718 33.8616C154.435 38.1911 150.402 42.3185 146.565 43.0016C138.045 44.5025 75.3959 109.618 90.4336 170.221C105.471 230.824 193.2 233.325 193.2 233.325C193.2 233.325 211.857 236.486 222.563 242.807C225.062 244.284 227.857 245.194 230.747 245.471C233.638 245.749 236.554 245.388 239.29 244.413C252.036 239.882 272.985 233.311 282.43 235.331C296.461 238.338 416.729 188.251 416.729 188.251C416.729 188.251 366.61 140.145 292.938 141.17C292.938 141.17 176.665 60.0309 180.675 26.4727L180.044 15.75Z" fill="#0080F6"/>
<path opacity="0.1" d="M180.044 15.75L179.861 15.8366C171.123 19.9555 163.522 26.1427 157.718 33.8616C154.435 38.1911 150.402 42.3185 146.565 43.0016C138.045 44.5025 75.3959 109.618 90.4336 170.221C105.471 230.824 193.2 233.325 193.2 233.325C193.2 233.325 211.857 236.486 222.563 242.807C225.062 244.284 227.857 245.194 230.747 245.471C233.638 245.749 236.554 245.388 239.29 244.413C252.036 239.882 272.985 233.311 282.43 235.331C296.461 238.338 416.729 188.251 416.729 188.251C416.729 188.251 366.61 140.145 292.938 141.17C292.938 141.17 176.665 60.0309 180.675 26.4727L180.044 15.75Z" fill="black"/>
<path d="M180.135 15.6338L168.101 27.179C168.101 27.179 158.955 44.978 150.772 46.4211C142.589 47.8643 82.419 110.401 96.8598 168.608C111.301 226.816 195.539 229.221 195.539 229.221C195.539 229.221 213.07 232.189 223.386 238.13C225.887 239.594 228.676 240.497 231.561 240.779C234.445 241.06 237.357 240.713 240.094 239.761C252.364 235.431 272.239 229.221 281.217 231.145C294.695 234.032 410.221 185.926 410.221 185.926C410.221 185.926 362.085 139.745 291.325 140.707C291.325 140.707 179.649 62.7769 183.5 30.5464L180.135 15.6338Z" fill="#0080F6"/>
<path opacity="0.1" d="M260.659 200.268C275.483 185.453 265.624 151.58 238.637 124.61C211.65 97.6406 177.755 87.7872 162.931 102.602C148.106 117.417 157.966 151.29 184.953 178.259C211.94 205.229 245.835 215.082 260.659 200.268Z" fill="black"/>
<path d="M180.135 76.7275C180.135 76.7275 185.43 85.3865 182.06 102.223C178.691 119.06 190.725 119.06 190.725 119.06H214.793L222.976 97.8938L211.423 98.8559C211.423 98.8559 203.721 96.9317 207.091 79.1328L180.135 76.7275Z" fill="#FFD2D9"/>
<path d="M252.339 56.5232C248.657 68.2368 244.041 82.5 241.576 90.1103L239.824 95.4885L223.939 79.1327C223.939 79.1327 224.637 77.5115 225.682 75.241C228.006 70.2092 232.055 61.9976 234.048 61.3337C234.048 61.3337 211.905 59.8906 205.166 65.1822C198.427 70.4737 200.352 50.7506 200.352 50.7506C200.352 50.7506 213.349 49.7885 218.163 46.9022C222.976 44.0158 248.97 41.1295 248.97 41.1295C248.97 41.1295 257.634 39.6864 252.339 56.5232Z" fill="#FFD2D9"/>
<path opacity="0.1" d="M165.213 201.802C165.213 201.802 206.129 183.041 220.569 185.927L165.213 201.802Z" fill="black"/>
<path opacity="0.1" d="M123.335 157.544C123.335 157.544 172.915 155.62 199.871 172.938L123.335 157.544Z" fill="black"/>
<path opacity="0.1" d="M147.884 177.267C147.884 177.267 186.874 167.646 207.573 171.014L147.884 177.267Z" fill="black"/>
<path d="M396.748 197.954L393.378 222.487L384.714 221.525C384.714 221.525 384.189 221.044 383.298 220.236C380.964 218.182 376.107 214.155 371.457 211.962C369.884 211.159 368.178 210.651 366.422 210.461L376.049 196.029C378.392 196.906 380.793 197.617 383.236 198.156C385.773 198.75 388.37 199.056 390.976 199.07C392.957 199.106 394.923 198.726 396.748 197.954Z" fill="#FFD2D9"/>
<path d="M372.68 215.271C368.347 219.12 348.612 210.942 345.242 223.449L342.142 211.586L332.597 175.079L331.283 170.052L323.33 169.711L232.074 165.819L226.894 165.607L224.17 165.492L227.785 163.702L251.853 151.782C251.853 151.782 260.518 151.176 272.479 149.535C290.607 147.053 316.283 142.199 330.782 133.507C354.85 119.075 363.996 167.661 363.996 167.661C363.996 167.661 367.654 179.991 370.446 192.137C371.775 197.91 372.906 203.683 373.334 208.041C373.743 211.74 373.618 214.439 372.68 215.271Z" fill="#E9E9EF"/>
<path opacity="0.05" d="M372.68 215.271C368.348 219.119 348.612 210.942 345.242 223.449L342.142 211.586L332.597 175.079L331.283 170.052L323.1 169.571L234.914 164.13L229.47 163.794L227.795 163.693L225.624 163.558L251.858 151.772C251.858 151.772 260.523 151.166 272.485 149.526C290.613 147.043 316.289 142.19 330.787 133.497C354.855 119.065 364.001 167.652 364.001 167.652C364.001 167.652 367.659 179.981 370.451 192.128C371.78 197.9 372.911 203.673 373.339 208.031C373.744 211.74 373.619 214.439 372.68 215.271Z" fill="black"/>
<path opacity="0.1" d="M383.236 198.156L374.812 208.027L371.442 211.962C369.869 211.159 368.163 210.651 366.407 210.461L376.034 196.029C378.382 196.907 380.788 197.617 383.236 198.156Z" fill="black"/>
<path d="M382.788 196.991L373.368 208.026L368.829 213.347V214.79C363.274 216.069 345.959 212.423 342.142 211.586C341.661 211.485 341.391 211.422 341.391 211.422C330.32 211.903 289.404 187.851 289.404 187.851C289.404 187.851 244.638 195.548 222.976 193.623C210.88 192.546 207.491 188.173 206.856 184.517C206.576 182.71 206.825 180.861 207.573 179.192L226.895 165.607L229.46 163.803L233.557 160.917C233.557 160.917 240.676 159.305 249.721 157.309C263.849 154.196 282.68 150.151 286.492 149.857C292.75 149.376 308.635 154.668 317.781 165.251C319.355 166.912 321.134 168.367 323.076 169.58L323.326 169.744C325.896 171.447 329.064 173.26 332.592 175.113C344.246 181.246 359.779 187.832 370.461 192.156C377.758 195.086 382.788 196.991 382.788 196.991Z" fill="#E9E9EF"/>
<path opacity="0.1" d="M396.748 197.953L393.379 222.487L384.714 221.525C384.714 221.525 384.189 221.044 383.299 220.235C385.224 220.279 388.382 219.726 389.046 215.752C389.046 215.752 385.71 204.087 390.972 199.069C392.954 199.106 394.922 198.726 396.748 197.953Z" fill="black"/>
<path d="M390.008 215.752C390.008 215.752 385.195 198.915 396.266 196.991L414.558 204.207L435.738 205.65C435.738 205.65 441.269 214.675 432.402 224.777C429.973 227.516 427.015 229.737 423.707 231.308C420.398 232.878 416.807 233.766 413.147 233.917L390.004 234.999L382.783 220.087C382.783 220.087 389.046 221.525 390.008 215.752Z" fill="#DC9BA3"/>
<path opacity="0.1" d="M272.485 149.525C270.078 150.233 260.027 153.229 249.745 157.299C244.665 159.254 239.716 161.534 234.929 164.125C233.932 164.683 233.003 165.246 232.089 165.814C229.393 167.522 227.222 169.273 225.879 171.009C219.939 178.706 211.212 182.824 206.87 184.512C206.591 182.705 206.84 180.856 207.587 179.187L226.895 165.607L224.17 165.492L227.785 163.702L225.614 163.567L251.849 151.782C251.849 151.782 260.528 151.175 272.485 149.525Z" fill="black"/>
<path opacity="0.1" d="M241.577 90.1105L239.824 95.4887L223.939 79.1329C223.939 79.1329 224.637 77.5118 225.682 75.2412C227.689 79.4985 237.278 86.9212 241.577 90.1105Z" fill="black"/>
<path d="M184.266 98.1007C183.697 96.4701 183.282 94.7905 183.024 93.0833L162.325 100.299C162.325 100.299 148.125 111.123 149.569 134.694C149.569 134.694 167.139 128.2 174.84 135.897L174.999 137.254C176.628 150.702 182.583 163.259 191.967 173.034C195.818 177.051 199.404 181.583 201.315 185.926C201.315 185.926 214.793 182.078 222.977 171.495C231.16 160.912 270.15 149.848 270.15 149.848C270.15 149.848 249.452 150.329 246.563 143.113C243.675 135.897 234.048 120.503 237.417 108.477C240.787 96.4507 242.712 92.6023 242.712 92.6023C242.712 92.6023 222.977 78.6517 224.421 74.3223L211.905 88.7538L206.129 90.678C206.583 91.7947 206.813 92.9893 206.808 94.1945C207.116 107.274 188.651 110.42 184.266 98.1007Z" fill="#CEDAD5"/>
<path d="M69.2252 158.392C69.2252 158.392 73.259 163.683 67.3624 171.621C61.4657 179.558 56.6039 186.297 58.5727 191.262C58.5727 191.262 67.4683 176.479 74.7079 176.272C81.9476 176.065 77.1918 167.296 69.2252 158.392Z" fill="#0080F6"/>
<path opacity="0.1" d="M69.2246 158.392C69.5761 158.901 69.8533 159.459 70.0478 160.046C77.1141 168.34 80.8736 176.08 74.0864 176.277C67.7613 176.46 60.175 187.76 58.3555 190.617C58.4155 190.838 58.4878 191.054 58.5721 191.267C58.5721 191.267 67.4676 176.484 74.7073 176.277C81.947 176.07 77.1912 167.296 69.2246 158.392Z" fill="black"/>
<path d="M76.7098 165.126C76.7098 166.983 76.5028 168.493 76.2284 168.493C75.9541 168.493 75.7471 166.987 75.7471 165.126C75.7471 163.264 76.007 164.164 76.2621 164.164C76.5173 164.164 76.7098 163.269 76.7098 165.126Z" fill="#FFD037"/>
<path d="M79.2946 167.344C77.6628 168.233 76.2428 168.787 76.1225 168.541C76.0021 168.296 77.22 167.411 78.8518 166.526C80.4836 165.641 79.8386 166.285 79.9637 166.526C80.0889 166.766 80.9264 166.454 79.2946 167.344Z" fill="#FFD037"/>
<path d="M47.9144 158.392C47.9144 158.392 43.8806 163.683 49.7773 171.621C55.674 179.558 60.5357 186.297 58.5669 191.262C58.5669 191.262 49.6714 176.479 42.4317 176.272C35.192 176.065 39.9527 167.296 47.9144 158.392Z" fill="#0080F6"/>
<path opacity="0.1" d="M47.9144 158.392C47.5629 158.901 47.2857 159.459 47.0913 160.046C40.0249 168.34 36.2654 176.08 43.0526 176.277C49.3777 176.46 56.964 187.76 58.7835 190.617C58.7235 190.838 58.6512 191.054 58.5669 191.267C58.5669 191.267 49.6714 176.484 42.4317 176.277C35.192 176.07 39.9527 167.296 47.9144 158.392Z" fill="black"/>
<path d="M40.415 165.126C40.415 166.983 40.622 168.493 40.8964 168.493C41.1708 168.493 41.3778 166.987 41.3778 165.126C41.3778 163.264 41.1178 164.164 40.8627 164.164C40.6076 164.164 40.415 163.269 40.415 165.126Z" fill="#FFD037"/>
<path d="M37.8445 167.344C39.4763 168.233 40.8963 168.787 41.0167 168.541C41.137 168.296 39.9192 167.411 38.2873 166.526C36.6555 165.641 37.3006 166.285 37.1754 166.526C37.0502 166.766 36.2127 166.454 37.8445 167.344Z" fill="#FFD037"/>
<path d="M41.7002 190.588C41.7002 190.588 52.9785 190.242 56.3769 187.822C59.7753 185.402 73.7059 182.53 74.5676 186.379C75.4292 190.227 91.5163 205.674 78.7843 205.775C66.0523 205.876 49.1998 203.793 45.8062 201.729C42.4126 199.665 41.7002 190.588 41.7002 190.588Z" fill="#A8A8A8"/>
<path opacity="0.2" d="M79.0154 204.443C66.2834 204.544 49.4309 202.461 46.0373 200.397C43.4524 198.824 42.4223 193.182 42.0805 190.579H41.7051C41.7051 190.579 42.4175 199.671 45.8111 201.735C49.2047 203.798 66.0572 205.886 78.7892 205.78C82.4668 205.752 83.7328 204.443 83.6654 202.509C83.1503 203.688 81.7495 204.419 79.0154 204.443Z" fill="black"/>
<path d="M131.854 254.212C132.736 253.493 133.379 252.523 133.698 251.431C133.938 250.325 133.467 249.002 132.408 248.598C131.223 248.146 129.957 248.964 129 249.796C128.042 250.628 126.939 251.571 125.683 251.393C126.329 250.808 126.812 250.066 127.085 249.239C127.358 248.412 127.413 247.528 127.243 246.674C127.188 246.32 127.038 245.987 126.809 245.712C126.15 245.009 124.961 245.312 124.171 245.866C121.668 247.626 120.97 251.022 120.956 254.082C120.706 252.98 120.917 251.831 120.908 250.715C120.898 249.599 120.59 248.309 119.637 247.722C119.046 247.405 118.382 247.248 117.712 247.265C116.585 247.222 115.334 247.338 114.564 248.16C113.601 249.18 113.856 250.897 114.689 252.009C115.521 253.12 116.783 253.837 117.947 254.616C118.881 255.171 119.677 255.929 120.277 256.834C120.348 256.959 120.406 257.091 120.451 257.228H127.493C129.076 256.424 130.543 255.41 131.854 254.212Z" fill="#0080F6"/>
<path d="M163.143 269.515C164.025 268.796 164.668 267.826 164.987 266.734C165.227 265.628 164.756 264.305 163.697 263.901C162.512 263.449 161.246 264.266 160.289 265.099C159.331 265.931 158.228 266.874 156.972 266.696C157.618 266.111 158.101 265.368 158.374 264.541C158.647 263.714 158.702 262.831 158.532 261.977C158.477 261.622 158.328 261.29 158.098 261.014C157.439 260.312 156.25 260.615 155.461 261.168C152.957 262.929 152.259 266.325 152.245 269.385C151.995 268.283 152.207 267.133 152.197 266.017C152.187 264.901 151.879 263.612 150.926 263.025C150.335 262.708 149.671 262.55 149.001 262.568C147.874 262.525 146.623 262.64 145.853 263.463C144.89 264.483 145.145 266.2 145.978 267.311C146.81 268.423 148.072 269.139 149.237 269.919C150.17 270.473 150.967 271.231 151.566 272.136C151.637 272.262 151.695 272.394 151.74 272.531H158.782C160.365 271.727 161.832 270.712 163.143 269.515Z" fill="#0080F6"/>
<path d="M201.556 196.751C201.556 196.751 248.248 177.509 286.275 195.789L277.129 215.031L233.326 215.993L201.556 196.751Z" fill="#0080F6"/>
<path opacity="0.1" d="M206.359 85.4536C206.506 83.6554 206.75 81.8665 207.091 80.0947L180.135 77.6895C180.135 77.6895 182.002 79.301 182.816 85.3141C185.978 87.1902 189.671 89.7158 193.613 89.7158C198.213 89.7228 202.69 88.226 206.359 85.4536Z" fill="black"/>
<path d="M193.854 88.9947C205.551 88.9947 215.034 79.5182 215.034 67.8284C215.034 56.1386 205.551 46.6621 193.854 46.6621C182.156 46.6621 172.674 56.1386 172.674 67.8284C172.674 79.5182 182.156 88.9947 193.854 88.9947Z" fill="#FFD2D9"/>
<path d="M178.21 73.3607H181.098V65.1828L183.986 56.5239C183.986 56.5239 198.427 49.7892 205.166 51.2323L210.461 56.0428C210.461 56.0428 211.905 44.4976 203.241 40.1681C194.576 35.8386 179.172 37.7629 175.322 41.1302C171.471 44.4976 165.213 50.2702 170.027 66.145L171.471 69.9934C171.471 69.9934 177.247 68.0692 178.21 73.3607Z" fill="#844F6E"/>
<g opacity="0.05">
<path opacity="0.05" d="M215.621 84.4725L217.2 83.9482L224.488 75.5635C224.345 75.1662 224.328 74.7344 224.44 74.3271L215.621 84.4725Z" fill="black"/>
<path opacity="0.05" d="M205.489 99.987C209.306 98.3033 212.228 94.6473 212.098 89.4039C212.098 89.12 212.098 88.8507 212.05 88.5957L211.896 88.7689L206.12 90.6931C206.573 91.8098 206.804 93.0044 206.799 94.2096C206.875 96.2166 206.423 98.2086 205.489 99.987Z" fill="black"/>
<path opacity="0.05" d="M261.64 149.453C249.577 153.648 233.24 160.253 228.272 166.684C228.152 166.843 228.027 166.992 227.901 167.165C241.12 158.107 270.15 149.848 270.15 149.848C267.308 149.877 264.467 149.746 261.64 149.453Z" fill="black"/>
<path opacity="0.05" d="M206.61 181.116C204.685 176.786 201.089 172.241 197.262 168.224C187.878 158.448 181.923 145.892 180.294 132.443L180.135 131.086C172.434 123.39 154.864 129.884 154.864 129.884C153.949 114.933 159.326 105.114 163.379 99.9287L162.325 100.299C162.325 100.299 148.125 111.123 149.569 134.694C149.569 134.694 167.139 128.2 174.84 135.897L174.999 137.254C176.628 150.702 182.583 163.259 191.967 173.034C195.818 177.051 199.404 181.583 201.315 185.926C201.315 185.926 213.046 182.559 221.263 173.535C216.834 176.858 211.882 179.42 206.61 181.116Z" fill="black"/>
</g>
<path d="M201.315 124.833C201.315 124.833 178.21 158.025 166.176 167.646C154.142 177.267 150.772 163.317 150.772 163.317V132.529L171.952 130.124L172.179 133.044L172.434 136.378L192.17 115.212C192.17 115.212 211.905 97.4126 215.756 107.996C219.607 118.579 201.315 124.833 201.315 124.833Z" fill="#FFD2D9"/>
<path opacity="0.1" d="M172.178 133.044C169.287 134.725 166.22 136.085 163.033 137.099C158.484 138.499 153.271 137.027 150.758 136.137V132.544L171.938 130.139L172.178 133.044Z" fill="black"/>
<path d="M150.532 129.403L149.266 134.555C149.266 134.555 156.789 138.062 163.047 136.138C169.305 134.214 174.118 130.846 175.081 130.365C176.044 129.884 171.23 124.593 171.23 124.593L150.532 129.403Z" fill="#CEDAD5"/>
<path opacity="0.1" d="M289.164 188.092C292.374 185.631 295.946 183.684 299.754 182.319C303.372 181.076 306.78 179.292 309.863 177.027" fill="black"/>
<path opacity="0.2" d="M435.739 205.65L434.949 205.597C436.095 208.483 437.751 215.598 430.959 223.348C428.529 226.087 425.572 228.308 422.263 229.879C418.955 231.449 415.364 232.336 411.704 232.488L389.287 233.536L390.004 235.013L413.153 233.916C416.813 233.765 420.404 232.878 423.712 231.307C427.021 229.737 429.978 227.516 432.408 224.776C441.269 214.674 435.739 205.65 435.739 205.65Z" fill="white"/>
<path opacity="0.05" d="M326.585 230.424H326.513C326.575 231.559 326.686 233.902 326.705 236.475C326.724 234.215 326.652 231.992 326.585 230.424Z" fill="#00FF00"/>
<path opacity="0.05" d="M354.003 226.268C354.07 226.559 354.146 226.846 354.229 227.129C354.701 226.859 355.38 226.349 354.003 226.268Z" fill="#00FF00"/>
<path opacity="0.2" d="M391.934 237.4C387 239.641 349.897 233.113 344.852 232.209C344.751 232.69 344.556 233.146 344.279 233.551C344.279 233.551 386.639 241.248 391.934 238.843C394.659 237.606 395.342 235.985 394.972 234.513C394.692 235.538 393.787 236.558 391.934 237.4Z" fill="white"/>
<path opacity="0.05" d="M326.512 230.429C326.488 229.947 326.469 229.702 326.469 229.702C326.469 229.702 324.019 230.578 326.512 230.429Z" fill="#00FF00"/>
<path opacity="0.1" d="M212.589 57.2451H183.303C182.218 57.2451 181.339 58.1238 181.339 59.2078V71.6382C181.339 72.7222 182.218 73.6009 183.303 73.6009H212.589C213.674 73.6009 214.553 72.7222 214.553 71.6382V59.2078C214.553 58.1238 213.674 57.2451 212.589 57.2451Z" fill="black"/>
<path opacity="0.1" d="M181.608 62.5371H169.998C169.349 62.5371 168.823 63.0626 168.823 63.7109V67.617C168.823 68.2653 169.349 68.7908 169.998 68.7908H181.608C182.257 68.7908 182.783 68.2653 182.783 67.617V63.7109C182.783 63.0626 182.257 62.5371 181.608 62.5371Z" fill="black"/>
<path d="M212.589 56.7646H183.303C182.218 56.7646 181.339 57.6434 181.339 58.7273V71.1577C181.339 72.2417 182.218 73.1204 183.303 73.1204H212.589C213.674 73.1204 214.553 72.2417 214.553 71.1577V58.7273C214.553 57.6434 213.674 56.7646 212.589 56.7646Z" fill="#7679B4"/>
<path d="M212.555 57.7266H187.178C186.093 57.7266 185.214 58.6053 185.214 59.6893V70.1954C185.214 71.2794 186.093 72.1581 187.178 72.1581H212.555C213.64 72.1581 214.519 71.2794 214.519 70.1954V59.6893C214.519 58.6053 213.64 57.7266 212.555 57.7266Z" fill="#565388"/>
<path d="M181.608 62.0557H169.998C169.349 62.0557 168.823 62.5812 168.823 63.2294V67.1356C168.823 67.7838 169.349 68.3094 169.998 68.3094H181.608C182.257 68.3094 182.783 67.7838 182.783 67.1356V63.2294C182.783 62.5812 182.257 62.0557 181.608 62.0557Z" fill="#565388"/>
<path opacity="0.1" d="M207.313 57.717C212.522 54.5695 216.752 50.0357 219.53 44.6227C219.852 43.9926 220.16 43.2854 219.982 42.6023C219.641 41.2939 217.932 41.063 216.699 40.5001C214.403 39.4466 213.436 36.7864 211.929 34.7612C210.641 33.0719 208.91 31.7728 206.927 31.0085C204.944 30.2441 202.788 30.0444 200.699 30.4317C198.504 30.8743 196.473 31.9614 194.258 32.2886C189.483 32.9861 184.275 30.095 179.986 32.2886C178.032 33.294 176.708 35.1749 175.543 37.051C172.621 41.722 168.958 46.672 171.615 52.1512C173.141 55.2829 175.577 57.8805 178.999 58.7945C182.422 59.7085 186.383 58.9485 189.863 58.5684C192.728 58.2606 195.726 57.6063 198.61 57.9094C201.984 58.275 204.093 59.6508 207.313 57.717Z" fill="black"/>
<path d="M207.313 56.7541C212.522 53.6066 216.752 49.0728 219.53 43.6599C219.852 43.0297 220.16 42.3225 219.982 41.6394C219.641 40.331 217.932 40.1001 216.699 39.5372C214.403 38.4837 213.436 35.8235 211.929 33.7983C210.641 32.109 208.91 30.8099 206.927 30.0456C204.944 29.2812 202.788 29.0816 200.699 29.4688C198.504 29.9114 196.473 30.9986 194.258 31.3257C189.483 32.0232 184.275 29.1321 179.986 31.3257C178.032 32.3311 176.708 34.212 175.543 36.0881C172.621 40.7591 168.958 45.7091 171.615 51.1883C173.141 54.32 175.577 56.9177 178.999 57.8317C182.422 58.7457 186.383 57.9856 189.863 57.6056C192.728 57.2977 195.726 56.6435 198.61 56.9465C201.984 57.3121 204.093 58.6879 207.313 56.7541Z" fill="#844F6E"/>
<path opacity="0.2" d="M499.995 112.205L290.607 149.607V37.4018L499.995 0V112.205Z" fill="#0080F6"/>
<path opacity="0.2" d="M456.614 12.9456L495.34 6.27344L495.903 23.6154L456.152 30.2587L456.614 12.9456Z" fill="#0080F6"/>
<g opacity="0.2">
<path opacity="0.1" d="M381.292 109.766C382.605 109.47 383.953 109.358 385.296 109.435C393.215 109.574 401.432 110.349 409.201 107.991C413.326 106.75 417.028 104.701 421.283 103.821C428.504 102.334 435.724 104.504 442.824 102.695C444.268 102.325 446.035 101.805 447.06 102.363C448.249 103.008 447.407 104.682 448.856 105.105C449.314 105.162 449.766 105.265 450.203 105.413C450.733 105.721 450.401 106.375 449.871 106.794C446.651 109.406 440.1 107.669 436.066 109.781C435.17 110.262 434.496 110.868 433.659 111.368C432.333 112.051 430.928 112.569 429.476 112.908L407.078 119.161C401.716 120.658 396.281 122.173 390.736 122.832C385.191 123.491 379.438 123.222 375.376 121.341C374.504 120.937 373.696 120.441 373.364 119.768C371.785 116.593 375.713 111.248 381.292 109.766Z" fill="#252223"/>
<path opacity="0.3" d="M361.532 65.4521L380.271 80.2589L399.011 95.0609L368.232 100.877L337.454 106.688L349.493 86.0701L361.532 65.4521Z" fill="#0080F6"/>
<path opacity="0.3" d="M381.017 62.0273L399.757 76.8293L418.496 91.6361L387.718 97.4472L356.939 103.263L368.978 82.6453L381.017 62.0273Z" fill="#0080F6"/>
<path opacity="0.2" d="M410 31.2256L373.835 100.074L442.419 86.7342L467.763 81.9478L410 31.2256Z" fill="#0080F6"/>
<path opacity="0.1" d="M467.763 81.9478L442.42 86.7342L410 31.2256L467.763 81.9478Z" fill="black"/>
<path opacity="0.2" d="M429.067 63.144C428.945 62.6957 428.669 62.3049 428.286 62.0408C427.904 61.7766 427.441 61.6562 426.978 61.7008C426.978 61.7008 427.459 57.9198 419.661 59.4447C419.527 59.172 419.332 58.9336 419.091 58.748C418.851 58.5624 418.57 58.4345 418.272 58.3741C417.974 58.3137 417.666 58.3224 417.372 58.3996C417.078 58.4768 416.806 58.6204 416.576 58.8193L416.244 57.0635C416.244 57.0635 411.969 59.512 416.499 63.0045L417.043 65.8908C417.056 65.9638 417.079 66.0349 417.11 66.1025C417.134 66.155 417.154 66.2098 417.168 66.266C417.375 67.1079 418.896 73.7801 415.44 76.0602C411.738 78.5377 409.62 70.9034 409.62 70.9034C407.213 60.9311 402.631 60.9696 401.543 61.1284C401.413 61.1284 401.278 61.1572 401.143 61.1669C400.633 61.1957 399.049 61.7634 398.443 67.5119C397.716 74.4102 395.073 72.6881 395.073 72.6881C389.148 69.4602 384.965 72.284 384.965 72.284C374.683 78.326 383.424 89.6596 385.229 91.8099C384.551 95.2302 383.179 101.258 381.86 101.508C379.992 101.859 376.498 108.411 385.961 118.6L388.479 118.119C388.479 118.119 380.695 107.959 386.823 102.903C386.69 103.275 386.529 103.637 386.341 103.985C382.909 109.849 394.587 116.916 394.587 116.916L397.389 116.387L390.919 108.243C388.349 104.875 393.143 102.124 393.143 102.124C398.818 97.3805 395.896 91.656 395.896 91.656L409.143 89.1545C407.507 92.772 405.1 101.662 413.1 113.371L414.968 113.02L413.442 98.8188C413.442 98.8188 413.923 95.7642 417.168 91.1557C418.458 96.9283 421.192 106.891 425.322 111.062L428.027 110.552C428.027 110.552 424.73 101.099 424.658 97.5633C424.624 96.1201 424.561 94.701 424.432 93.2771L423.758 85.8304C424.851 85.1381 425.707 84.1303 426.215 82.9406C426.722 81.7508 426.855 80.4352 426.598 79.1678L424.109 66.2468C424.074 66.0649 424.076 65.8778 424.116 65.6969C424.156 65.516 424.232 65.3452 424.34 65.1948C424.449 65.0444 424.586 64.9176 424.745 64.8222C424.904 64.7268 425.081 64.6648 425.264 64.6401L428.456 64.2071C428.571 64.1869 428.68 64.1416 428.776 64.0744C428.872 64.0073 428.952 63.9199 429.01 63.8185C429.069 63.7171 429.104 63.6041 429.114 63.4875C429.124 63.371 429.108 63.2537 429.067 63.144Z" fill="url(#paint0_linear)"/>
<path opacity="0.2" d="M416.07 86.8887C416.07 86.8887 419.064 104.716 424.923 110.624L427.58 110.143C427.58 110.143 424.345 100.863 424.258 97.4045C424.225 95.9998 424.167 94.5951 424.037 93.1953L422.949 81.1689L416.07 86.8887Z" fill="#535461"/>
<path opacity="0.05" d="M416.07 86.8887C416.07 86.8887 419.064 104.716 424.923 110.624L427.58 110.143C427.58 110.143 424.345 100.863 424.258 97.4045C424.225 95.9998 424.167 94.5951 424.037 93.1953L422.949 81.1689L416.07 86.8887Z" fill="black"/>
<path opacity="0.2" d="M385.99 89.4424C385.99 89.4424 384.065 100.896 382.245 101.243C380.426 101.589 376.979 108.021 386.274 118.022L388.748 117.541C388.748 117.541 380.18 106.361 388.33 101.786C388.325 101.801 389.745 92.2373 385.99 89.4424Z" fill="#535461"/>
<path opacity="0.05" d="M385.99 89.4424C385.99 89.4424 384.065 100.896 382.245 101.243C380.426 101.589 376.979 108.021 386.274 118.022L388.748 117.541C388.748 117.541 380.18 106.361 388.33 101.786C388.325 101.801 389.745 92.2373 385.99 89.4424Z" fill="black"/>
<path opacity="0.2" d="M416.807 66.2997L416.272 63.4808C411.829 60.0557 416.022 57.6504 416.022 57.6504L416.595 60.6714C427.122 57.6408 426.559 62.2012 426.559 62.2012C427.011 62.1551 427.465 62.2704 427.84 62.5266C428.216 62.7827 428.488 63.1634 428.61 63.601C428.649 63.711 428.663 63.8283 428.65 63.9443C428.638 64.0604 428.6 64.1722 428.54 64.2718C428.479 64.3713 428.396 64.4561 428.298 64.5198C428.201 64.5835 428.09 64.6246 427.974 64.6401L424.84 65.0682C424.66 65.0924 424.486 65.1532 424.33 65.2468C424.174 65.3404 424.039 65.4649 423.932 65.6126C423.826 65.7603 423.751 65.9281 423.712 66.1058C423.673 66.2836 423.67 66.4674 423.704 66.6461L426.145 79.3314C426.322 80.2391 426.3 81.1746 426.079 82.0727C425.858 82.9707 425.443 83.8099 424.865 84.5316C423.96 85.6428 422.511 86.6434 420.2 87.009L396.017 91.579C396.017 91.579 398.905 97.2025 393.311 101.854C393.311 101.854 388.604 104.543 391.126 107.863L397.475 115.858L394.726 116.377C394.726 116.377 383.265 109.441 386.635 103.682C387.55 101.852 387.96 99.812 387.824 97.7709C387.688 95.7299 387.01 93.762 385.86 92.0697C385.86 92.0697 374.115 79.1198 385.297 72.5486C385.297 72.5486 389.422 69.7777 395.237 72.9479C395.237 72.9479 397.831 74.6364 398.544 67.868C399.136 62.2252 400.691 61.6672 401.191 61.6383C401.321 61.6383 401.451 61.6383 401.581 61.5998C402.65 61.4459 407.16 61.4074 409.514 71.1968C409.514 71.1968 411.593 78.6724 415.218 76.2816C418.612 74.0447 417.144 67.4927 416.917 66.6605C416.903 66.6059 416.884 66.5528 416.86 66.5018C416.834 66.4367 416.816 66.3689 416.807 66.2997Z" fill="#535461"/>
<path opacity="0.2" d="M409.981 87.374C409.981 87.374 402.539 97.6926 412.912 112.87L414.746 112.523L413.249 98.5729C413.249 98.5729 414.135 92.7185 422.169 85.0361L409.981 87.374Z" fill="#535461"/>
<path opacity="0.2" d="M417.988 62.8035C419.051 62.6027 419.75 61.5786 419.549 60.5161C419.348 59.4536 418.323 58.7551 417.26 58.9558C416.197 59.1566 415.498 60.1807 415.699 61.2432C415.9 62.3057 416.924 63.0043 417.988 62.8035Z" fill="#535461"/>
<path opacity="0.2" d="M409.374 73.6978C411.637 70.2583 410.289 70.0322 409.413 69.1278C408.816 68.5121 403.8 68.2764 400.676 68.1898C400.609 67.9493 400.503 67.5452 400.378 67.0545C400.378 67.0545 400.128 66.1501 400.012 65.5151H400.209L400.18 65.3275L404.031 65.1207C407.319 64.986 407.478 63.6775 407.478 63.6775C407.555 61.431 403.844 63.5861 403.844 63.5861C403.107 63.9469 401.153 63.6775 399.627 63.3793C399.584 63.0602 399.56 62.739 399.555 62.4172C399.574 61.9197 399.541 61.4216 399.458 60.9307C399.404 60.5068 399.238 60.105 398.977 59.7666C397.848 58.4181 396.543 57.2273 395.097 56.226C395.012 55.3771 395.091 54.5198 395.328 53.7005C395.912 53.4008 396.385 52.9217 396.676 52.3337C396.967 51.7457 397.062 51.0799 396.946 50.4341C396.89 50.1384 396.789 49.8529 396.647 49.5875C397.336 48.6735 397.013 47.1101 396.06 46.2538C395.958 46.1624 395.849 46.0803 395.733 46.0085C395.114 45.5954 394.366 45.4241 393.629 45.5274C392.808 45.6615 392.027 45.9807 391.347 46.4607C390.534 46.9994 389.745 47.6825 388.772 47.7883C388.069 47.8653 387.328 47.6248 386.669 47.8413C385.797 48.1203 385.35 49.0487 385.071 49.9002C384.791 50.7516 384.522 51.6897 383.766 52.1996C383.107 52.6422 382.255 52.6374 381.48 52.825C380.938 52.9387 380.434 53.1839 380.01 53.5388C379.586 53.8936 379.256 54.3473 379.049 54.8598C378.896 55.3214 378.899 55.8202 379.057 56.2798C379.216 56.7394 379.52 57.1345 379.925 57.4046C380.052 57.498 380.191 57.5741 380.339 57.6307C380.504 57.6815 380.664 57.7441 380.82 57.8183C380.863 57.8497 380.899 57.8892 380.926 57.9346C380.953 57.9801 380.971 58.0305 380.979 58.0829C380.981 58.2142 380.953 58.3442 380.897 58.4629C380.808 58.7282 380.774 59.0091 380.798 59.288C380.822 59.567 380.903 59.838 381.037 60.0841C381.126 60.2637 381.264 60.414 381.436 60.517C381.485 60.5574 381.538 60.5913 381.595 60.618C382.158 60.8634 382.856 60.3102 383.415 60.5603H383.458C383.675 60.7948 383.862 61.0549 384.016 61.3348C384.148 61.5 384.312 61.6374 384.498 61.7389C384.988 62.0595 385.58 62.1864 386.158 62.0949C386.893 61.9534 387.594 61.6725 388.223 61.2674C389.075 60.7864 390.004 60.1177 390.072 59.1652C390.11 58.5832 389.807 58.0203 389.879 57.4431C389.918 57.1674 390.03 56.9068 390.202 56.6878C390.106 57.1754 390.072 57.6733 390.101 58.1695C390.118 58.5718 390.166 58.9723 390.245 59.3673C390.428 60.3999 390.8 61.3898 391.343 62.2873C392.072 63.4552 392.607 64.7338 392.926 66.0732C393.04 66.6634 393.05 67.269 392.955 67.8627C392.647 69.5848 392.681 70.3257 392.768 70.6383C392.82 71.0617 392.96 71.0665 392.96 71.0665H392.994C393.009 71.3583 393.083 71.6439 393.212 71.906C393.341 72.1682 393.523 72.4014 393.745 72.5914C398.101 74.3906 406.963 71.841 406.963 71.841C405.172 72.4711 403.892 77.3731 403.892 77.3731C403.697 78.4401 403.251 79.4457 402.592 80.3075C401.629 80.1632 400.493 81.2407 399.637 81.8709L399.564 81.919C399.481 81.976 399.411 82.0502 399.358 82.1366C399.306 82.2229 399.273 82.3195 399.261 82.4197C399.249 82.52 399.259 82.6217 399.29 82.7178C399.32 82.814 399.371 82.9025 399.439 82.9773L402.847 86.7103C404.811 88.1005 405.942 88.1919 406.26 87.7975C406.467 87.5377 406.327 87.0759 405.846 86.6285C404.681 85.5462 404.85 82.0345 404.883 81.7362C405.418 80.5336 407.473 76.589 409.374 73.6978Z" fill="url(#paint1_linear)"/>
<path opacity="0.2" d="M395.602 53.2579C395.602 53.2579 394.611 55.5333 395.265 57.4912L391.573 55.5333C391.573 55.5333 392.748 55.2158 392.502 52.4209L395.602 53.2579Z" fill="#F9D5C6"/>
<path opacity="0.2" d="M398.077 68.3392C398.077 68.3392 407.873 68.4787 408.706 69.3638C409.539 70.249 410.814 70.4847 408.706 73.8232C406.597 77.1617 404.268 81.9626 404.268 81.9626L401.774 80.8225C402.678 79.8677 403.277 78.6651 403.493 77.3686C403.493 77.3686 404.677 72.5917 406.381 71.9904C406.381 71.9904 398.02 74.4245 393.865 72.6446C393.865 72.6446 392.758 71.8124 393.273 70.0084C393.788 68.2045 398.077 68.3392 398.077 68.3392Z" fill="#353535"/>
<path opacity="0.1" d="M392.637 55.6195C392.637 55.6195 390.192 55.0182 390.37 58.7656C390.44 60.1237 390.84 61.4444 391.535 62.614C392.329 63.9706 393.46 66.3037 393.128 68.2423C392.646 71.1767 393.128 71.1815 393.128 71.1815L394.379 70.4215C396.066 69.3923 398.002 68.8434 399.978 68.834H400.56C400.56 68.834 399.386 64.62 399.361 62.7535C399.361 61.8684 399.361 61.0458 398.827 60.3482C397.157 58.1931 393.807 55.6147 392.637 55.6195Z" fill="black"/>
<path opacity="0.2" d="M392.604 55.4466C392.604 55.4466 390.158 54.8453 390.336 58.5927C390.407 59.9509 390.807 61.2716 391.501 62.4411C392.296 63.7977 393.427 66.1308 393.095 68.0694C392.613 71.0039 393.095 71.0087 393.095 71.0087L394.346 70.2486C396.033 69.2194 397.968 68.6705 399.944 68.6611H400.527C400.527 68.6611 399.352 64.4471 399.328 62.5806C399.328 61.6955 399.328 60.8729 398.794 60.1754C397.124 58.0106 393.773 55.4466 392.604 55.4466Z" fill="#409CD6"/>
<path opacity="0.1" d="M391.693 58.4483C391.794 58.1717 391.963 57.9249 392.184 57.7303C392.405 57.5357 392.672 57.3997 392.959 57.3346C393.246 57.2695 393.546 57.2774 393.829 57.3577C394.112 57.438 394.371 57.5881 394.582 57.7941C394.959 58.1906 395.26 58.6539 395.467 59.1603C396.627 61.7869 397.508 63.4224 397.508 63.4224C398.254 63.533 398.99 63.7035 399.708 63.9324C399.819 64.8319 399.963 65.7652 399.963 65.7652L396.839 65.9191L392.56 60.8488C392.56 60.8488 391.255 59.7761 391.693 58.4483Z" fill="black"/>
<path opacity="0.2" d="M391.656 58.2609C391.756 57.9843 391.925 57.7374 392.146 57.5428C392.367 57.3482 392.634 57.2122 392.921 57.1471C393.209 57.082 393.508 57.09 393.791 57.1702C394.074 57.2505 394.333 57.4006 394.544 57.6066C394.921 58.0031 395.222 58.4664 395.429 58.9728C396.589 61.5993 397.47 63.2349 397.47 63.2349C397.47 63.2349 402.173 64.529 403.386 63.918C403.386 63.918 406.881 61.8351 406.823 64.0287C406.823 64.0287 406.684 65.289 403.574 65.3997L396.806 65.7316L392.527 60.6613C392.527 60.6613 391.222 59.5693 391.656 58.2609Z" fill="#F9D5C6"/>
<path opacity="0.1" d="M392.219 53.6572C392.31 53.2195 392.517 53.3879 392.45 52.6182L395.55 53.4552C395.421 53.7679 395.315 54.0895 395.232 54.4173C394.922 54.5236 394.597 54.5836 394.269 54.5953C393.586 54.73 392.801 53.9795 392.219 53.6572Z" fill="black"/>
<path opacity="0.2" d="M394.42 54.5498C396.039 54.2439 397.104 52.6839 396.798 51.0653C396.492 49.4468 394.931 48.3826 393.311 48.6884C391.692 48.9943 390.627 50.5543 390.933 52.1728C391.239 53.7914 392.8 54.8556 394.42 54.5498Z" fill="#F9D5C6"/>
<path opacity="0.1" d="M395.088 50.9058C394.559 50.9347 393.981 50.7663 393.533 51.0454C393.086 51.3244 392.956 52.0892 393.052 52.6858C393.148 53.2823 393.398 53.8836 393.259 54.4753C393.071 55.2498 392.296 55.726 391.622 56.1349C390.948 56.5438 390.178 57.097 390.106 57.8763C390.043 58.4391 390.332 58.9923 390.298 59.56C390.241 60.4884 389.369 61.1282 388.561 61.5997C387.977 61.9871 387.323 62.2568 386.635 62.3934C386.285 62.4556 385.925 62.4242 385.591 62.3026C385.258 62.181 384.962 61.9733 384.734 61.7007C384.517 61.4024 384.387 61.0031 384.05 60.8492C383.521 60.5991 382.861 61.1378 382.332 60.8973C382.146 60.7986 381.997 60.6414 381.908 60.4499C381.781 60.2094 381.703 59.946 381.679 59.6751C381.655 59.4041 381.686 59.1311 381.769 58.8721C381.82 58.7556 381.845 58.629 381.841 58.5017C381.798 58.1986 381.427 58.0976 381.138 57.9869C380.663 57.7597 380.286 57.3674 380.079 56.8832C379.872 56.399 379.848 55.8561 380.012 55.3556C380.197 54.8619 380.504 54.4226 380.903 54.078C381.303 53.7334 381.782 53.4945 382.298 53.3833C383.03 53.2005 383.839 53.2101 384.455 52.7868C385.167 52.3057 385.417 51.3773 385.673 50.5499C385.928 49.7225 386.347 48.8181 387.17 48.5535C387.805 48.3467 388.493 48.5824 389.158 48.515C390.077 48.4188 390.818 47.755 391.564 47.2354C392.201 46.7714 392.938 46.4633 393.716 46.3359C394.106 46.2756 394.503 46.3003 394.882 46.4082C395.261 46.5162 395.612 46.7048 395.911 46.9612C397.24 48.1687 397.322 50.7856 395.088 50.9058Z" fill="black"/>
<path opacity="0.2" d="M394.977 50.8337C394.447 50.8626 393.87 50.6942 393.422 50.9732C392.974 51.2523 392.844 52.0171 392.941 52.6136C393.037 53.2101 393.287 53.8114 393.148 54.4031C392.96 55.1776 392.185 55.6539 391.511 56.0628C390.837 56.4717 390.067 57.0249 389.995 57.8042C389.932 58.367 390.221 58.9202 390.187 59.4879C390.129 60.4163 389.258 61.0561 388.45 61.5275C387.866 61.915 387.212 62.1846 386.524 62.3213C386.176 62.3837 385.817 62.3534 385.484 62.2335C385.151 62.1136 384.856 61.9083 384.628 61.6382C384.411 61.3399 384.281 60.9406 383.944 60.7867C383.414 60.5366 382.755 61.0753 382.226 60.8348C382.039 60.7361 381.89 60.5789 381.802 60.3874C381.675 60.1469 381.597 59.8835 381.573 59.6126C381.549 59.3416 381.579 59.0686 381.662 58.8096C381.714 58.6931 381.739 58.5665 381.735 58.4392C381.691 58.1361 381.321 58.0351 381.032 57.9244C380.556 57.6972 380.18 57.3049 379.973 56.8207C379.766 56.3366 379.742 55.7936 379.905 55.2931C380.091 54.7994 380.397 54.3601 380.797 54.0155C381.196 53.6709 381.676 53.432 382.192 53.3208C382.924 53.138 383.732 53.1476 384.348 52.7243C385.061 52.2432 385.311 51.3148 385.566 50.4874C385.821 49.66 386.24 48.7556 387.063 48.491C387.699 48.2842 388.387 48.5199 389.051 48.4525C389.971 48.3563 390.712 47.6925 391.458 47.1729C392.095 46.7089 392.832 46.4008 393.61 46.2734C393.999 46.2131 394.397 46.2378 394.776 46.3457C395.155 46.4537 395.506 46.6423 395.805 46.8987C397.128 48.0966 397.21 50.7087 394.977 50.8337Z" fill="#2F302F"/>
<path opacity="0.1" d="M395.853 58.3762C395.853 58.3762 392.002 58.6264 392.329 61.3155C392.657 64.0046 390.991 58.2512 390.991 58.2512L392.488 56.6396L394.625 56.8994L395.853 58.3762Z" fill="black"/>
<path opacity="0.2" d="M395.752 58.2991C395.752 58.2991 391.901 58.5492 392.229 61.2383C392.556 63.9274 390.891 58.174 390.891 58.174L392.388 56.5625L394.525 56.8223L395.752 58.2991Z" fill="#409CD6"/>
<path opacity="0.2" d="M399.304 82.7947L402.548 86.4555C404.416 87.8217 405.485 87.8987 405.783 87.5379C405.976 87.2878 405.841 86.8356 405.383 86.3978C404.223 85.2914 404.421 81.5873 404.421 81.5873C403.961 81.6017 403.508 81.4759 403.122 81.2267C402.736 80.9775 402.435 80.6167 402.259 80.1922C401.34 80.0479 400.281 81.0918 399.472 81.6979L399.405 81.7461C399.324 81.8045 399.257 81.8794 399.207 81.9659C399.158 82.0524 399.127 82.1484 399.117 82.2476C399.108 82.3468 399.12 82.4469 399.152 82.5412C399.184 82.6355 399.236 82.722 399.304 82.7947Z" fill="#409CD6"/>
<path opacity="0.1" d="M404.426 81.5962C404.426 81.5962 402.578 81.8512 402.265 80.2012C402.447 80.6209 402.749 80.9773 403.134 81.2255C403.519 81.4738 403.968 81.6027 404.426 81.5962Z" fill="black"/>
<path opacity="0.1" d="M399.305 82.7943L402.549 86.4551C404.417 87.8213 405.485 87.8982 405.784 87.5375C404.85 87.2488 402.207 86.0943 399.483 81.7119L399.415 81.76C399.336 81.8178 399.27 81.8914 399.221 81.9763C399.172 82.0611 399.141 82.1552 399.131 82.2526C399.121 82.35 399.131 82.4486 399.161 82.5418C399.19 82.6351 399.24 82.7211 399.305 82.7943Z" fill="black"/>
<path opacity="0.2" d="M346.191 111.446C346.191 111.446 337.608 119.114 357.166 124.718C357.166 124.718 359.717 116.675 354.244 111.547C353.18 110.546 351.786 109.97 350.326 109.927C348.866 109.885 347.441 110.379 346.321 111.316L346.191 111.446Z" fill="#0080F6"/>
<path opacity="0.2" d="M346.272 111.302C346.272 111.302 355.77 116.059 357.166 124.718" stroke="#535461" stroke-miterlimit="10"/>
<path opacity="0.2" d="M356.627 124.8C356.627 124.8 351.645 115.073 353.816 106.814C354.753 103.347 354.537 99.6696 353.2 96.3364C352.555 94.762 351.767 93.25 350.846 91.8193" stroke="#535461" stroke-width="2" stroke-miterlimit="10"/>
<path opacity="0.2" d="M352.184 86.6281C352.425 87.8884 350.826 91.9822 350.826 91.9822C350.826 91.9822 347.847 88.7543 347.611 87.494C347.496 86.8879 347.627 86.2611 347.974 85.7514C348.322 85.2417 348.858 84.8908 349.464 84.776C350.071 84.6612 350.698 84.7918 351.208 85.1391C351.718 85.4865 352.069 86.022 352.184 86.6281Z" fill="#0080F6"/>
<path opacity="0.2" d="M357.286 92.9057C356.805 94.0939 353.238 96.6627 353.238 96.6627C353.238 96.6627 352.492 92.3332 352.978 91.145C353.094 90.8608 353.264 90.602 353.48 90.3837C353.696 90.1653 353.952 89.9915 354.235 89.8722C354.518 89.7529 354.822 89.6905 355.129 89.6885C355.436 89.6865 355.741 89.745 356.025 89.8606C356.31 89.9762 356.568 90.1467 356.787 90.3623C357.005 90.5779 357.179 90.8344 357.299 91.1172C357.418 91.3999 357.481 91.7034 357.483 92.0103C357.485 92.3172 357.426 92.6214 357.31 92.9057H357.286Z" fill="#0080F6"/>
<path opacity="0.2" d="M359.38 104.884C358.36 105.664 353.984 106.087 353.984 106.087C353.984 106.087 355.53 101.974 356.545 101.195C357.035 100.82 357.653 100.654 358.265 100.735C358.877 100.816 359.431 101.136 359.806 101.625C360.182 102.114 360.347 102.733 360.266 103.344C360.186 103.955 359.865 104.509 359.376 104.884H359.38Z" fill="#0080F6"/>
<path opacity="0.2" d="M358.923 114.304C358.051 115.266 353.811 116.396 353.811 116.396C353.811 116.396 354.634 112.067 355.51 111.143C355.717 110.919 355.967 110.738 356.245 110.611C356.522 110.483 356.822 110.412 357.128 110.4C357.433 110.389 357.738 110.437 358.024 110.543C358.311 110.649 358.573 110.811 358.797 111.018C359.022 111.226 359.203 111.475 359.33 111.753C359.458 112.03 359.529 112.33 359.541 112.635C359.553 112.94 359.504 113.244 359.398 113.531C359.292 113.817 359.13 114.08 358.923 114.304Z" fill="#0080F6"/>
<path opacity="0.2" d="M348.482 97.8131C349.555 98.5203 353.945 98.6357 353.945 98.6357C353.945 98.6357 352.121 94.643 351.057 93.931C350.802 93.7627 350.516 93.6462 350.216 93.5882C349.916 93.5302 349.607 93.5319 349.308 93.5931C349.008 93.6543 348.724 93.7738 348.47 93.9449C348.217 94.1159 348 94.3352 347.832 94.5901C347.663 94.845 347.547 95.1305 347.489 95.4305C347.431 95.7304 347.432 96.0388 347.493 96.3381C347.555 96.6374 347.674 96.9217 347.846 97.1748C348.017 97.4279 348.236 97.6448 348.491 97.8131H348.482Z" fill="#0080F6"/>
<path opacity="0.2" d="M348.087 108.844C349.324 109.2 353.546 107.992 353.546 107.992C353.546 107.992 350.609 104.726 349.372 104.37C348.779 104.199 348.143 104.272 347.603 104.57C347.063 104.869 346.664 105.369 346.494 105.962C346.323 106.555 346.396 107.191 346.694 107.73C346.993 108.27 347.494 108.668 348.087 108.839V108.844Z" fill="#0080F6"/>
<path opacity="0.2" d="M349.161 119.605C350.316 120.163 354.687 119.691 354.687 119.691C354.687 119.691 352.343 115.977 351.187 115.419C350.631 115.151 349.991 115.114 349.408 115.317C348.825 115.52 348.346 115.946 348.078 116.502C347.809 117.057 347.772 117.697 347.975 118.28C348.178 118.863 348.605 119.341 349.161 119.609V119.605Z" fill="#0080F6"/>
<path opacity="0.25" d="M352.184 86.6281C352.425 87.8884 350.826 91.9822 350.826 91.9822C350.826 91.9822 347.847 88.7543 347.611 87.494C347.496 86.8879 347.627 86.2611 347.974 85.7514C348.322 85.2417 348.858 84.8908 349.464 84.776C350.071 84.6612 350.698 84.7918 351.208 85.1391C351.718 85.4865 352.069 86.022 352.184 86.6281Z" fill="black"/>
<path opacity="0.25" d="M357.286 92.9057C356.805 94.0939 353.238 96.6627 353.238 96.6627C353.238 96.6627 352.492 92.3332 352.978 91.145C353.094 90.8608 353.264 90.602 353.48 90.3837C353.696 90.1653 353.952 89.9915 354.235 89.8722C354.518 89.7529 354.822 89.6905 355.129 89.6885C355.436 89.6865 355.741 89.745 356.025 89.8606C356.31 89.9762 356.568 90.1467 356.787 90.3623C357.005 90.5779 357.179 90.8344 357.299 91.1172C357.418 91.3999 357.481 91.7034 357.483 92.0103C357.485 92.3172 357.426 92.6214 357.31 92.9057H357.286Z" fill="black"/>
<path opacity="0.25" d="M359.38 104.884C358.36 105.664 353.984 106.087 353.984 106.087C353.984 106.087 355.53 101.974 356.545 101.195C357.035 100.82 357.653 100.654 358.265 100.735C358.877 100.816 359.431 101.136 359.806 101.625C360.182 102.114 360.347 102.733 360.266 103.344C360.186 103.955 359.865 104.509 359.376 104.884H359.38Z" fill="black"/>
<path opacity="0.25" d="M358.923 114.304C358.051 115.266 353.811 116.396 353.811 116.396C353.811 116.396 354.634 112.067 355.51 111.143C355.717 110.919 355.967 110.738 356.245 110.611C356.522 110.483 356.822 110.412 357.128 110.4C357.433 110.389 357.738 110.437 358.024 110.543C358.311 110.649 358.573 110.811 358.797 111.018C359.022 111.226 359.203 111.475 359.33 111.753C359.458 112.03 359.529 112.33 359.541 112.635C359.553 112.94 359.504 113.244 359.398 113.531C359.292 113.817 359.13 114.08 358.923 114.304Z" fill="black"/>
<path opacity="0.25" d="M348.482 97.8131C349.555 98.5203 353.945 98.6357 353.945 98.6357C353.945 98.6357 352.121 94.643 351.057 93.931C350.802 93.7627 350.516 93.6462 350.216 93.5882C349.916 93.5302 349.607 93.5319 349.308 93.5931C349.008 93.6543 348.724 93.7738 348.47 93.9449C348.217 94.1159 348 94.3352 347.832 94.5901C347.663 94.845 347.547 95.1305 347.489 95.4305C347.431 95.7304 347.432 96.0388 347.493 96.3381C347.555 96.6374 347.674 96.9217 347.846 97.1748C348.017 97.4279 348.236 97.6448 348.491 97.8131H348.482Z" fill="black"/>
<path opacity="0.25" d="M348.087 108.844C349.324 109.2 353.546 107.992 353.546 107.992C353.546 107.992 350.609 104.726 349.372 104.37C348.779 104.199 348.143 104.272 347.603 104.57C347.063 104.869 346.664 105.369 346.494 105.962C346.323 106.555 346.396 107.191 346.694 107.73C346.993 108.27 347.494 108.668 348.087 108.839V108.844Z" fill="black"/>
<path opacity="0.25" d="M349.161 119.605C350.316 120.163 354.687 119.691 354.687 119.691C354.687 119.691 352.343 115.977 351.187 115.419C350.631 115.151 349.991 115.114 349.408 115.317C348.825 115.52 348.346 115.946 348.078 116.502C347.809 117.057 347.772 117.697 347.975 118.28C348.178 118.863 348.605 119.341 349.161 119.609V119.605Z" fill="black"/>
<path opacity="0.2" d="M366.009 126.642C366.009 126.642 361.027 116.916 363.198 108.656C364.131 105.197 363.917 101.529 362.586 98.2026C361.941 96.6282 361.153 95.1162 360.232 93.6855" stroke="#535461" stroke-width="2" stroke-miterlimit="10"/>
<path opacity="0.2" d="M361.584 88.466C361.825 89.7263 360.227 93.8201 360.227 93.8201C360.227 93.8201 357.247 90.5922 357.011 89.3319C356.896 88.7258 357.027 88.099 357.375 87.5893C357.722 87.0796 358.258 86.7287 358.865 86.6139C359.471 86.4991 360.098 86.6297 360.608 86.977C361.118 87.3244 361.469 87.8599 361.584 88.466Z" fill="#0080F6"/>
<path opacity="0.2" d="M366.688 94.7436C366.206 95.9318 362.639 98.5006 362.639 98.5006C362.639 98.5006 361.893 94.1711 362.379 92.9829C362.613 92.4088 363.065 91.9509 363.637 91.7101C364.208 91.4692 364.852 91.465 365.426 91.6985C366.001 91.932 366.459 92.384 366.7 92.955C366.941 93.5261 366.945 94.1695 366.712 94.7436H366.688Z" fill="#0080F6"/>
<path opacity="0.2" d="M368.781 106.722C367.76 107.501 363.385 107.925 363.385 107.925C363.385 107.925 364.93 103.812 365.946 103.032C366.435 102.657 367.054 102.492 367.665 102.573C368.277 102.654 368.832 102.974 369.207 103.463C369.582 103.952 369.748 104.571 369.667 105.182C369.586 105.793 369.266 106.347 368.776 106.722H368.781Z" fill="#0080F6"/>
<path opacity="0.2" d="M368.324 116.141C367.453 117.103 363.212 118.233 363.212 118.233C363.212 118.233 364.035 113.904 364.911 112.98C365.33 112.528 365.913 112.26 366.529 112.237C367.146 112.214 367.746 112.436 368.199 112.855C368.651 113.274 368.919 113.856 368.942 114.472C368.966 115.088 368.743 115.688 368.324 116.141Z" fill="#0080F6"/>
<path opacity="0.2" d="M357.883 99.6511C358.956 100.358 363.346 100.474 363.346 100.474C363.346 100.474 361.522 96.4809 360.458 95.7689C360.203 95.6006 359.917 95.4841 359.617 95.4261C359.317 95.3681 359.008 95.3697 358.709 95.4309C358.41 95.4921 358.125 95.6117 357.872 95.7828C357.619 95.9538 357.402 96.1731 357.233 96.428C357.065 96.6829 356.948 96.9685 356.89 97.2684C356.832 97.5683 356.834 97.8767 356.895 98.176C356.956 98.4753 357.076 98.7596 357.247 99.0127C357.418 99.2658 357.637 99.4827 357.893 99.6511H357.883Z" fill="#0080F6"/>
<path opacity="0.2" d="M357.489 110.677C358.726 111.033 362.947 109.825 362.947 109.825C362.947 109.825 360.011 106.559 358.774 106.203C358.181 106.032 357.544 106.105 357.005 106.403C356.465 106.702 356.066 107.202 355.895 107.795C355.725 108.388 355.797 109.024 356.096 109.563C356.394 110.103 356.896 110.501 357.489 110.672V110.677Z" fill="#0080F6"/>
<path opacity="0.2" d="M358.576 121.441C359.731 121.999 364.102 121.528 364.102 121.528C364.102 121.528 361.758 117.814 360.602 117.256C360.327 117.123 360.028 117.046 359.723 117.028C359.418 117.011 359.112 117.053 358.823 117.154C358.535 117.254 358.268 117.411 358.04 117.614C357.812 117.817 357.626 118.064 357.493 118.339C357.36 118.614 357.282 118.912 357.265 119.217C357.247 119.523 357.29 119.828 357.39 120.117C357.491 120.405 357.647 120.671 357.851 120.899C358.054 121.127 358.301 121.313 358.576 121.446V121.441Z" fill="#0080F6"/>
<path opacity="0.1" d="M385.898 37.7443L385.051 37.9031C385.208 37.8731 385.347 37.782 385.436 37.6498C385.526 37.5177 385.56 37.3553 385.53 37.1983C385.5 37.0414 385.409 36.9028 385.276 36.8131C385.144 36.7233 384.982 36.6897 384.825 36.7197L377.965 38.0137C377.808 38.0437 377.67 38.1348 377.58 38.267C377.49 38.3991 377.456 38.5615 377.486 38.7185C377.516 38.8754 377.607 39.014 377.74 39.1037C377.872 39.1935 378.034 39.2271 378.192 39.1971L379.039 39.0384C378.961 39.0532 378.887 39.0832 378.821 39.1267C378.755 39.1701 378.698 39.2262 378.653 39.2916C378.609 39.357 378.578 39.4306 378.562 39.5081C378.545 39.5855 378.545 39.6654 378.56 39.7431C378.575 39.8208 378.605 39.8948 378.648 39.9609C378.692 40.027 378.748 40.0839 378.813 40.1284C378.879 40.1728 378.952 40.2039 379.03 40.22C379.107 40.236 379.187 40.2366 379.265 40.2218L378.081 40.4478C377.924 40.4778 377.785 40.5689 377.695 40.7011C377.605 40.8333 377.572 40.9957 377.602 41.1526C377.632 41.3095 377.723 41.4481 377.855 41.5379C377.987 41.6276 378.15 41.6612 378.307 41.6312L385.166 40.3372C385.244 40.3224 385.318 40.2924 385.384 40.2489C385.451 40.2055 385.507 40.1494 385.552 40.084C385.596 40.0185 385.628 39.945 385.644 39.8675C385.66 39.79 385.66 39.7102 385.645 39.6325C385.63 39.5548 385.6 39.4807 385.557 39.4146C385.514 39.3485 385.457 39.2916 385.392 39.2472C385.326 39.2027 385.253 39.1716 385.175 39.1556C385.098 39.1396 385.018 39.139 384.94 39.1538L386.124 38.9277C386.202 38.9129 386.276 38.8829 386.342 38.8394C386.408 38.796 386.465 38.7399 386.51 38.6745C386.554 38.609 386.585 38.5355 386.601 38.458C386.618 38.3805 386.618 38.3007 386.603 38.223C386.588 38.1453 386.558 38.0713 386.515 38.0051C386.471 37.939 386.415 37.8821 386.35 37.8377C386.284 37.7932 386.211 37.7621 386.133 37.7461C386.056 37.7301 385.976 37.7295 385.898 37.7443Z" fill="#252223"/>
<path opacity="0.1" d="M373.474 49.5148L372.627 49.6736C372.705 49.6587 372.779 49.6287 372.845 49.5853C372.911 49.5418 372.968 49.4858 373.012 49.4203C373.057 49.3549 373.088 49.2813 373.104 49.2039C373.12 49.1264 373.121 49.0465 373.106 48.9688C373.091 48.8911 373.061 48.8171 373.017 48.751C372.974 48.6849 372.918 48.628 372.852 48.5836C372.787 48.5391 372.713 48.508 372.636 48.492C372.558 48.476 372.478 48.4754 372.401 48.4902L365.527 49.7842C365.37 49.8142 365.231 49.9053 365.141 50.0375C365.051 50.1696 365.018 50.332 365.048 50.489C365.078 50.6459 365.169 50.7845 365.301 50.8742C365.433 50.964 365.596 50.9976 365.753 50.9676L366.6 50.8089C366.522 50.8237 366.448 50.8537 366.382 50.8972C366.316 50.9406 366.259 50.9967 366.215 51.0621C366.17 51.1275 366.139 51.2011 366.123 51.2786C366.107 51.356 366.106 51.4359 366.121 51.5136C366.136 51.5913 366.166 51.6653 366.21 51.7314C366.253 51.7975 366.309 51.8544 366.375 51.8989C366.44 51.9433 366.514 51.9745 366.591 51.9905C366.669 52.0065 366.749 52.0071 366.826 51.9923L365.642 52.2183C365.565 52.2332 365.49 52.2632 365.424 52.3067C365.358 52.3501 365.301 52.4061 365.257 52.4716C365.212 52.537 365.181 52.6106 365.165 52.6881C365.149 52.7655 365.148 52.8454 365.163 52.9231C365.178 53.0008 365.208 53.0748 365.252 53.1409C365.295 53.207 365.351 53.2639 365.417 53.3084C365.482 53.3528 365.556 53.3839 365.633 53.4C365.711 53.416 365.791 53.4166 365.869 53.4017L372.747 52.1077C372.825 52.0929 372.899 52.0628 372.965 52.0194C373.031 51.9759 373.088 51.9199 373.133 51.8545C373.177 51.789 373.208 51.7155 373.224 51.638C373.24 51.5605 373.241 51.4807 373.226 51.403C373.211 51.3253 373.181 51.2512 373.138 51.1851C373.094 51.119 373.038 51.0621 372.973 51.0177C372.907 50.9732 372.834 50.9421 372.756 50.9261C372.679 50.9101 372.599 50.9095 372.521 50.9243L373.705 50.6982C373.783 50.6834 373.857 50.6534 373.923 50.6099C373.989 50.5665 374.046 50.5104 374.091 50.445C374.135 50.3795 374.166 50.306 374.182 50.2285C374.198 50.1511 374.199 50.0712 374.184 49.9935C374.169 49.9158 374.139 49.8418 374.096 49.7757C374.052 49.7095 373.996 49.6526 373.931 49.6082C373.865 49.5637 373.792 49.5326 373.714 49.5166C373.637 49.5006 373.557 49.5 373.479 49.5148H373.474Z" fill="#252223"/>
<path opacity="0.1" d="M443.642 34.4777L442.795 34.6365C442.873 34.6216 442.947 34.5916 443.013 34.5482C443.079 34.5047 443.136 34.4487 443.181 34.3832C443.225 34.3178 443.256 34.2442 443.272 34.1668C443.288 34.0893 443.289 34.0094 443.274 33.9317C443.259 33.854 443.229 33.78 443.186 33.7139C443.142 33.6478 443.086 33.5909 443.021 33.5465C442.955 33.502 442.882 33.4709 442.804 33.4549C442.727 33.4388 442.647 33.4382 442.569 33.4531L435.714 34.7615C435.557 34.7915 435.419 34.8826 435.329 35.0148C435.239 35.147 435.205 35.3094 435.235 35.4663C435.265 35.6232 435.356 35.7618 435.489 35.8516C435.621 35.9413 435.784 35.9749 435.941 35.9449L436.788 35.7862C436.71 35.801 436.636 35.831 436.57 35.8745C436.504 35.9179 436.447 35.974 436.402 36.0394C436.358 36.1049 436.327 36.1784 436.311 36.2559C436.295 36.3334 436.294 36.4132 436.309 36.4909C436.324 36.5686 436.354 36.6426 436.397 36.7088C436.441 36.7749 436.497 36.8318 436.562 36.8762C436.628 36.9207 436.701 36.9518 436.779 36.9678C436.856 36.9838 436.936 36.9844 437.014 36.9696L435.806 37.1668C435.649 37.1968 435.51 37.2879 435.42 37.42C435.33 37.5522 435.297 37.7146 435.327 37.8715C435.357 38.0285 435.448 38.1671 435.58 38.2568C435.712 38.3466 435.875 38.3802 436.032 38.3502L442.891 37.0562C442.969 37.0413 443.043 37.0113 443.109 36.9679C443.175 36.9244 443.232 36.8684 443.277 36.8029C443.321 36.7375 443.353 36.6639 443.369 36.5865C443.385 36.509 443.385 36.4291 443.37 36.3514C443.355 36.2737 443.325 36.1997 443.282 36.1336C443.238 36.0675 443.182 36.0106 443.117 35.9661C443.051 35.9217 442.978 35.8906 442.9 35.8746C442.823 35.8585 442.743 35.8579 442.665 35.8728L443.849 35.6467C443.927 35.6318 444.001 35.6018 444.067 35.5584C444.133 35.5149 444.19 35.4589 444.235 35.3934C444.279 35.328 444.31 35.2544 444.326 35.177C444.342 35.0995 444.343 35.0196 444.328 34.9419C444.313 34.8642 444.283 34.7902 444.24 34.7241C444.196 34.658 444.14 34.6011 444.075 34.5567C444.009 34.5122 443.936 34.4811 443.858 34.4651C443.781 34.4491 443.701 34.4485 443.623 34.4633L443.642 34.4777Z" fill="#252223"/>
<path opacity="0.3" d="M353.206 55.731C356.673 55.0764 358.952 51.7375 358.297 48.2732C357.642 44.809 354.301 42.5313 350.834 43.1859C347.368 43.8405 345.089 47.1794 345.744 50.6437C346.399 54.1079 349.74 56.3856 353.206 55.731Z" fill="#0080F6"/>
<path opacity="0.05" d="M390.134 82.4766C390.134 82.4766 393.344 85.31 394.841 87.8259C396.339 90.3418 395.862 91.1932 395.862 91.1932" fill="black"/>
</g>
</g>
<defs>
<linearGradient id="paint0_linear" x1="409.823" y1="114.11" x2="399.654" y2="60.2588" gradientUnits="userSpaceOnUse">
<stop stop-color="#808080" stop-opacity="0.25"/>
<stop offset="0.54" stop-color="#808080" stop-opacity="0.12"/>
<stop offset="1" stop-color="#808080" stop-opacity="0.1"/>
</linearGradient>
<linearGradient id="paint1_linear" x1="28901.8" y1="14938.7" x2="28901.8" y2="11054" gradientUnits="userSpaceOnUse">
<stop stop-color="#808080" stop-opacity="0.25"/>
<stop offset="0.54" stop-color="#808080" stop-opacity="0.12"/>
<stop offset="1" stop-color="#808080" stop-opacity="0.1"/>
</linearGradient>
<clipPath id="clip0">
<rect width="500" height="272.526" fill="white"/>
</clipPath>
</defs>
</svg>
